<svg version="1.1" xmlns="http://www.w3.org/2000/svg" viewBox="0 0 1037.696950306034 879.5746032493987" width="1037.696950306034" height="879.5746032493987">
  <!-- svg-source:excalidraw -->
  
  <defs>
    <style class="style-fonts">
      @font-face {
        font-family: "Virgil";
        src: url("https://excalidraw.com/Virgil.woff2");
      }
      @font-face {
        font-family: "Cascadia";
        src: url("https://excalidraw.com/Cascadia.woff2");
      }
    </style>
  </defs>
  <rect x="0" y="0" width="1037.696950306034" height="879.5746032493987" fill="#ffffff"></rect><g stroke-linecap="round"><g transform="translate(566.1505457387099 64.79855311077375) rotate(0 44.152682080275724 9.646469490956939)" fill-rule="evenodd"><path d="M0 0 C0 0, 0 0, 0 0 M0 0 C0 0, 0 0, 0 0 M0.11 5.95 C5.19 0.56, 6.25 -3.24, 13.21 -7.21 M0.3 4.8 C3.67 1.41, 9.08 -3.54, 12.09 -8.8 M-0.23 10.58 C5.91 7.2, 10.71 1.16, 19.84 -13.32 M1.09 12.87 C5.36 6.2, 8.56 0.71, 21.48 -13.54 M2.06 17.24 C10.79 8.03, 19.33 -4.55, 26.07 -11.42 M1.31 16.81 C9.46 7.85, 17.14 -1.2, 28.2 -12.43 M-0.8 24.65 C11.55 14.19, 19.98 -0.56, 35.46 -15.32 M1.4 22.7 C9.31 14.58, 16.67 4.89, 34.29 -14.9 M1.93 26.53 C18.09 9.92, 31.93 -3.21, 42.89 -18 M2.65 26.97 C10.48 16.74, 18.36 7.89, 42.39 -18.06 M7.34 30.77 C17.51 16.47, 32.93 -0.99, 46.35 -16.33 M6.41 29.1 C15.68 19.76, 23.1 8.4, 46.93 -18.05 M8.46 30.79 C19.12 19.33, 30.28 11.26, 52.36 -17.36 M9.17 32.49 C18.45 22.08, 27.76 10.52, 52.96 -18.66 M14.04 32.69 C22.05 22.24, 35.19 11.79, 55.24 -17.29 M11.76 35.21 C23.97 19.95, 37.17 5.84, 56.93 -16.83 M18.19 34.57 C31.65 19.95, 44.54 6.21, 62.06 -17.46 M16.42 34.87 C35.39 15.85, 52.68 -4.7, 61.01 -17.02 M19.53 38.46 C40.17 15.02, 58.68 -7.51, 67.08 -16.14 M21.34 36.12 C36.97 18.81, 53.89 -0.47, 66.96 -15.46 M24.11 36.68 C41.33 21.68, 52.25 7.67, 71.42 -14.45 M25.15 38.55 C38.56 22.23, 51.9 6.48, 71.32 -14.48 M31.18 40.2 C41.01 24.95, 50.26 15.86, 73.4 -13.23 M29.99 38.65 C39.47 26.46, 48.97 15.13, 75.08 -13.88 M33.6 40.54 C48.5 26.49, 57.01 13.03, 79.66 -9.15 M35.43 39.21 C45.94 26.36, 56.47 12.87, 78.32 -11.38 M42.13 39.1 C53.54 23, 66.21 8.15, 83.44 -8.1 M40.17 38.32 C50.25 26.44, 60.18 15.26, 81.89 -8.56 M47.19 39.6 C57.98 23.8, 75.37 5.04, 83.74 -5.31 M45.28 39.25 C55.32 27.65, 66.33 14.27, 84.01 -5.34 M49.91 38.89 C63.61 25.7, 77.8 9.01, 88.24 -2.98 M50.61 38.89 C61.11 27.6, 70.67 17.49, 86.65 -2.05 M58.48 36.88 C65.08 26.57, 71.72 20.29, 91.09 2.11 M56.64 39.25 C66.4 26.86, 75.47 16.39, 88.72 0.48 M61.19 37.12 C75.04 27.36, 82.61 13.39, 87.94 5.97 M62.96 37.57 C71.48 28.21, 79.48 19.14, 90.58 5.89 M70.18 37.46 C71.55 32.46, 76.76 24.43, 88.27 14.26 M69.41 36.56 C76.52 26.76, 84.04 17.95, 89.74 12.67 M75.89 33.11 C83.05 27.06, 86.01 24.77, 89.74 18.49 M77.8 33.02 C79.08 30.21, 83.12 26.54, 88.85 19.85" stroke="#000000" stroke-width="0.5" fill="none"></path><path d="M-0.16 -0.69 C-0.19 1.45, -0.99 8.39, -0.76 12.42 C-0.53 16.45, -0.82 19.9, 1.19 23.49 C3.21 27.08, 6.64 31.61, 11.32 33.96 C16 36.32, 21.48 37.04, 29.29 37.64 C37.11 38.24, 50.33 38.36, 58.21 37.59 C66.09 36.81, 71.66 35.2, 76.59 32.99 C81.52 30.78, 85.85 27.88, 87.78 24.33 C89.71 20.77, 88.36 16.09, 88.17 11.66 C87.98 7.23, 88.82 1.78, 86.64 -2.25 C84.46 -6.28, 80.48 -9.89, 75.1 -12.52 C69.71 -15.15, 61.92 -17.08, 54.33 -18.04 C46.73 -19, 37.05 -19.54, 29.53 -18.26 C22.01 -16.98, 14.22 -13.39, 9.21 -10.35 C4.21 -7.32, 1.21 -1.71, -0.52 -0.05 M-1.71 1.57 C-1.31 3.4, 1.06 6.83, 1.45 10.7 C1.84 14.58, -1.08 21.26, 0.65 24.81 C2.39 28.36, 6.78 29.77, 11.86 31.98 C16.94 34.19, 23.74 37.3, 31.12 38.06 C38.5 38.83, 48.48 37.65, 56.14 36.55 C63.8 35.46, 71.91 33.67, 77.06 31.5 C82.22 29.32, 84.91 27.05, 87.07 23.52 C89.23 19.98, 89.99 14.69, 90.01 10.29 C90.04 5.88, 89.68 0.67, 87.22 -2.92 C84.77 -6.51, 80.46 -8.65, 75.28 -11.25 C70.1 -13.84, 63.74 -17.74, 56.13 -18.5 C48.52 -19.26, 37.61 -17.18, 29.61 -15.79 C21.62 -14.4, 13.16 -12.72, 8.15 -10.19 C3.14 -7.67, 1.01 -2.44, -0.46 -0.63" stroke="#000000" stroke-width="1" fill="none"></path></g></g><mask></mask><g stroke-linecap="round" transform="translate(573.948815399744 49.06483537834589) rotate(0 36.04265134523814 13.784016803419672)"><path d="M48.45 1.07 C55.69 2.07, 64.35 5.06, 68.25 7.44 C72.15 9.82, 73.42 12.66, 71.84 15.35 C70.26 18.04, 64.97 21.43, 58.77 23.56 C52.58 25.69, 42.31 27.93, 34.65 28.12 C26.99 28.31, 18.64 26.75, 12.81 24.72 C6.98 22.68, 1.12 18.87, -0.33 15.91 C-1.78 12.95, 0.18 9.51, 4.11 6.95 C8.05 4.4, 15.16 1.35, 23.29 0.59 C31.41 -0.16, 47.14 1.87, 52.87 2.42 C58.6 2.98, 57.9 4, 57.66 3.93 M30.58 1.53 C38.22 1.03, 50.63 2.07, 57.16 3.23 C63.69 4.38, 67.9 5.87, 69.74 8.46 C71.59 11.06, 71.33 15.79, 68.23 18.81 C65.13 21.84, 57.82 25.3, 51.14 26.62 C44.46 27.95, 35.3 27.57, 28.15 26.74 C21 25.91, 12.74 23.88, 8.24 21.66 C3.73 19.43, 0.71 16.5, 1.11 13.4 C1.5 10.3, 5.62 5.05, 10.59 3.06 C15.56 1.08, 27.38 2.14, 30.92 1.47 C34.46 0.8, 31.4 -1.17, 31.83 -0.98" stroke="none" stroke-width="0" fill="#ffff"></path><path d="M47.98 1.62 C54.93 2.36, 62.22 4.28, 66.21 6.65 C70.21 9.02, 73.07 12.98, 71.97 15.85 C70.87 18.72, 65.39 22.05, 59.63 23.87 C53.88 25.7, 45.16 26.7, 37.44 26.82 C29.73 26.94, 19.52 26.35, 13.35 24.58 C7.18 22.8, 1.95 18.99, 0.42 16.17 C-1.11 13.35, 0.54 10.2, 4.17 7.65 C7.79 5.1, 14.69 2.11, 22.16 0.89 C29.64 -0.32, 44.35 0.18, 49 0.37 C53.64 0.56, 50.28 1.73, 50.02 2.04 M19.51 1.37 C25.72 -0.07, 35.54 0.59, 43 1.4 C50.46 2.22, 59.25 3.96, 64.27 6.28 C69.28 8.61, 73.31 12.5, 73.1 15.36 C72.89 18.21, 68.57 21.59, 63.01 23.42 C57.44 25.25, 47.4 25.81, 39.69 26.35 C31.98 26.89, 22.91 28.2, 16.74 26.65 C10.57 25.11, 5.04 20.22, 2.66 17.07 C0.28 13.92, -0.13 10.38, 2.47 7.74 C5.08 5.1, 15.32 2.27, 18.31 1.24 C21.3 0.2, 19.64 1.16, 20.4 1.53" stroke="#000000" stroke-width="1" fill="none"></path></g><g stroke-linecap="round"><g transform="translate(566.5405114037139 96.30208093034494) rotate(0 43.71151974865029 18.074022525394646)" fill-rule="evenodd"><path d="M0 0 C0 0, 0 0, 0 0 M0 0 C0 0, 0 0, 0 0 M0.1 5.48 C1.5 4.86, 2.65 3.46, 3.18 1.82 M0.46 5.76 C0.92 4.8, 1.58 4.08, 3.47 1.82 M1.63 10.9 C1.25 9.34, 2.91 8.49, 6.44 4.7 M0.32 10.99 C3.1 8.09, 5.94 5.71, 7.2 4.12 M1.84 15.77 C2.71 15.26, 6.03 9.78, 11.43 7.46 M1.8 16.3 C3.58 15.33, 4.98 12.08, 10.06 5.76 M0.86 21.14 C7.75 16.33, 9.55 11.69, 15.61 9.14 M1.42 22.64 C5.02 18.62, 7.86 15.49, 13.86 7.59 M5.36 27.18 C8.29 21.79, 10.25 15.83, 18.17 8.07 M3.13 25.23 C8.53 21.17, 13.63 14.77, 19.27 10.2 M7.75 28.1 C11.07 24.26, 16.01 16.52, 21.73 11.99 M6 27.91 C9.27 25.08, 12.35 20.61, 23.19 10.03 M12.26 31.83 C14.5 26.33, 17.18 22.64, 26.42 10.52 M10.88 30.12 C16.97 22.61, 22.06 16.42, 26.93 11.67 M15.74 33.8 C16.48 27.46, 21.47 23.2, 33.59 10.03 M14.45 32.05 C21.12 24.6, 27.69 16.19, 33.36 11.94 M20.04 34.21 C23.23 27.06, 29.5 20.99, 38.3 11.03 M19.04 33.6 C21.7 27.93, 27.75 22.99, 38.62 10.8 M23.05 33.43 C30.19 26.26, 38.87 18.62, 42.98 12.58 M23.16 35.32 C27.03 30.31, 31.76 24.01, 43.31 11.29 M26.33 37.59 C32.58 29.97, 36.45 24.42, 47.23 12.64 M26.56 35.55 C35.28 27.11, 41.03 18.22, 47.66 13.45 M30.97 37.77 C39.09 26.38, 47.26 16.13, 54.03 11.21 M31.46 35.18 C39.67 27.18, 46.19 19.35, 53.22 11.01 M36.5 36.3 C47.3 27.75, 53.19 17.03, 59.67 11.71 M37 35.53 C45.38 26.46, 52.94 18.93, 58.23 12.39 M41.98 35.95 C51.05 29.26, 55.3 22.66, 65.29 10.08 M41.68 37.07 C47.87 30.71, 53.57 24, 64.55 11.28 M47.72 36.26 C53.52 29.67, 61.35 20.41, 72.64 9.93 M46.58 37.35 C53.1 30.2, 61.33 21.1, 70.92 9.42 M52.94 37.4 C60.73 28.55, 66.14 21.35, 75.12 8.9 M52.4 38.4 C58.85 29.85, 65.9 21.71, 77.41 10.49 M56.22 38.64 C66.06 31.16, 70.66 20.87, 87.42 2.5 M57.39 36.75 C68.34 24.19, 80.95 11.64, 88.46 1.51 M62.48 36.61 C68.54 27.75, 77.61 21.1, 87.63 8.18 M63.76 37.29 C72.03 27.01, 78.22 18.7, 88.5 8.5 M68.05 34.49 C74.98 29.68, 84.84 20.48, 86.2 14.88 M68.19 35.99 C75.77 29, 82.32 22.06, 88.29 13.53 M77.61 34.26 C81.07 28.43, 82.46 24.74, 87.1 21.44 M78.07 32.22 C80.53 29.53, 84.44 24.96, 87.46 20.93" stroke="#000000" stroke-width="0.5" fill="none"></path><path d="M-0.95 0.78 C-0.82 2.75, 0.1 7.16, 0.62 11.17 C1.14 15.17, 0.32 21.37, 2.18 24.8 C4.04 28.23, 6.88 29.87, 11.78 31.72 C16.69 33.57, 23.9 35.28, 31.62 35.9 C39.34 36.53, 50.74 36.17, 58.13 35.47 C65.51 34.76, 71.45 33.3, 75.93 31.69 C80.4 30.07, 83.16 28.84, 84.96 25.76 C86.76 22.68, 86.46 17.2, 86.71 13.18 C86.97 9.17, 87.07 3.41, 86.5 1.66 C85.94 -0.09, 85.45 1.82, 83.33 2.68 C81.2 3.53, 78.23 5.35, 73.76 6.79 C69.3 8.23, 63.45 10.62, 56.51 11.3 C49.57 11.99, 39.59 11.62, 32.14 10.9 C24.69 10.17, 17.04 8.78, 11.84 6.94 C6.63 5.09, 2.89 1.14, 0.9 -0.17 M0.75 0.14 C0.77 2.38, -0.27 8.89, -0.11 12.71 C0.05 16.52, -0.25 19.67, 1.71 23.03 C3.67 26.39, 6.89 30.64, 11.66 32.85 C16.43 35.07, 22.38 36.06, 30.33 36.3 C38.28 36.54, 51.61 34.73, 59.37 34.27 C67.13 33.81, 72.81 35.01, 76.88 33.53 C80.95 32.06, 81.85 28.48, 83.79 25.43 C85.73 22.38, 87.96 19.23, 88.52 15.24 C89.07 11.25, 88.02 3.43, 87.13 1.5 C86.24 -0.44, 85.69 2.88, 83.2 3.63 C80.71 4.38, 76.68 4.8, 72.21 6 C67.74 7.2, 63.22 10.05, 56.38 10.83 C49.54 11.61, 38.63 11.45, 31.16 10.68 C23.7 9.9, 16.98 7.8, 11.57 6.18 C6.17 4.57, 0.91 2.14, -1.25 0.99" stroke="#000000" stroke-width="1" fill="none"></path></g></g><mask></mask><g stroke-linecap="round"><g transform="translate(566.5817129653213 126.39287880073138) rotate(0 44.02031311578662 17.30663939222926)" fill-rule="evenodd"><path d="M0 0 C0 0, 0 0, 0 0 M0 0 C0 0, 0 0, 0 0 M0.23 5.74 C2.02 4.46, 3.05 2.36, 3.62 1.42 M0.52 5.44 C1.02 4.63, 1.76 3.89, 3.63 1.69 M0.4 10.32 C2.97 7.65, 6.24 4.77, 8.31 4.57 M0.5 11.13 C2.88 8.78, 5.76 5.72, 7.73 3.63 M-0.06 15.91 C6.16 12.51, 7.08 9.66, 12.2 4.3 M0.51 17.51 C5.75 12.39, 8.54 7.62, 10.38 6.1 M0.15 24.22 C4.69 16.77, 9.41 14.71, 14.95 7.04 M1.65 23.11 C5.27 18.13, 9.79 12.64, 13.4 8.15 M5.82 25.44 C10.19 17.44, 13.99 13.57, 17.1 9.88 M3.88 24.94 C8.28 21.96, 10.32 19.26, 19.22 9.69 M6.48 27.29 C12.22 22.83, 14.07 19.39, 24.24 8.5 M6.29 27.87 C13.17 20.95, 18.41 15.27, 22.27 9.88 M12.67 29.43 C16.82 22.22, 22.77 17.03, 27.39 11.9 M10.96 30.03 C15.67 22.97, 21.7 16.74, 28.54 9.88 M16.45 29.84 C19.04 25.67, 23.7 21.8, 32.18 11.69 M14.7 31.54 C19.02 26.71, 22.37 22.82, 34.1 9.86 M19.42 33.55 C25.02 26.53, 31.7 16.87, 37.81 9.14 M18.81 32.5 C25.12 26, 32.19 17.65, 37.58 11.61 M21.1 34.69 C29.47 27.95, 37.36 19.66, 43.98 9.77 M22.99 34.58 C29.66 27.19, 35.07 20.55, 42.7 10.53 M29.23 36.48 C34.84 26.75, 42.51 17.97, 46.61 14.28 M27.19 36.38 C31.92 29.44, 36.2 25.09, 47.42 13.98 M34.04 34.48 C38.31 27.47, 43.72 22.9, 52.63 12.6 M31.45 36.16 C36.42 30.25, 41.54 25.03, 52.43 12.82 M37.2 38.08 C46.93 25.78, 54.5 17.75, 59.17 12.61 M36.43 36.75 C42.65 29.27, 50.4 21.02, 59.84 11.52 M41.48 38.55 C50.02 27.59, 58.64 20.35, 64.98 8.96 M42.6 37 C49.16 29.72, 55.35 20.6, 66.18 10.44 M45.65 36.19 C52.59 30.77, 56.86 27.64, 70.87 9.7 M46.74 36.47 C53.57 30.86, 58.47 23.48, 70.36 9.89 M52.84 37.94 C58.73 28.6, 66.31 20.27, 75.88 9.38 M53.84 36.35 C61.63 26.86, 69.83 18.77, 77.47 8.69 M60.11 38.03 C69.29 25.84, 75.63 14.84, 88.21 3.71 M58.22 35.66 C67.28 27.17, 76.32 16.58, 87.22 2.19 M64.12 34.09 C72.81 25.36, 83.74 13.55, 88.65 8.28 M64.8 36.73 C72.04 25.23, 81.25 16.35, 88.96 8.58 M68.04 34.29 C74.79 33.15, 77.16 25.09, 88.68 14.95 M69.53 35.76 C74.22 31.11, 78.92 25.51, 87.33 14.53 M78.83 33.3 C80.78 26.81, 84.85 22.87, 88.59 21.06 M76.79 32.51 C80.07 30.55, 81.47 27.37, 88.07 20.19" stroke="#000000" stroke-width="0.5" fill="none"></path><path d="M0.78 0.43 C0.93 2.48, -0.13 7.75, 0.2 11.4 C0.52 15.06, 0.65 19.07, 2.71 22.35 C4.77 25.63, 7.78 29.07, 12.54 31.11 C17.31 33.14, 23.69 33.86, 31.29 34.57 C38.89 35.27, 50.96 35.88, 58.15 35.35 C65.34 34.82, 69.92 33.18, 74.44 31.39 C78.95 29.61, 83.21 27.74, 85.25 24.66 C87.28 21.59, 86.31 17.02, 86.66 12.95 C87 8.88, 87.74 1.99, 87.32 0.23 C86.89 -1.53, 86.44 1.34, 84.11 2.4 C81.78 3.46, 77.71 5.35, 73.34 6.59 C68.97 7.83, 64.66 9.33, 57.87 9.81 C51.08 10.3, 40.16 9.81, 32.61 9.51 C25.06 9.21, 18.05 9.61, 12.59 8.01 C7.12 6.41, 2.09 1.1, -0.17 -0.1 M-0.27 -0.4 C-0.22 1.39, -1.21 5.62, -0.75 9.57 C-0.28 13.52, 0.25 19.5, 2.52 23.3 C4.78 27.1, 8.27 30.48, 12.82 32.39 C17.38 34.31, 22.06 34.42, 29.82 34.79 C37.59 35.16, 51.94 35.44, 59.41 34.62 C66.87 33.81, 70.47 31.65, 74.61 29.91 C78.75 28.16, 81.93 27.21, 84.23 24.13 C86.54 21.05, 87.74 15.56, 88.43 11.42 C89.12 7.29, 89.05 0.7, 88.37 -0.67 C87.7 -2.03, 86.58 2.16, 84.39 3.24 C82.2 4.32, 79.54 4.89, 75.22 5.81 C70.9 6.72, 65.68 7.62, 58.46 8.72 C51.23 9.81, 39.5 12.52, 31.88 12.39 C24.26 12.25, 17.9 9.81, 12.72 7.93 C7.53 6.05, 2.73 2.7, 0.77 1.11" stroke="#000000" stroke-width="1" fill="none"></path></g></g><mask></mask><g stroke-linecap="round" transform="translate(41.79645379755635 98.91969692521383) rotate(0 13.658505465615676 12.571350334444844)"><path d="M7.29 1.44 C9.56 0.45, 13.95 0.45, 16.75 1.06 C19.55 1.68, 22.45 3.25, 24.11 5.16 C25.78 7.06, 26.79 9.97, 26.72 12.51 C26.65 15.06, 25.64 18.36, 23.69 20.43 C21.75 22.5, 18.09 24.51, 15.04 24.93 C12 25.35, 7.79 24.51, 5.43 22.95 C3.07 21.39, 1.56 18.05, 0.87 15.56 C0.19 13.07, 0.04 10.54, 1.33 8.01 C2.61 5.47, 7.45 1.36, 8.59 0.34 C9.73 -0.68, 8.07 1.69, 8.19 1.87 M10.5 1.81 C13.26 1.16, 18.3 1.35, 20.84 2.19 C23.37 3.02, 24.86 4.75, 25.71 6.81 C26.57 8.88, 26.62 12.04, 25.99 14.58 C25.35 17.12, 24.41 20.11, 21.92 22.05 C19.42 23.99, 14.25 26.42, 11.01 26.23 C7.77 26.05, 4.17 23.12, 2.49 20.92 C0.82 18.72, 1.01 15.75, 0.98 13.03 C0.94 10.32, 0.57 6.63, 2.27 4.64 C3.97 2.66, 9.98 1.79, 11.18 1.12 C12.39 0.44, 9.71 0.32, 9.49 0.61" stroke="#000000" stroke-width="2" fill="none"></path></g><g stroke-linecap="round"><g transform="translate(53.9008872123793 123.92304758002791) rotate(0 -0.17639426100872413 14.54968324663227)"><path d="M-1 -1.09 C-1.2 3.97, -0.32 23.99, -0.45 29.28 M0.68 0.95 C0.32 6.21, -0.36 25, -0.93 30.19" stroke="#000000" stroke-width="2" fill="none"></path></g></g><mask></mask><g stroke-linecap="round"><g transform="translate(52.68004590512024 155.18497227768455) rotate(0 5.929383431209402 9.889629454258959)"><path d="M-1.09 0.89 C0.9 4.08, 8.64 15.25, 10.87 18.16 M0.53 0.31 C2.97 3.76, 11.11 16.26, 12.95 19.47" stroke="#000000" stroke-width="2" fill="none"></path></g></g><mask></mask><g stroke-linecap="round"><g transform="translate(52.06357005055736 154.54930230216831) rotate(0 -6.070547119637766 8.664914928076044)"><path d="M0.89 -1.2 C-0.92 1.8, -9.77 13.77, -11.86 16.89 M-0.1 0.79 C-2.02 4.1, -10.96 16.05, -13.03 18.53" stroke="#000000" stroke-width="2" fill="none"></path></g></g><mask></mask><g stroke-linecap="round"><g transform="translate(37.23732212182989 141.24379038262393) rotate(0 7.4722724232035205 -5.44011517160779)"><path d="M-1.2 -0.43 C1.67 -2.32, 13.14 -8.7, 16.14 -10.45 M0.37 -1.7 C3.2 -3.49, 12.61 -7.66, 15.29 -9.03" stroke="#000000" stroke-width="2" fill="none"></path></g></g><mask></mask><g stroke-linecap="round"><g transform="translate(54.09038784938036 131.32260378237592) rotate(0 4.735493852251778 6.396896706119303)"><path d="M-0.43 0.19 C1.07 2.65, 8.26 11.47, 9.9 13.55 M1.54 -0.76 C2.79 1.47, 7.1 9.4, 8.83 11.87" stroke="#000000" stroke-width="2" fill="none"></path></g></g><mask></mask><g transform="translate(556.4865472211359 413.0188476341643) rotate(0 66.7041015625 12)"><text x="0" y="0" font-family="Helvetica, Segoe UI Emoji" font-size="20px" fill="#000000" text-anchor="start" style="white-space: pre;" direction="ltr" dominant-baseline="text-before-edge">user_id / 4 % 2</text></g><g mask="url(#mask-jOKlhBU2pUqC_PWv43OKh)" stroke-linecap="round"><g transform="translate(533.674823585251 428.2414506790802) rotate(0 -84.8192126488471 32.40167884486192)"><path d="M-0.89 -0.12 C-26.06 0.39, -123.57 -9.21, -151.74 2.46 C-179.92 14.12, -167.15 58.68, -169.94 69.85 M0.84 -1.23 C-24.35 -1.04, -124.14 -11, -152.21 0.51 C-180.28 12.02, -164.94 56.12, -167.58 67.82" stroke="#000000" stroke-width="1" fill="none"></path></g><g transform="translate(533.674823585251 428.2414506790802) rotate(0 -84.8192126488471 32.40167884486192)"><path d="M-179.36 41.66 C-175.96 45.17, -172.77 54.2, -167.21 66.78 M-179.46 39.2 C-176.39 47.07, -173.08 53.12, -168.12 67.79" stroke="#000000" stroke-width="1" fill="none"></path></g><g transform="translate(533.674823585251 428.2414506790802) rotate(0 -84.8192126488471 32.40167884486192)"><path d="M-158.86 40.69 C-160.39 44.29, -162.12 53.55, -167.21 66.78 M-158.96 38.24 C-160.55 46.4, -161.91 52.66, -168.12 67.79" stroke="#000000" stroke-width="1" fill="none"></path></g></g><mask id="mask-jOKlhBU2pUqC_PWv43OKh"><rect x="0" y="0" fill="#fff" width="802.597306698986" height="597.5080224029155"></rect><rect x="374.1408517255304" y="418.35957639392984" fill="#000" width="13.759994506835938" height="24" opacity="1"></rect></mask><g transform="translate(374.1408517255304 418.35957639392996) rotate(0 74.71475921087352 42.283553130012194)"><text x="6.879997253417969" y="0" font-family="Virgil, Segoe UI Emoji" font-size="20px" fill="#000000" text-anchor="middle" style="white-space: pre;" direction="ltr" dominant-baseline="text-before-edge">0</text></g><g mask="url(#mask-WPw7Npdt-O20lo3UjQkPS)" stroke-linecap="round"><g transform="translate(711.4156243797456 425.65265791710203) rotate(0 86.68767641470703 32.740360580648854)"><path d="M-0.2 -0.93 C26.22 0.01, 129.34 -5.8, 158.1 5.53 C186.86 16.87, 169.97 57.06, 172.35 67.08 M-1.76 1.2 C24.56 2.34, 128.27 -3.67, 157.24 6.98 C186.22 17.63, 169.42 55.21, 172.07 65.1" stroke="#000000" stroke-width="1" fill="none"></path></g><g transform="translate(711.4156243797456 425.65265791710203) rotate(0 86.68767641470703 32.740360580648854)"><path d="M162.38 36.52 C165.75 45.39, 169.35 53.04, 170.81 66.28 M163.99 35.3 C167.3 45.43, 169.53 52.65, 171.12 65.36" stroke="#000000" stroke-width="1" fill="none"></path></g><g transform="translate(711.4156243797456 425.65265791710203) rotate(0 86.68767641470703 32.740360580648854)"><path d="M182.84 38.04 C180.83 46.48, 179.04 53.72, 170.81 66.28 M184.45 36.82 C181.79 46.54, 178.04 53.33, 171.12 65.36" stroke="#000000" stroke-width="1" fill="none"></path></g></g><mask id="mask-WPw7Npdt-O20lo3UjQkPS"><rect x="0" y="0" fill="#fff" width="982.83146874933" height="592.0368417617397"></rect><rect x="866.6333596601007" y="419.3657714622893" fill="#000" width="5.4199981689453125" height="24" opacity="1"></rect></mask><g transform="translate(866.6333596601007 419.36577146228933) rotate(0 -68.53005886564807 39.02724703546161)"><text x="2.7099990844726562" y="0" font-family="Virgil, Segoe UI Emoji" font-size="20px" fill="#000000" text-anchor="middle" style="white-space: pre;" direction="ltr" dominant-baseline="text-before-edge">1</text></g><g stroke-linecap="round" transform="translate(536.4021966351984 402.1997558372893) rotate(0 86.44793701171875 23.606857299804688)"><path d="M11.8 0 M11.8 0 C47.62 1.45, 87.63 2.6, 161.09 0 M11.8 0 C64.91 1.12, 116.51 0.92, 161.09 0 M161.09 0 C167.98 0.64, 172.5 5.79, 172.9 11.8 M161.09 0 C169.26 -1.21, 173.83 1.8, 172.9 11.8 M172.9 11.8 C174.81 18.03, 172.22 26.26, 172.9 35.41 M172.9 11.8 C172.53 17.09, 172.7 22.87, 172.9 35.41 M172.9 35.41 C171.39 42.65, 169.82 46.05, 161.09 47.21 M172.9 35.41 C173.11 42.38, 169 48.72, 161.09 47.21 M161.09 47.21 C123.37 46.57, 84.57 46.68, 11.8 47.21 M161.09 47.21 C103.51 47.54, 46.04 46.42, 11.8 47.21 M11.8 47.21 C3.03 48.11, 0.51 43, 0 35.41 M11.8 47.21 C5.7 45.14, 1.82 45.07, 0 35.41 M0 35.41 C-1.66 29.59, -1.08 23.51, 0 11.8 M0 35.41 C-0.62 28.44, 0.18 19.73, 0 11.8 M0 11.8 C-0.44 3.78, 3.34 0.88, 11.8 0 M0 11.8 C0.7 2.33, 2.29 0.67, 11.8 0" stroke="#000000" stroke-width="1" fill="none"></path></g><g stroke-linecap="round" transform="translate(509.3121702663492 215.6044603878787) rotate(0 98.85464167263387 23.322507301348594)"><path d="M0.84 -1.79 L199.02 0.56 L199.13 45.25 L-1.44 47.98" stroke="none" stroke-width="0" fill="#eeeeee"></path><path d="M1.4 -0.16 C73.31 -1.31, 145.41 -3.15, 197.69 1.09 M-0.54 -0.7 C56.57 1.03, 112.56 -0.07, 197.93 -0.94 M198.18 0.03 C197.85 16.7, 198.48 34.19, 195.97 45.88 M198.42 0.26 C198.31 13.15, 197.13 25.22, 197.49 46.34 M197.84 45.86 C154.53 46.84, 110.78 44.29, 1.02 48.56 M198.33 47.1 C123.4 45.75, 47.18 45, -0.34 47.56 M1.08 46.63 C1.95 29.97, -0.83 9.14, 0.16 0.05 M-0.46 46.9 C-0.41 35.63, -0.82 22.3, 0.72 0.31" stroke="#000000" stroke-width="1" fill="none"></path></g><g transform="translate(567.2331724265372 225.23764558381444) rotate(0 39.77829301764598 11.777450523499184)"><text x="0" y="0" font-family="Virgil, Segoe UI Emoji" font-size="19.62908420583197px" fill="#000000" text-anchor="start" style="white-space: pre;" direction="ltr" dominant-baseline="text-before-edge">employee</text></g><g mask="url(#mask-MsgdW_NQmpTKwWMxNkvLF)" stroke-linecap="round"><g transform="translate(92.96932900938432 137.4823231515729) rotate(0 182.74786260622483 2.060126143160403)"><path d="M0.3 1.2 C61.19 1.66, 303.53 2.98, 364.17 3.34 M-1 0.78 C60.38 0.83, 305.22 1.39, 366.49 1.48" stroke="#000000" stroke-width="1" fill="none"></path></g><g transform="translate(92.96932900938432 137.4823231515729) rotate(0 182.74786260622483 2.060126143160403)"><path d="M340.28 10.44 C344.77 8.24, 350.51 5.91, 366.71 2.86 M338.41 10.96 C347.46 8.98, 357.05 5.71, 366.95 1.47" stroke="#000000" stroke-width="1" fill="none"></path></g><g transform="translate(92.96932900938432 137.4823231515729) rotate(0 182.74786260622483 2.060126143160403)"><path d="M340.32 -10.08 C344.9 -8.13, 350.63 -6.32, 366.71 2.86 M338.45 -9.56 C347.64 -4.76, 357.22 -1.25, 366.95 1.47" stroke="#000000" stroke-width="1" fill="none"></path></g></g><mask id="mask-MsgdW_NQmpTKwWMxNkvLF"><rect x="0" y="0" fill="#fff" width="557.8878339927187" height="240.32352154207564"></rect><rect x="247.37405421833668" y="128.70292234682427" fill="#000" width="56.10905456542969" height="20.4" opacity="1"></rect></mask><g transform="translate(247.3740542183367 128.70292234682427) rotate(0 28.3431373972725 10.839526947909036)"><text x="28.054527282714844" y="0" font-family="Virgil, Segoe UI Emoji" font-size="17.078987412146564px" fill="#000000" text-anchor="middle" style="white-space: pre;" direction="ltr" dominant-baseline="text-before-edge">QUERY</text></g><g transform="translate(563.9554192914484 462.5227844017424) rotate(0 54.27996826171875 12)"><text x="0" y="0" font-family="Virgil, Segoe UI Emoji" font-size="20px" fill="#5f3dc4" text-anchor="start" style="white-space: pre;" direction="ltr" dominant-baseline="text-before-edge">Which DB ?</text></g><g stroke-linecap="round" transform="translate(532.8336056711908 695.7671627796499) rotate(0 86.95242309570312 21.688720703125)"><path d="M10.84 0 M10.84 0 C70.37 -0.05, 130.24 2.59, 163.06 0 M10.84 0 C71.24 -2.3, 131.9 -0.62, 163.06 0 M163.06 0 C171.24 -1.95, 174.8 2.27, 173.9 10.84 M163.06 0 C172.09 -0.5, 173.75 2.93, 173.9 10.84 M173.9 10.84 C173.28 17.97, 174.27 26.05, 173.9 32.53 M173.9 10.84 C174.12 16.77, 174.6 22.43, 173.9 32.53 M173.9 32.53 C173.66 38.24, 172.11 42.72, 163.06 43.38 M173.9 32.53 C174.51 38.65, 169.76 43.06, 163.06 43.38 M163.06 43.38 C126.26 41.21, 93.19 40.54, 10.84 43.38 M163.06 43.38 C112.93 43.84, 62.51 43.25, 10.84 43.38 M10.84 43.38 C4.78 45.04, 0.97 38.83, 0 32.53 M10.84 43.38 C3.73 41.64, 1.21 39.26, 0 32.53 M0 32.53 C-1.53 29.01, -0.49 23.33, 0 10.84 M0 32.53 C0.93 27.32, -0.67 23.03, 0 10.84 M0 10.84 C0.71 5.57, 2.59 -1.1, 10.84 0 M0 10.84 C-0.76 1.73, 2.82 -0.78, 10.84 0" stroke="#000000" stroke-width="1" fill="none"></path></g><g transform="translate(567.5552243235345 704.4481320179311) rotate(0 52.8076171875 12)"><text x="0" y="0" font-family="Helvetica, Segoe UI Emoji" font-size="20px" fill="#000000" text-anchor="start" style="white-space: pre;" direction="ltr" dominant-baseline="text-before-edge">user_id % 8</text></g><g transform="translate(548.4448117258783 756.376080015978) rotate(0 73.8099594116211 12)"><text x="0" y="0" font-family="Virgil, Segoe UI Emoji" font-size="20px" fill="#5f3dc4" text-anchor="start" style="white-space: pre;" direction="ltr" dominant-baseline="text-before-edge">Which TABLE ?</text></g><g stroke-linecap="round"><g transform="translate(341.49443074318924 534.2930217121504) rotate(0 24.83938499442644 5.111773662796082)" fill-rule="evenodd"><path d="M0 0 C0 0, 0 0, 0 0 M0 0 C0 0, 0 0, 0 0 M0.35 6.24 C2.54 3.31, 3.59 0.98, 7.91 -4.58 M0.91 6.2 C2.72 2.61, 6.18 -0.1, 8.03 -3.41 M0.68 13.35 C8.44 6.61, 14.78 -1.64, 17.06 -10.65 M0.19 12.85 C5.59 5.08, 11.12 -1.21, 18.49 -9.88 M1.38 17.39 C10.63 8.13, 17.43 -2.33, 21.75 -9.09 M2.31 16.21 C8.69 7.96, 14.34 0.26, 23.96 -8.64 M4.89 18.73 C14.89 6.68, 24.71 -1.74, 28.03 -10.13 M4.98 17.91 C10.59 12.27, 15.19 5.17, 29.61 -9.9 M10.31 21.61 C19.55 9.36, 26.61 -0.75, 34.22 -7.06 M9.53 19.93 C17.02 12.91, 23.84 4.18, 34.28 -8.23 M13.58 20.13 C16.71 17.31, 24.27 10.02, 37.49 -7.37 M13.17 22.11 C20.3 13.9, 25.61 7.15, 38.67 -7.62 M19.24 21.22 C29.75 9.68, 36.27 0.1, 42.13 -6.67 M18.22 22.41 C28.06 10.59, 37.41 0.05, 43.27 -7.8 M22.61 19.94 C31.15 10.5, 40.96 2.91, 45.35 -3.5 M23.92 21.75 C30.63 13.41, 37.46 4.62, 45.58 -3.73 M27.52 20.12 C37.43 15.01, 43.74 3, 47.26 -1.55 M27.64 22.1 C35.49 13.59, 41.58 5.64, 49.79 -0.34 M33.16 21.01 C38.08 14.9, 45.87 9.71, 53.43 -0.2 M33.36 22.46 C36.76 16.69, 41.52 13.54, 52.82 0.38 M41 20.39 C42.18 17.69, 44.45 13.86, 53.05 8.63 M40.22 21.39 C44.11 16.7, 45.89 13.79, 52.13 6.21" stroke="#000000" stroke-width="0.5" fill="none"></path><path d="M-0.01 -0.1 C-0.33 1.16, -0.65 4.65, -0.75 6.74 C-0.86 8.84, -1.74 10.46, -0.62 12.49 C0.5 14.51, 2.91 17.56, 5.97 18.91 C9.03 20.27, 13.35 20.27, 17.74 20.6 C22.13 20.93, 27.82 21.1, 32.29 20.89 C36.76 20.68, 41.56 20.4, 44.56 19.34 C47.56 18.29, 49.24 16.83, 50.3 14.54 C51.37 12.26, 51.23 8.33, 50.96 5.63 C50.7 2.93, 50.1 0.58, 48.74 -1.68 C47.38 -3.94, 45.75 -6.69, 42.8 -7.94 C39.85 -9.19, 35.49 -8.84, 31.05 -9.17 C26.62 -9.5, 20.58 -10.31, 16.18 -9.92 C11.79 -9.53, 7.4 -8.47, 4.71 -6.84 C2.01 -5.2, 0.94 -1.34, 0 -0.12 M-1.47 -1.19 C-1.53 0.35, 0.97 5.92, 1.5 8.35 C2.04 10.77, 0.95 11.39, 1.72 13.35 C2.49 15.32, 3.65 18.93, 6.13 20.14 C8.62 21.35, 12.09 20.69, 16.63 20.6 C21.18 20.51, 29.17 20, 33.4 19.6 C37.62 19.2, 39.28 19.1, 42 18.22 C44.71 17.34, 48.4 16.11, 49.68 14.31 C50.96 12.5, 49.76 10.18, 49.67 7.39 C49.58 4.59, 50.23 -0.03, 49.14 -2.47 C48.04 -4.9, 45.77 -6.13, 43.11 -7.22 C40.44 -8.32, 37.66 -8.46, 33.14 -9.04 C28.63 -9.63, 20.35 -11, 16.02 -10.72 C11.69 -10.43, 9.8 -8.99, 7.18 -7.33 C4.56 -5.66, 1.59 -1.68, 0.32 -0.74" stroke="#000000" stroke-width="1" fill="none"></path></g></g><mask></mask><g stroke-linecap="round" transform="translate(345.925740050699 525.352452475642) rotate(0 20.480971204617447 7.832666041425938)"><path d="M20.75 -0.3 C24.74 -0.18, 29.45 1.07, 32.71 2.22 C35.98 3.38, 39.28 4.89, 40.34 6.63 C41.4 8.38, 41.31 11.26, 39.06 12.7 C36.81 14.14, 30.98 14.74, 26.83 15.27 C22.68 15.79, 18.25 16.42, 14.16 15.83 C10.08 15.24, 4.54 13.27, 2.32 11.74 C0.09 10.2, -0.08 8.23, 0.8 6.63 C1.68 5.02, 3.56 3.01, 7.6 2.09 C11.64 1.17, 21.48 1.19, 25.03 1.12 C28.59 1.05, 29 1.81, 28.92 1.66 M12.84 0.67 C16.82 -0.03, 23.95 -0.01, 27.91 0.56 C31.87 1.13, 34.69 2.73, 36.6 4.11 C38.52 5.49, 39.98 7.14, 39.39 8.86 C38.81 10.58, 36.12 13.33, 33.09 14.42 C30.06 15.52, 25.53 15.27, 21.2 15.45 C16.88 15.63, 10.5 16.35, 7.13 15.51 C3.76 14.67, 1.79 12.39, 1 10.42 C0.21 8.44, 0.66 5.35, 2.4 3.67 C4.13 1.98, 9.67 0.76, 11.39 0.32 C13.11 -0.11, 12.18 0.94, 12.73 1.05" stroke="none" stroke-width="0" fill="#ffff"></path><path d="M21.46 0.2 C25.88 0.2, 31.91 0.44, 35.05 1.49 C38.2 2.54, 39.77 4.67, 40.32 6.5 C40.87 8.33, 40.57 10.96, 38.36 12.46 C36.15 13.96, 31.29 15.21, 27.07 15.5 C22.85 15.79, 17.28 14.99, 13.04 14.22 C8.8 13.44, 3.72 12.28, 1.64 10.85 C-0.45 9.42, -0.54 7.03, 0.51 5.63 C1.56 4.23, 4.31 3.36, 7.93 2.44 C11.55 1.52, 19.68 0.54, 22.25 0.1 C24.81 -0.34, 23.24 -0.3, 23.31 -0.19 M11.25 1.64 C14.92 0.82, 22.02 -1.04, 26.62 -0.61 C31.22 -0.18, 36.66 2.62, 38.84 4.22 C41.02 5.82, 40.35 7.2, 39.71 9 C39.06 10.79, 37.98 13.85, 34.97 15.01 C31.97 16.17, 26.11 15.98, 21.7 15.95 C17.3 15.91, 11.9 15.76, 8.53 14.79 C5.16 13.81, 2.62 11.64, 1.49 10.1 C0.36 8.55, -0.26 7.1, 1.75 5.54 C3.77 3.98, 11.63 1.6, 13.61 0.73 C15.59 -0.13, 13.67 0.34, 13.63 0.36" stroke="#000000" stroke-width="1" fill="none"></path></g><g stroke-linecap="round"><g transform="translate(341.71602586057486 552.194669399946) rotate(0 24.718660859014165 9.825998907673466)" fill-rule="evenodd"><path d="M0 0 C0 0, 0 0, 0 0 M0 0 C0 0, 0 0, 0 0 M-0.06 5.75 C1.39 3.83, 2.88 2.84, 3.74 2.3 M0.58 5.8 C1.61 4.16, 3.12 2.72, 3.73 1.94 M1.74 11.82 C2.39 7.68, 5.42 5.83, 7.44 3.79 M0.94 10.82 C3.27 8.07, 6.05 5.55, 7.28 3.46 M2.54 14.99 C4.56 11.55, 8.65 8.41, 11.36 6.14 M2.27 14.9 C5.76 12.06, 9.04 8.68, 10.46 6.18 M6.49 18.48 C8.3 13.38, 10.86 11.53, 14.79 6.78 M5.75 16.77 C8.92 13.96, 11.47 11.68, 14.75 8.05 M9.15 19.49 C13.32 16.53, 16.36 10.05, 20.31 9.43 M9.24 20.58 C12.13 16.9, 13.32 14.8, 18.95 8.13 M13.47 22.33 C16.07 17.34, 18.47 14.03, 24.1 7.27 M12.82 21.52 C18.41 15.63, 22.65 12.18, 26.29 7.35 M16.76 22.85 C20.39 18.22, 26.4 13.91, 30.8 7.04 M19.21 20.91 C22.51 16.06, 27.8 12.55, 31.5 5.85 M24.69 21.87 C26.5 18.34, 30.24 15.94, 37.38 6.76 M23.66 20.67 C27.88 16.63, 32.75 11.2, 37.12 5.42 M29.15 19.56 C30.24 17.8, 35.24 13.73, 43.77 3.82 M28.53 20.58 C34.22 17.65, 37.4 11.06, 42.56 5.35 M35.18 21.72 C39.71 15.82, 40.45 12.6, 52.42 1.87 M33.95 22.33 C40.37 15.05, 43.69 10.83, 50.28 2.41 M40.19 19.11 C44.66 17.9, 46.2 12.39, 51.27 8.15 M40.49 20.02 C44.78 14.77, 49.2 10.45, 50.69 7.79" stroke="#000000" stroke-width="0.5" fill="none"></path><path d="M-0.86 0.13 C-1.02 1.06, -1.22 3.22, -0.95 5.48 C-0.68 7.74, -0.68 11.75, 0.77 13.71 C2.23 15.66, 5.05 16.2, 7.79 17.24 C10.52 18.27, 12.8 19.34, 17.18 19.93 C21.56 20.51, 29.67 20.95, 34.07 20.75 C38.47 20.55, 41.05 19.91, 43.57 18.72 C46.08 17.54, 48.27 15.58, 49.14 13.64 C50.01 11.7, 48.76 9.34, 48.78 7.09 C48.8 4.84, 49.49 0.87, 49.28 0.12 C49.07 -0.63, 48.86 1.91, 47.53 2.61 C46.21 3.3, 43.98 3.83, 41.32 4.31 C38.66 4.79, 35.38 5.17, 31.58 5.47 C27.79 5.77, 22.75 6.24, 18.55 6.1 C14.36 5.95, 9.54 5.78, 6.4 4.6 C3.26 3.42, 0.66 -0.22, -0.27 -0.96 M0.88 -0.85 C1.09 0.22, 1.37 3.9, 1.21 6.57 C1.05 9.23, -1.27 13.25, -0.07 15.14 C1.13 17.04, 5.21 17.12, 8.4 17.95 C11.59 18.77, 15.08 19.74, 19.06 20.07 C23.04 20.4, 28.02 20.36, 32.28 19.93 C36.53 19.5, 41.91 18.07, 44.61 17.49 C47.31 16.9, 47.52 17.85, 48.49 16.44 C49.45 15.03, 50.14 11.87, 50.4 9.03 C50.66 6.19, 50.49 0.82, 50.03 -0.6 C49.58 -2.03, 48.84 -0.27, 47.7 0.48 C46.55 1.23, 45.9 3.27, 43.18 3.92 C40.45 4.56, 35.55 4.03, 31.33 4.35 C27.11 4.67, 22.03 5.85, 17.85 5.84 C13.66 5.83, 9.09 5.29, 6.22 4.28 C3.35 3.27, 1.67 0.33, 0.63 -0.22" stroke="#000000" stroke-width="1" fill="none"></path></g></g><mask></mask><g stroke-linecap="round"><g transform="translate(341.7394383445452 569.2935436976263) rotate(0 24.632264718567342 10.208854404461562)" fill-rule="evenodd"><path d="M0 0 C0 0, 0 0, 0 0 M0 0 C0 0, 0 0, 0 0 M0.5 5.49 C0.89 4.73, 2.2 3.47, 4.11 2.34 M0.56 5.54 C1.18 4.84, 2.01 3.87, 3.74 2.03 M1.32 10.57 C2.54 8.13, 6.06 5.31, 7.4 4.55 M0.33 11.28 C2.51 9.17, 4.91 6.47, 7.07 4.23 M2.76 13.71 C5.32 11.8, 8.17 10.01, 10.17 7.24 M2.67 14.92 C5.47 12.64, 7.77 9.61, 10.2 6.55 M7.36 16.57 C8.12 13.29, 12.13 11.43, 14 7.3 M5.65 17.6 C8.2 14.81, 11.29 11.5, 15.28 7.78 M8.74 20.56 C14.49 14.81, 16.5 10.37, 22.03 5.83 M9.9 20.6 C13.03 14.56, 17.85 9.57, 20.65 6.38 M15.41 20 C16.09 16.86, 18.4 12.79, 26.54 7.28 M14.65 21.07 C17.9 16.29, 23.46 10.74, 26.61 6.27 M20.56 19.39 C24.73 16.38, 29.22 8.6, 32.34 6.8 M18.71 20.48 C23.52 15.92, 29.59 9.56, 31.21 5.43 M25.02 20.54 C28.15 17.5, 32.4 13.05, 38.13 5.91 M23.83 20.78 C28.24 17.26, 31.27 11.89, 36.79 4.91 M28 19.04 C34.16 15.81, 38.02 10.53, 41.23 5.49 M29.02 21.57 C34.9 16.05, 37.1 10.99, 42.76 4.78 M34.79 22.55 C37.32 14.77, 42.54 12.98, 50.96 2.07 M35.39 21.94 C37.54 16.12, 42.72 11.94, 51.5 1.99 M40.38 20.49 C45 16.31, 45.31 14.37, 50.58 9.87 M41.29 19.73 C44.05 16.26, 47.74 11.45, 50.22 8.56" stroke="#000000" stroke-width="0.5" fill="none"></path><path d="M0.13 -1.06 C0.02 0.09, -0.92 3.54, -0.75 6.01 C-0.58 8.49, -0.03 11.98, 1.15 13.79 C2.34 15.61, 3.65 15.74, 6.34 16.89 C9.03 18.04, 12.76 20.08, 17.31 20.68 C21.86 21.29, 29.35 20.84, 33.64 20.51 C37.92 20.18, 40.71 19.87, 43.01 18.7 C45.32 17.54, 46.47 15.39, 47.44 13.52 C48.42 11.65, 48.62 9.68, 48.84 7.48 C49.07 5.28, 48.79 1.43, 48.79 0.31 C48.8 -0.81, 49.99 0.28, 48.88 0.77 C47.77 1.25, 44.95 2.37, 42.13 3.22 C39.3 4.07, 35.88 5.56, 31.93 5.87 C27.99 6.18, 22.46 5.43, 18.44 5.08 C14.42 4.73, 11.04 4.48, 7.81 3.77 C4.58 3.06, 0.31 1.57, -0.96 0.81 M-1.26 1 C-0.99 2.41, 1.22 5.67, 1.51 7.47 C1.81 9.27, -0.27 10.11, 0.51 11.82 C1.29 13.52, 3.07 16.07, 6.19 17.69 C9.32 19.3, 15.01 21.16, 19.25 21.53 C23.49 21.89, 27.53 20.5, 31.61 19.87 C35.7 19.24, 40.78 18.91, 43.77 17.73 C46.76 16.55, 48.44 14.75, 49.56 12.81 C50.68 10.87, 50.54 8.27, 50.5 6.09 C50.45 3.9, 50.03 0.49, 49.29 -0.3 C48.56 -1.08, 47.51 0.93, 46.09 1.36 C44.66 1.79, 43.12 1.7, 40.75 2.31 C38.38 2.92, 35.71 4.69, 31.86 5.04 C28.02 5.38, 21.58 4.71, 17.67 4.38 C13.75 4.05, 11.39 4, 8.37 3.07 C5.36 2.15, 1.13 -0.59, -0.44 -1.17" stroke="#000000" stroke-width="1" fill="none"></path></g></g><mask></mask><g transform="translate(304.8823795594252 602.2343299894621) rotate(0 63.66996765136719 12)"><text x="0" y="0" font-family="Virgil, Segoe UI Emoji" font-size="20px" fill="#000000" text-anchor="start" style="white-space: pre;" direction="ltr" dominant-baseline="text-before-edge">MYDB_0000</text></g><g stroke-linecap="round" transform="translate(294.09208425455984 661.2814783389063) rotate(0 74.63325496191567 15.670383211273759)"><path d="M-0.03 -1.54 L150.61 -1.94 L147.35 32.02 L-1.04 32.76" stroke="none" stroke-width="0" fill="#eeeeee"></path><path d="M-1.39 -0.67 C47.39 -0.36, 96.6 -2.36, 149.97 -1.79 M-0.73 -0.45 C54.41 0.06, 107.87 0.65, 148.54 0.74 M148.54 1.82 C149.43 7.97, 150.41 16.17, 149.42 29.5 M149.1 -0.08 C149.97 10.29, 149.61 19.71, 148.65 30.41 M149.54 30.42 C107.03 29.26, 65.15 30.99, 1.93 30.83 M149.58 31.78 C110.38 31.74, 69.97 31.65, -0.94 31.19 M-0.8 31.84 C0.63 25.16, 0.56 17.32, 1.71 -0.93 M0.43 32.14 C-1.15 24.69, 0.79 16.09, 0.08 -0.6" stroke="#000000" stroke-width="1" fill="none"></path></g><g transform="translate(302.498939587181 663.0537874933764) rotate(0 66.22639962929463 10.200124501454354)"><text x="66.22639962929465" y="0" font-family="Virgil, Segoe UI Emoji" font-size="17.36235340308077px" fill="#000000" text-anchor="middle" style="white-space: pre;" direction="ltr" dominant-baseline="text-before-edge">employee_0000</text></g><g stroke-linecap="round" transform="translate(291.7170312728921 704.6169885928125) rotate(0 74.63325496191567 15.670383211273759)"><path d="M-1.58 0 L150.85 1.25 L147.85 31.37 L0.33 29.51" stroke="none" stroke-width="0" fill="#eeeeee"></path><path d="M0.45 -0.36 C49.55 -0.02, 98.49 -0.29, 148.23 -0.69 M0.71 -0.08 C50.1 0.74, 101.75 0.15, 148.71 -0.41 M147.89 -1.99 C150.91 7.97, 148.17 16.81, 148.38 31.63 M149.41 0.25 C148.85 10.17, 148.78 18.67, 149.68 31.72 M151.22 31.42 C108.89 30.77, 66.03 32.91, -0.48 30.19 M148.92 31.45 C117.66 30.87, 85.55 30.95, -0.37 30.63 M-0.3 32.28 C0.44 17.93, 0.96 9.11, 1.23 -0.16 M-0.31 32.09 C0.42 21.71, 0.63 10.67, 0.72 -0.92" stroke="#c92a2a" stroke-width="1" fill="none"></path></g><g transform="translate(303.73280118842104 706.3892977472829) rotate(0 62.61748504638672 10.199999999999989)"><text x="62.61748504638672" y="0" font-family="Virgil, Segoe UI Emoji" font-size="17.36235340308077px" fill="#c92a2a" text-anchor="middle" style="white-space: pre;" direction="ltr" dominant-baseline="text-before-edge">employee_0001</text></g><g stroke-linecap="round" transform="translate(292.41545656586084 748.9209436709375) rotate(0 74.63325496191567 15.670383211273759)"><path d="M-0.78 -0.96 L147.6 -1.52 L150.26 31.61 L-1.98 29.5" stroke="none" stroke-width="0" fill="#eeeeee"></path><path d="M-1.71 1.55 C43.22 -0.33, 86.85 -1.43, 150.57 0.06 M-0.12 0.55 C52.7 0.53, 106.74 1.28, 149.63 0.51 M148.89 1.73 C149.6 7.67, 149.66 16.75, 149.93 31.63 M148.39 -0.6 C149.26 7.44, 148.85 14.62, 149.34 31.86 M150.25 33.28 C95.16 31.87, 40.48 31.43, 0.79 30.57 M149.65 32.01 C119.95 30.13, 89.37 30.39, -0.77 31.68 M-1.42 33.15 C1.5 25.2, -0.81 19.12, -1.37 -0.79 M0.63 30.73 C0.32 21.99, -0.48 11.99, 0.8 -0.24" stroke="#000000" stroke-width="1" fill="none"></path></g><g transform="translate(300.6033532514093 750.6932528254079) rotate(0 66.44535827636719 10.199999999999989)"><text x="66.44535827636719" y="0" font-family="Virgil, Segoe UI Emoji" font-size="17.36235340308077px" fill="#000000" text-anchor="middle" style="white-space: pre;" direction="ltr" dominant-baseline="text-before-edge">employee_0002</text></g><g stroke-linecap="round" transform="translate(293.45720461273584 795.5857385928125) rotate(0 74.63325496191567 15.670383211273759)"><path d="M-0.43 -1.69 L147.47 0.39 L149.95 31.52 L-1.22 33.29" stroke="none" stroke-width="0" fill="#eeeeee"></path><path d="M1.86 1.26 C39.39 -0.57, 84.15 -0.62, 149.57 1.92 M0.21 0.37 C46.58 0.05, 91.89 0.58, 149.78 -0.59 M150.07 -0.94 C150.51 6.16, 148.59 14.65, 147.72 31.53 M148.86 0.49 C149.98 13.32, 148.73 24.56, 148.78 30.71 M149.14 29.38 C99.17 30.56, 48.82 30.36, 0.3 32.33 M148.89 30.76 C100.07 31.15, 51.26 30.11, -0.6 31.3 M0.34 29.56 C-0.31 25.11, 0.69 19.09, -1.13 0.04 M0.96 31.07 C0.85 24.35, -0.7 17.98, -0.64 -0.01" stroke="#000000" stroke-width="1" fill="none"></path></g><g transform="translate(301.91417478461244 797.3580477472829) rotate(0 66.17628479003906 10.199999999999989)"><text x="66.17628479003906" y="0" font-family="Virgil, Segoe UI Emoji" font-size="17.36235340308077px" fill="#000000" text-anchor="middle" style="white-space: pre;" direction="ltr" dominant-baseline="text-before-edge">employee_0003</text></g><g stroke-linecap="round" transform="translate(261.6363580121515 497.51137082752365) rotate(0 107.20890808105469 186.0316162109375)"><path d="M32 0 M32 0 C85.92 0.77, 143.87 -0.61, 182.42 0 M182.42 0 C205.14 0.43, 215.73 9.33, 214.42 32 M214.42 32 C215.78 120.47, 214.09 210.9, 214.42 340.06 M214.42 340.06 C215.6 359.77, 203.29 371.19, 182.42 372.06 M182.42 372.06 C150 371.61, 115.39 372.51, 32 372.06 M32 372.06 C9.32 370.38, -0.95 360.9, 0 340.06 M0 340.06 C-0.93 270.12, -0.46 198.19, 0 32 M0 32 C1.33 11.53, 11.79 -1.72, 32 0" stroke="#000000" stroke-width="1.5" fill="none" stroke-dasharray="8 9"></path></g><g stroke-linecap="round"><g transform="translate(855.7931215390877 531.891532454338) rotate(0 25.163729259337174 5.797585757591634)" fill-rule="evenodd"><path d="M0 0 C0 0, 0 0, 0 0 M0 0 C0 0, 0 0, 0 0 M0.85 5.01 C2.32 2.98, 5.97 -0.14, 9.14 -4.35 M-0.03 5.85 C2.3 3.26, 5.05 -0.12, 8.8 -3.83 M-0.99 10.96 C5.58 7.17, 12.02 -2.41, 17.48 -8.79 M0.38 11.7 C3.97 6.39, 8.5 1, 18.25 -9.46 M2.45 14.06 C7.87 7.26, 14.82 -1.67, 22.1 -8.54 M3.36 16.06 C10.13 5.55, 18.12 -3.57, 23.79 -8.12 M7.48 17.48 C11.08 11.43, 16.24 4.13, 30.64 -9.35 M6.38 18.32 C11.75 12.27, 15.55 5.97, 29.92 -8.67 M7.92 19.8 C13.8 13.4, 21 9.25, 35.43 -9.34 M8.61 21.13 C15.21 13.95, 21.52 5.98, 33.66 -7.44 M11.74 20.27 C18.76 14.59, 25.91 6.14, 36.88 -6.17 M12.43 21.53 C22.86 11.68, 31.63 0.49, 37.29 -7.51 M16.72 21.68 C26.07 10.92, 39.05 -2.02, 43.82 -6.82 M18.73 21.4 C23.86 15.49, 29.74 6.96, 44.21 -7.14 M24.71 21.68 C30.86 12.16, 40.86 3.31, 47.18 -2.47 M22.66 22.15 C29.52 15.29, 36.35 6.74, 46.24 -3.14 M27.29 21.51 C33.19 15.04, 36.6 12.4, 50.1 -2.67 M28.92 22.87 C37.48 11.95, 44.17 2.62, 49.25 -1.69 M32.64 20.51 C39.33 15.25, 47.65 10.07, 50.42 2.03 M34.17 22.33 C36.8 16.93, 42.32 13.06, 51.21 0.59 M40.56 19.43 C42.91 17.75, 45.89 15.55, 51.03 7.49 M39.66 21.45 C43.32 16.16, 46.71 13.35, 52.05 7.38" stroke="#000000" stroke-width="0.5" fill="none"></path><path d="M-1.1 0.75 C-1.13 1.71, -1.36 4.33, -0.93 6.61 C-0.5 8.89, 0.47 12.54, 1.46 14.46 C2.45 16.37, 2.27 16.9, 5 18.11 C7.72 19.32, 13.35 21.04, 17.81 21.71 C22.27 22.38, 27.24 22.74, 31.74 22.13 C36.24 21.51, 41.72 19.21, 44.82 18.01 C47.92 16.82, 49.26 17.05, 50.36 14.97 C51.45 12.88, 51.69 8.15, 51.4 5.51 C51.1 2.86, 49.88 1.26, 48.58 -0.93 C47.28 -3.11, 46.47 -6.07, 43.58 -7.61 C40.7 -9.14, 35.57 -9.81, 31.26 -10.12 C26.94 -10.43, 22.09 -10.3, 17.68 -9.47 C13.28 -8.63, 7.71 -6.8, 4.82 -5.13 C1.94 -3.47, 1.16 -0.52, 0.36 0.54 M0.52 0.1 C0.92 1.19, 1.12 6.05, 1.23 8.15 C1.35 10.25, 0.66 10.91, 1.23 12.7 C1.8 14.49, 2.07 17.31, 4.66 18.91 C7.24 20.51, 12.09 21.86, 16.74 22.29 C21.39 22.72, 28.28 21.9, 32.55 21.49 C36.83 21.09, 39.52 20.95, 42.39 19.86 C45.26 18.77, 48.44 17.07, 49.76 14.96 C51.08 12.85, 50.47 9.91, 50.33 7.2 C50.18 4.49, 49.9 1, 48.9 -1.32 C47.9 -3.63, 47.49 -5.18, 44.3 -6.71 C41.12 -8.25, 34.13 -9.95, 29.79 -10.5 C25.46 -11.05, 22.04 -10.98, 18.3 -10.02 C14.56 -9.06, 10.26 -6.44, 7.36 -4.73 C4.45 -3.02, 1.92 -0.43, 0.87 0.26" stroke="#000000" stroke-width="1" fill="none"></path></g></g><mask></mask><g stroke-linecap="round" transform="translate(860.2244308465974 522.9509632178297) rotate(0 20.480971204617447 7.832666041425938)"><path d="M15.84 0.92 C19.71 0.39, 25.35 0.35, 29.12 0.95 C32.9 1.55, 36.8 2.95, 38.5 4.54 C40.2 6.14, 40.64 8.77, 39.31 10.53 C37.98 12.28, 34.17 14.27, 30.52 15.06 C26.87 15.84, 21.45 15.67, 17.41 15.23 C13.38 14.8, 9.19 13.47, 6.3 12.45 C3.41 11.43, 0.44 10.77, 0.08 9.11 C-0.29 7.45, 1.2 4.02, 4.08 2.51 C6.97 1.01, 14.61 0.4, 17.36 0.08 C20.12 -0.24, 20.61 0.55, 20.61 0.59 M23.07 0.4 C27.28 0.33, 31.37 0.05, 34.28 0.93 C37.18 1.8, 40.08 3.82, 40.52 5.65 C40.95 7.47, 39.4 10.18, 36.89 11.87 C34.38 13.56, 29.58 15.36, 25.46 15.79 C21.34 16.22, 16.08 15.36, 12.17 14.43 C8.26 13.5, 4.1 11.67, 1.99 10.21 C-0.12 8.75, -1.39 7.28, -0.47 5.66 C0.44 4.03, 3.9 1.38, 7.47 0.47 C11.05 -0.45, 18.36 0.42, 20.98 0.16 C23.61 -0.1, 23.06 -1.4, 23.24 -1.08" stroke="none" stroke-width="0" fill="#ffff"></path><path d="M19.51 -0.48 C23.65 -0.69, 30.9 0.86, 34.26 2.12 C37.62 3.39, 38.87 5.63, 39.69 7.11 C40.51 8.58, 41.08 9.55, 39.17 10.99 C37.25 12.42, 32.31 15.17, 28.2 15.72 C24.08 16.26, 18.82 14.92, 14.46 14.27 C10.1 13.63, 4.3 13.18, 2.05 11.86 C-0.21 10.54, 0.08 7.99, 0.94 6.34 C1.8 4.68, 3.67 2.9, 7.21 1.91 C10.75 0.93, 19.71 0.57, 22.16 0.44 C24.61 0.31, 21.98 1.01, 21.91 1.14 M21.05 0.22 C25.04 0.14, 31.04 0.55, 34.12 1.52 C37.21 2.48, 38.71 4.32, 39.54 6.01 C40.37 7.7, 41.34 10.07, 39.12 11.66 C36.9 13.24, 30.6 14.83, 26.23 15.52 C21.86 16.22, 16.59 16.66, 12.91 15.81 C9.23 14.96, 6.06 11.92, 4.17 10.42 C2.28 8.91, 1 8.36, 1.56 6.8 C2.11 5.24, 4.52 2.42, 7.5 1.06 C10.48 -0.31, 17.04 -1.27, 19.43 -1.4 C21.82 -1.52, 21.67 0.13, 21.83 0.32" stroke="#000000" stroke-width="1" fill="none"></path></g><g stroke-linecap="round"><g transform="translate(856.0147166564733 549.7931801421335) rotate(0 24.659044780246745 10.164436642950164)" fill-rule="evenodd"><path d="M0 0 C0 0, 0 0, 0 0 M0 0 C0 0, 0 0, 0 0 M0.68 5.56 C1.59 4.32, 2.07 3.33, 3.54 1.51 M0.29 5.55 C1.75 4.19, 2.64 3.32, 3.64 1.73 M1.22 10.51 C1.89 9.53, 3.52 7.01, 8.05 3.99 M0.32 11.12 C2.47 9.11, 4.48 7.33, 7.17 3.73 M1.65 14.62 C3.56 13.44, 7.21 10.22, 10.52 7.4 M2.1 15.14 C5.6 12.54, 7.93 8.36, 10.32 6.95 M5.58 16.75 C9.48 14.48, 9.68 10.77, 14.55 8.6 M6.03 16.9 C9.38 14.37, 11.18 11.28, 15.15 7.28 M10.37 21.2 C13.46 15.78, 13.7 14.89, 18.55 7.96 M9.98 19.26 C12.88 16.18, 16.24 11.41, 19.6 7.39 M12.3 21.74 C15.55 18.43, 20.61 13.04, 27.76 5.87 M13.44 21.38 C16.41 16.39, 21.16 13.35, 26.43 6.15 M19.85 20.31 C22.64 17.66, 24.96 14.31, 32.6 8.05 M17.63 21.24 C22.28 18.01, 25.14 14.57, 31.28 6.9 M25.17 21.32 C29.48 17.98, 31.7 10.3, 38.28 4.24 M24.07 20.72 C29.14 16.5, 32.54 9.76, 37.4 5.3 M27.38 22.82 C34.17 15.79, 38.54 12.99, 43.44 6.39 M28.71 20.47 C34.6 15.11, 39.67 8.96, 42.16 5.09 M36 23.2 C36.19 18.47, 39.53 12.33, 50.28 3.49 M34.61 21.67 C38.56 15.51, 43.09 11.11, 51.31 2.17 M41.7 20.23 C42.4 17.56, 45.6 14.8, 51.63 7.21 M40.61 20.44 C44.91 15.67, 49.37 10.4, 51.64 9.04" stroke="#000000" stroke-width="0.5" fill="none"></path><path d="M-1.04 0 C-0.67 1.11, 0.99 5.3, 1.13 7.45 C1.27 9.6, -1.32 11.08, -0.2 12.9 C0.92 14.71, 5.06 16.97, 7.86 18.34 C10.66 19.72, 12.22 20.99, 16.63 21.17 C21.04 21.35, 29.83 19.76, 34.33 19.42 C38.83 19.08, 41.08 20.13, 43.62 19.15 C46.16 18.16, 48.74 15.4, 49.57 13.52 C50.41 11.63, 48.54 10.02, 48.62 7.84 C48.7 5.67, 50.21 1.49, 50.06 0.45 C49.92 -0.58, 48.94 0.93, 47.74 1.65 C46.53 2.37, 45.49 3.85, 42.82 4.77 C40.15 5.69, 35.68 6.84, 31.7 7.17 C27.72 7.5, 22.97 7.06, 18.92 6.75 C14.86 6.45, 10.58 6.41, 7.38 5.35 C4.17 4.29, 0.89 1.22, -0.31 0.38 M0.61 -1.05 C1.02 -0.31, 0.47 3.42, 0.72 5.92 C0.97 8.41, 0.81 11.63, 2.11 13.91 C3.41 16.2, 5.82 18.29, 8.51 19.64 C11.19 20.98, 14.19 21.65, 18.22 21.97 C22.24 22.29, 28.87 22.21, 32.67 21.57 C36.47 20.93, 38.28 19.02, 41.03 18.13 C43.78 17.25, 47.63 18.19, 49.15 16.25 C50.67 14.32, 50.42 9.25, 50.16 6.52 C49.9 3.8, 47.93 0.55, 47.57 -0.09 C47.21 -0.73, 48.97 1.89, 48 2.68 C47.04 3.46, 44.55 3.9, 41.8 4.62 C39.05 5.33, 35.41 6.57, 31.51 6.94 C27.61 7.32, 22.36 7.1, 18.4 6.84 C14.43 6.59, 10.68 6.86, 7.71 5.42 C4.74 3.97, 2.02 -1.13, 0.57 -1.82" stroke="#000000" stroke-width="1" fill="none"></path></g></g><mask></mask><g stroke-linecap="round"><g transform="translate(856.0381291404436 566.8920544398138) rotate(0 24.17065760005528 10.292757089966273)" fill-rule="evenodd"><path d="M0 0 C0 0, 0 0, 0 0 M0 0 C0 0, 0 0, 0 0 M0.31 6.01 C0.84 4.69, 1.63 3.55, 3.32 2.04 M0.3 5.87 C0.86 4.91, 1.92 4.11, 3.53 1.73 M0.01 10.78 C2.86 8.48, 4.18 7.4, 7.6 3.4 M0.62 11.16 C2.02 9.88, 3.65 7.95, 7.34 3.4 M2.42 13.9 C4.9 13.75, 5.5 11.11, 11.32 7.07 M2.9 14.83 C5.26 12.41, 6.17 10.7, 10.91 6.21 M5.63 18.27 C8.43 13.42, 9.79 11.65, 15.83 7.84 M5.78 17.8 C9.87 12.91, 13.39 9.95, 14.5 7.2 M10.56 21.58 C11.37 15.13, 16.99 11.1, 20.47 7.86 M8.49 20.08 C13.87 14.84, 17.45 10.01, 19.87 6.44 M14.85 19.45 C17.54 18.48, 18.26 15.63, 25.21 6.24 M14.51 19.82 C17.59 16.4, 22.53 11.3, 25.48 6.48 M18.14 20.99 C22.28 16.55, 25.77 15.25, 33.3 4.88 M19.02 21.37 C22.56 17.49, 25.91 12.62, 32.21 6.26 M24.47 22.37 C29.03 16.7, 29.25 14.08, 35.61 6.7 M23.88 21.44 C27.99 16.69, 29.6 13.74, 36.67 5.6 M31.26 21.88 C32.24 18.36, 37.45 12.68, 43.8 7.03 M28.91 21.03 C34.7 15.02, 39.68 7.99, 42.5 4.53 M36.26 19.54 C40.14 13.95, 42.58 9.25, 52.58 1.81 M34.74 20.33 C37.59 16.01, 42.18 13.23, 51.26 1.46 M41.5 18.81 C44.55 16.14, 47.51 13.48, 49.65 9.97 M41.71 19.65 C43.85 17.5, 45.49 15.09, 51.47 9.06" stroke="#000000" stroke-width="0.5" fill="none"></path><path d="M0 1.02 C0.07 2.04, 1.16 2.9, 1.22 5.04 C1.28 7.18, -0.69 11.98, 0.35 13.86 C1.39 15.75, 4.42 15.16, 7.45 16.34 C10.48 17.52, 14.41 20.24, 18.55 20.94 C22.69 21.65, 28.16 20.86, 32.31 20.56 C36.46 20.26, 40.94 20.34, 43.44 19.14 C45.94 17.94, 46.3 15.17, 47.32 13.36 C48.35 11.55, 49.29 10.41, 49.6 8.27 C49.9 6.13, 49.4 1.52, 49.13 0.52 C48.85 -0.48, 49.01 1.8, 47.92 2.27 C46.83 2.73, 44.97 2.67, 42.59 3.33 C40.2 3.99, 37.55 5.77, 33.64 6.23 C29.72 6.68, 23.27 6.47, 19.09 6.05 C14.91 5.64, 11.68 4.71, 8.56 3.73 C5.44 2.76, 1.76 0.85, 0.38 0.18 M-1.47 0.52 C-1.51 1.73, 0.73 4.09, 0.86 5.99 C0.98 7.89, -1.89 10.12, -0.72 11.92 C0.45 13.73, 4.85 15.78, 7.88 16.84 C10.92 17.9, 13.26 17.74, 17.49 18.26 C21.71 18.78, 28.76 19.93, 33.25 19.95 C37.74 19.97, 41.73 19.62, 44.42 18.39 C47.1 17.16, 48.78 14.42, 49.37 12.57 C49.97 10.72, 47.91 9.38, 47.99 7.28 C48.06 5.19, 49.75 1.23, 49.8 0.01 C49.85 -1.2, 49.68 -0.43, 48.29 -0.02 C46.89 0.4, 44.36 1.55, 41.44 2.49 C38.53 3.42, 34.6 5.03, 30.8 5.59 C27.01 6.15, 22.83 6.3, 18.67 5.87 C14.51 5.44, 8.69 3.74, 5.85 3.02 C3.01 2.29, 2.72 1.97, 1.62 1.52" stroke="#000000" stroke-width="1" fill="none"></path></g></g><mask></mask><g transform="translate(820.1398630771796 598.0645156381026) rotate(0 59.499969482421875 12)"><text x="0" y="0" font-family="Virgil, Segoe UI Emoji" font-size="20px" fill="#000000" text-anchor="start" style="white-space: pre;" direction="ltr" dominant-baseline="text-before-edge">MYDB_0001</text></g><g stroke-linecap="round" transform="translate(808.3907750504583 658.8799890810938) rotate(0 74.63325496191572 15.670383211273759)"><path d="M-0.69 -1.73 L148.81 -1.88 L148.59 30.84 L-0.73 31.89" stroke="none" stroke-width="0" fill="#eeeeee"></path><path d="M-1.87 -0.96 C46.01 -0.79, 87.56 -0.09, 151.13 -1.5 M-0.92 -0.71 C55.01 -0.79, 109.67 -1.5, 149.34 0.62 M149.86 0.89 C149.07 12.73, 148.55 22.13, 149.56 31.89 M149.9 -0.08 C148.25 8.92, 148.71 17.82, 150.24 30.47 M148.26 29.82 C90.38 33.15, 35.43 31.27, -1.39 32.09 M149.83 31.17 C113.08 30.67, 75.52 30.57, -0.28 30.63 M-0.86 30.6 C2.09 19.47, 0.42 12.18, -0.25 -1.13 M0.43 30.56 C-0.52 23.78, -0.5 15.41, 0.7 0.25" stroke="#000000" stroke-width="1" fill="none"></path></g><g transform="translate(817.2036259596397 660.6522982355639) rotate(0 65.82040405273443 10.199999999999989)"><text x="65.82040405273438" y="0" font-family="Virgil, Segoe UI Emoji" font-size="17.36235340308077px" fill="#000000" text-anchor="middle" style="white-space: pre;" direction="ltr" dominant-baseline="text-before-edge">employee_0004</text></g><g stroke-linecap="round" transform="translate(806.0157220687905 702.215499335) rotate(0 74.63325496191572 15.670383211273759)"><path d="M-0.46 -1.88 L148.59 -0.5 L148.53 31.89 L0.17 30.62" stroke="none" stroke-width="0" fill="#eeeeee"></path><path d="M1.28 0.59 C56.71 2.01, 119.11 -0.78, 150.62 1.06 M0.1 0.63 C58.86 0.98, 118.1 1.69, 149.7 -0.67 M149.28 1.99 C148.85 13, 149.66 25.28, 148.82 29.84 M148.48 0.21 C149.14 8.79, 150.44 15.88, 150.09 31.58 M147.4 33.03 C103.52 30.02, 55.95 30.96, -1.05 30.46 M150 30.56 C103.41 30.19, 57.13 30.37, 0.35 30.35 M1.78 29.97 C0.24 21.82, -0.12 7.49, -1.08 0.03 M-0.51 31.49 C-0.63 18.98, 0.56 7.9, -0.34 -0.87" stroke="#000000" stroke-width="1" fill="none"></path></g><g transform="translate(815.019536723089 703.9878084894704) rotate(0 65.62944030761719 10.199999999999989)"><text x="65.62944030761719" y="0" font-family="Virgil, Segoe UI Emoji" font-size="17.36235340308077px" fill="#000000" text-anchor="middle" style="white-space: pre;" direction="ltr" dominant-baseline="text-before-edge">employee_0005</text></g><g stroke-linecap="round" transform="translate(806.7141473617593 746.519454413125) rotate(0 74.63325496191572 15.670383211273759)"><path d="M-0.67 -0.5 L148.53 0.55 L149.44 30.62 L-0.04 29.98" stroke="none" stroke-width="0" fill="#eeeeee"></path><path d="M-1.91 1.29 C39.48 -1.94, 76.57 0.61, 151.17 -1.85 M-0.15 -0.08 C34.23 -0.32, 68.74 -1.61, 150.21 0.3 M148.76 0.64 C149.57 11.35, 148.82 20.1, 148.61 32.6 M148.94 0.42 C150 8.28, 149.84 18.54, 149.35 30.84 M149.48 31.15 C114.41 33.35, 81.28 31.72, 0.15 32.47 M149.34 30.45 C106.82 29.46, 65.28 29.18, 0.63 30.91 M0.11 33.18 C-0.53 21.97, -1.36 14.89, 1.56 0.86 M-0.5 30.83 C0.86 24.63, -0.18 16.56, -0.23 -0.94" stroke="#5c940d" stroke-width="1" fill="none"></path></g><g transform="translate(815.5269982709406 748.2917635675954) rotate(0 65.82040405273438 10.199999999999989)"><text x="65.82040405273438" y="0" font-family="Virgil, Segoe UI Emoji" font-size="17.36235340308077px" fill="#5c940d" text-anchor="middle" style="white-space: pre;" direction="ltr" dominant-baseline="text-before-edge">employee_0006</text></g><g stroke-linecap="round" transform="translate(807.7558954086343 793.184249335) rotate(0 74.63325496191572 17)"><path d="M-0.73 0.55 L149.44 -0.72 L149.23 32.64 L-1.48 33.68" stroke="none" stroke-width="0" fill="#eeeeee"></path><path d="M1.87 -1.5 C50.58 0.09, 100.35 -2.81, 147.84 0.2 M0.07 0.62 C54.65 -0.55, 109.38 0.42, 149.71 0.01 M149.56 0.55 C148.73 12.08, 148.52 28.41, 149.1 32.43 M150.24 -0.87 C149.98 11.17, 149.24 21.35, 148.51 33.07 M147.88 34.75 C90.83 32.98, 34.67 34.99, -0.35 35.46 M148.99 33.29 C116.51 31.68, 83.68 32.25, -0.37 34.89 M-0.25 32.87 C-1.1 26.17, 1.54 19.13, -1.56 -1.02 M0.7 34.25 C-0.18 22.42, -0.06 11.63, -0.34 -0.25" stroke="#000000" stroke-width="1" fill="none"></path></g><g transform="translate(817.454107035589 794.9565584894704) rotate(0 64.93504333496094 10.199999999999989)"><text x="64.93504333496094" y="0" font-family="Virgil, Segoe UI Emoji" font-size="17.36235340308077px" fill="#000000" text-anchor="middle" style="white-space: pre;" direction="ltr" dominant-baseline="text-before-edge">employee_0007</text></g><g stroke-linecap="round" transform="translate(775.9350488080499 495.10988156971115) rotate(0 107.20890808105469 186.0316162109375)"><path d="M32 0 M32 0 C88.2 2.19, 143.59 -0.72, 182.42 0 M182.42 0 C202.33 0.2, 215.68 10.37, 214.42 32 M214.42 32 C215.2 120.94, 215.94 212.23, 214.42 340.06 M214.42 340.06 C215.31 361.41, 205.74 371.55, 182.42 372.06 M182.42 372.06 C132.03 370.98, 81.87 373.73, 32 372.06 M32 372.06 C10.5 370.49, 0.43 360.75, 0 340.06 M0 340.06 C-0.99 235.11, -2.05 128.73, 0 32 M0 32 C-1.52 8.8, 12.35 0.21, 32 0" stroke="#000000" stroke-width="1.5" fill="none" stroke-dasharray="8 9"></path></g><g transform="translate(10 713.2961944443596) rotate(0 82.03125 12)"><text x="0" y="0" font-family="Cascadia, Segoe UI Emoji" font-size="20px" fill="#000000" text-anchor="start" style="white-space: pre;" direction="ltr" dominant-baseline="text-before-edge">Physical Table</text></g><g transform="translate(36.770794951685446 556.6067374753184) rotate(0 64.453125 12)"><text x="0" y="0" font-family="Cascadia, Segoe UI Emoji" font-size="20px" fill="#000000" text-anchor="start" style="white-space: pre;" direction="ltr" dominant-baseline="text-before-edge">Physical DB</text></g><g stroke-linecap="round"><g transform="translate(180.74260505677773 568.4185628195746) rotate(0 57.381277836953416 0.0927153887587906)"><path d="M0.06 -0.01 C44.04 0.84, 83.84 -0.61, 114.7 0.14" stroke="#000000" stroke-width="1.5" fill="none" stroke-dasharray="1.5 7"></path></g></g><mask></mask><g stroke-linecap="round"><g transform="translate(183.6120308042814 723.3009218651578) rotate(0 46.64525620115825 0.3433922052231537)"><path d="M-1.41 0.76 C26.18 -0.48, 49.81 1.07, 94.7 -0.08" stroke="#000000" stroke-width="1.5" fill="none" stroke-dasharray="1.5 7"></path></g></g><mask></mask><g transform="translate(129.32186278301361 86.678221307777) rotate(0 143.35526345953195 9.479360046228965)"><text x="0" y="0" font-family="Helvetica, Segoe UI Emoji" font-size="15.798933410381608px" fill="#000000" text-anchor="start" style="white-space: pre;" direction="ltr" dominant-baseline="text-before-edge">select * from DB.employee where uid = ?</text></g><g stroke-linecap="round" transform="translate(111.22885887811057 76.34040311236316) rotate(0 160.5830218300303 21.393480596528956)"><path d="M-0.92 0.1 C83.14 -2.38, 163.38 -1.47, 319.94 0.78 M-0.36 0.57 C89.45 -1.3, 179.2 -2.33, 321.57 0.16 M321.35 0.64 C322.45 9.41, 320.36 18.53, 319.85 43.05 M321.02 0.98 C321.53 13.04, 321.51 26.1, 321.73 42.66 M322 43.02 C230.27 44.86, 140.36 44.75, 1.11 42.27 M320.53 43.37 C203.79 41.87, 86.68 40.72, -0.64 42.76 M-1.24 42.95 C0.72 27.78, 1.97 15.9, 0.03 0.56 M-0.36 42.55 C-0.39 32.64, 0.31 23.48, -0.34 -0.45" stroke="#000000" stroke-width="1" fill="none"></path></g><g transform="translate(583.1107839578656 167.77606319770126) rotate(0 27.889984130859375 12)"><text x="0" y="0" font-family="Virgil, Segoe UI Emoji" font-size="20px" fill="#000000" text-anchor="start" style="white-space: pre;" direction="ltr" dominant-baseline="text-before-edge">MYDB</text></g><g stroke-linecap="round" transform="translate(461.9099854338931 10) rotate(0 143.5510187543082 142.54250675372282)"><path d="M32 0 M32 0 C117.42 -0.89, 203.59 -0.7, 255.1 0 M255.1 0 C276.46 1.62, 285.38 9.48, 287.1 32 M287.1 32 C289.28 100.52, 288.48 167.02, 287.1 253.09 M287.1 253.09 C285.7 273.09, 274.73 284.11, 255.1 285.09 M255.1 285.09 C205.96 285.82, 158.39 287.96, 32 285.09 M32 285.09 C8.77 286.54, -1.84 273.09, 0 253.09 M0 253.09 C0.61 179.07, 2.47 103.25, 0 32 M0 32 C0.77 8.71, 8.83 -1.09, 32 0" stroke="#000000" stroke-width="1.5" fill="none" stroke-dasharray="8 9"></path></g><g transform="translate(878.1149268399915 84.65186703992629) rotate(0 58.59375 12)"><text x="0" y="0" font-family="Cascadia, Segoe UI Emoji" font-size="20px" fill="#000000" text-anchor="start" style="white-space: pre;" direction="ltr" dominant-baseline="text-before-edge">Logical DB</text></g><g stroke-linecap="round"><g transform="translate(699.5998760875118 100.47797477238191) rotate(0 72.26533689418119 -0.29854036843185305)"><path d="M0.89 0.09 C24.64 -0.02, 119.66 -0.83, 143.64 -0.66" stroke="#000000" stroke-width="1.5" fill="none" stroke-dasharray="1.5 7"></path></g></g><mask></mask><g transform="translate(875.3532003060341 226.8200542589019) rotate(0 76.171875 12)"><text x="0" y="0" font-family="Cascadia, Segoe UI Emoji" font-size="20px" fill="#000000" text-anchor="start" style="white-space: pre;" direction="ltr" dominant-baseline="text-before-edge">Logical Table</text></g><g stroke-linecap="round"><g transform="translate(708.0264067272784 240.0394972639564) rotate(0 71.80158710398962 0.04638468408595031)"><path d="M-0.75 -0.26 C23.43 -0.18, 120.41 0.21, 144.35 0.35" stroke="#000000" stroke-width="1.5" fill="none" stroke-dasharray="1.5 7"></path></g></g><mask></mask><g stroke-linecap="round"><g transform="translate(612.4451994137875 301.0646127663591) rotate(0 -0.166823635390017 50.67251736930706)"><path d="M-0.11 -0.09 C-0.38 16.97, -1.08 85.64, -0.99 102.53 M-1.62 -1.19 C-1.56 15.54, 1.02 83.64, 1.29 100.9" stroke="#000000" stroke-width="1" fill="none"></path></g><g transform="translate(612.4451994137875 301.0646127663591) rotate(0 -0.166823635390017 50.67251736930706)"><path d="M-9.91 71.64 C-4.29 83.84, -2.57 91.69, 0.31 99.14 M-9.1 72.12 C-8.07 79.87, -3.93 87.12, 1.12 101.29" stroke="#000000" stroke-width="1" fill="none"></path></g><g transform="translate(612.4451994137875 301.0646127663591) rotate(0 -0.166823635390017 50.67251736930706)"><path d="M10.61 71.06 C9.03 83.45, 3.55 91.5, 0.31 99.14 M11.41 71.54 C7.57 79.31, 6.84 86.69, 1.12 101.29" stroke="#000000" stroke-width="1" fill="none"></path></g></g><mask></mask></svg>