<svg version="1.1" xmlns="http://www.w3.org/2000/svg" viewBox="0 0 903.712841349052 841.5317639231168" width="903.712841349052" height="841.5317639231168">
  <!-- svg-source:excalidraw -->
  
  <defs>
    <style class="style-fonts">
      @font-face {
        font-family: "Virgil";
        src: url("https://excalidraw.com/Virgil.woff2");
      }
      @font-face {
        font-family: "Cascadia";
        src: url("https://excalidraw.com/Cascadia.woff2");
      }
    </style>
  </defs>
  <rect x="0" y="0" width="903.712841349052" height="841.5317639231168" fill="#ffffff"></rect><g stroke-linecap="round"><g transform="translate(242.8906765608598 11.18182583293948) rotate(0 13.357165812409534 12.490878752575941)" fill-rule="evenodd"><path d="M0.18 -1.17 L1.92 16.49 L1.97 23.05 L13.11 24.77 L27.81 25.6 L23.82 19.12 L-0.69 1.03" stroke="none" stroke-width="0" fill="#000000" fill-rule="evenodd"></path><path d="M0.75 0.39 C0.6 2.36, -1.05 7.56, -0.56 11.3 C-0.07 15.04, 1.07 20.59, 3.67 22.83 C6.27 25.07, 10.95 24.51, 15.03 24.73 C19.1 24.94, 27.29 25.48, 28.11 24.12 C28.94 22.76, 23.1 19.65, 19.98 16.57 C16.85 13.49, 12.75 8.32, 9.38 5.65 C6 2.97, 1.31 1.35, -0.29 0.52 M-0.32 -0.45 C-0.13 1.68, 1.09 8.21, 1.64 12.28 C2.19 16.36, 0.71 21.83, 2.98 23.99 C5.25 26.16, 11.29 25.23, 15.29 25.25 C19.29 25.26, 26.47 25.63, 26.98 24.07 C27.48 22.51, 21.07 18.64, 18.31 15.87 C15.55 13.1, 13.7 10.03, 10.4 7.46 C7.1 4.89, -0.02 1.76, -1.48 0.45" stroke="#000000" stroke-width="1" fill="none"></path></g></g><mask></mask><g stroke-linecap="round"><g transform="translate(242.85133156890117 11.236617298803559) rotate(0 -40.17375243161477 0.392288693078374)"><path d="M0.39 -0.97 C-12.98 -1.07, -67.35 -0.02, -80.74 0.15 M-0.86 1.14 C-13.82 1.19, -65.25 1.72, -78.58 1.76" stroke="#000000" stroke-width="1" fill="none"></path></g></g><mask></mask><g stroke-linecap="round"><g transform="translate(163.35801748823218 11.237336068911311) rotate(0 -0.12725820760191198 76.9581471225136)"><path d="M-0.97 -1.06 C-1.07 24.47, -0.02 127.95, 0.15 153.59 M0.72 1 C0.41 26.68, -0.48 129.56, -0.72 154.98" stroke="#000000" stroke-width="1" fill="none"></path></g></g><mask></mask><g stroke-linecap="round"><g transform="translate(163.21468423248638 165.08592976940815) rotate(0 53.162940702414204 0.37768767614791443)"><path d="M-1.06 0.15 C16.77 0.31, 89.45 -0.06, 107.39 0.02 M0.59 -0.82 C18.2 -0.36, 88.24 1.66, 106.29 1.57" stroke="#000000" stroke-width="1" fill="none"></path></g></g><mask></mask><g stroke-linecap="round"><g transform="translate(270.7506061840504 165.62945098150095) rotate(0 -0.5158605268064207 -65.56865115322198)"><path d="M0.15 -0.29 C0.33 -21.92, 0.01 -109.13, 0.11 -130.85 M-1.24 -1.48 C-1.13 -22.92, -1.08 -108.53, -0.82 -129.9" stroke="#000000" stroke-width="1" fill="none"></path></g></g><mask></mask><g stroke-linecap="round"><g transform="translate(242.17691567694408 11.008637950187548) rotate(0 14.61043773203727 12.744847002313378)"><path d="M-0.29 0.02 C4.45 4.42, 22.72 22.01, 27.38 26.5 M1.76 -1.01 C6.95 3.02, 24.78 20.34, 29.51 24.71" stroke="#000000" stroke-width="1" fill="none"></path></g></g><mask></mask><g stroke-linecap="round"><g transform="translate(166.48850962073732 101.00781308884517) rotate(0 52.76781277740338 20.99990376054332)" fill-rule="evenodd"><path d="M-0.46 -1.16 L113.21 2.76 L119.05 4.68 L119.02 13.59 L118.37 35.4 L113.13 42.18 L104.91 42.81 L10.89 42.92 L-9.85 40.8 L-13.28 32.89 L-15.84 28.23 L-14.58 12.54 L-10.17 0.99 L1.29 0.3" stroke="none" stroke-width="0" fill="#fff" fill-rule="evenodd"></path><path d="M0.02 -1.11 C8.43 -1.2, 32.62 -1.2, 50.59 -0.84 C68.55 -0.48, 96.82 0.58, 107.81 1.03 C118.8 1.48, 114.64 -0.01, 116.52 1.88 C118.4 3.78, 118.62 7.9, 119.09 12.41 C119.56 16.92, 119.72 24.68, 119.35 28.95 C118.97 33.21, 118.88 36.09, 116.84 38 C114.8 39.91, 118.31 39.78, 107.1 40.42 C95.89 41.07, 67.75 41.79, 49.59 41.86 C31.42 41.94, 8.13 41.41, -1.89 40.89 C-11.92 40.36, -8.33 40.86, -10.58 38.71 C-12.83 36.55, -14.67 32.3, -15.41 27.97 C-16.14 23.63, -15.95 16.9, -14.98 12.7 C-14.01 8.5, -12.12 4.79, -9.6 2.74 C-7.08 0.7, -1.51 0.99, 0.16 0.42 M-1.42 0.92 C6.87 0.98, 31.8 0.57, 49.98 0.26 C68.15 -0.06, 96.43 -1.34, 107.63 -0.97 C118.82 -0.6, 114.9 0.15, 117.15 2.49 C119.4 4.83, 120.54 8.78, 121.12 13.07 C121.7 17.36, 121.24 23.76, 120.64 28.24 C120.04 32.72, 119.94 37.46, 117.54 39.94 C115.15 42.43, 117.35 43.07, 106.27 43.16 C95.2 43.24, 69.09 40.97, 51.09 40.46 C33.09 39.95, 8.48 40.19, -1.72 40.1 C-11.93 40, -8.2 41.47, -10.15 39.89 C-12.1 38.32, -12.6 35.24, -13.4 30.62 C-14.2 26, -15.52 16.87, -14.97 12.2 C-14.41 7.53, -12.67 4.62, -10.08 2.61 C-7.49 0.59, -1.38 0.48, 0.57 0.09" stroke="#000000" stroke-width="1" fill="none"></path></g></g><mask></mask><g transform="translate(181.19328187289818 105.76282285678299) rotate(0 37.96224439188367 17.840282704730228)"><text x="0" y="0" font-family="Virgil, Segoe UI Emoji" font-size="29.929626616569966px" fill="#000000" text-anchor="start" style="white-space: pre;" direction="ltr" dominant-baseline="text-before-edge">YAML</text></g><g stroke-linecap="round"><g transform="translate(174.58085433942165 38.27491666954167) rotate(0 29.700572436822767 0.10498543259046755)"><path d="M0.64 -0.84 C10.62 -0.54, 50.07 0.67, 59.88 0.65 M-0.48 1.34 C9.43 1.38, 49.58 -0.88, 59.51 -1.13" stroke="#000000" stroke-width="1" fill="none"></path></g></g><mask></mask><g stroke-linecap="round"><g transform="translate(174.6550546961447 49.115983794960115) rotate(0 38.01397508803943 0.04987797774167291)"><path d="M-0.84 1.11 C12.16 1.12, 64.18 0.96, 76.87 0.73 M0.92 0.64 C13.91 0.26, 63.47 -1.04, 76.26 -1.01" stroke="#000000" stroke-width="1" fill="none"></path></g></g><mask></mask><g stroke-linecap="round"><g transform="translate(174.6818079395917 60.17285075061518) rotate(0 38.58668648117873 -0.14803467169404172)"><path d="M1.11 0.65 C13.82 0.64, 64.48 -0.93, 76.94 -0.95 M0.23 -0.05 C12.8 0.13, 63.92 0.34, 76.38 0.09" stroke="#000000" stroke-width="1" fill="none"></path></g></g><mask></mask><g stroke-linecap="round"><g transform="translate(174.68780357292707 71.2395205356214) rotate(0 38.50723811979593 0.3968103084387238)"><path d="M0.65 0.73 C13.34 0.5, 62.58 -0.13, 75.26 -0.29 M-0.46 0.07 C12.66 0.53, 64.69 0.94, 77.48 1.09" stroke="#000000" stroke-width="1" fill="none"></path></g></g><mask></mask><g stroke-linecap="round"><g transform="translate(174.59579855924272 83.60322292338073) rotate(0 37.787343002201055 -0.08377129222266433)"><path d="M0.73 -0.95 C13.2 -0.97, 63.38 0.25, 75.92 0.52 M-0.34 1.17 C11.84 0.73, 62.24 -0.91, 74.82 -1.33" stroke="#000000" stroke-width="1" fill="none"></path></g></g><mask></mask><g stroke-linecap="round"><g transform="translate(401.0695703430338 30.59268108962729) rotate(0 46.720925225710516 51.639860194293725)" fill-rule="evenodd"><path d="M-1.93 1.56 L-0.28 103.14 L2.21 105.07 L10.16 108.35 L22.04 109.73 L51.93 110.64 L75.39 108.82 L84.14 108.88 L94.71 105.29 L92.22 -1.54 L94.96 -1.38 L92.12 -3.37 L83.93 -6.39 L46.01 -8.67 L22.5 -8.97 L13.81 -6.15 L2.07 -2.23 L-1.88 0.65" stroke="none" stroke-width="0" fill="#ced4da" fill-rule="evenodd"></path><path d="M-0.07 -0.23 C0.02 15.3, 0.68 74.93, 0.78 92.04 C0.88 109.16, -0.17 100.09, 0.53 102.46 C1.23 104.84, 1.6 105.12, 4.99 106.3 C8.38 107.49, 13.29 108.54, 20.88 109.56 C28.46 110.58, 41.05 112.55, 50.49 112.41 C59.94 112.28, 70.74 109.93, 77.55 108.76 C84.36 107.59, 88.77 106.76, 91.36 105.39 C93.95 104.01, 92.49 102.75, 93.08 100.51 C93.66 98.26, 94.77 107.47, 94.88 91.92 C94.99 76.36, 94.14 22.51, 93.75 7.17 C93.36 -8.17, 93.74 1.72, 92.56 -0.13 C91.37 -1.97, 89.71 -2.62, 86.62 -3.89 C83.54 -5.15, 80.78 -6.86, 74.02 -7.7 C67.27 -8.54, 54.54 -8.85, 46.09 -8.93 C37.64 -9, 30.32 -8.85, 23.31 -8.15 C16.3 -7.45, 7.86 -5.94, 4.05 -4.73 C0.23 -3.53, 1.08 -1.71, 0.41 -0.91 C-0.27 -0.1, 0.24 -0.25, 0.01 0.09 M-1.56 -1.39 C-1.62 13.86, -0.18 73.17, 0.08 90.11 C0.35 107.06, -0.84 97.45, 0.03 100.31 C0.9 103.16, 1.54 105.71, 5.31 107.24 C9.09 108.77, 15.47 108.74, 22.66 109.5 C29.86 110.25, 39.19 111.61, 48.48 111.79 C57.76 111.97, 71.43 111.67, 78.38 110.57 C85.34 109.46, 87.48 106.52, 90.21 105.15 C92.94 103.78, 94.39 104.1, 94.77 102.34 C95.15 100.57, 92.6 110.32, 92.49 94.58 C92.37 78.83, 93.77 23.71, 94.1 7.88 C94.43 -7.95, 95.72 1.59, 94.47 -0.42 C93.21 -2.44, 90.13 -2.93, 86.57 -4.2 C83.01 -5.46, 79.73 -7.2, 73.09 -8.02 C66.45 -8.83, 55.37 -9.3, 46.73 -9.09 C38.09 -8.89, 28.55 -7.57, 21.23 -6.79 C13.9 -6.01, 6.45 -5.38, 2.81 -4.41 C-0.84 -3.44, 0.06 -1.79, -0.64 -0.99 C-1.34 -0.19, -1.32 0.24, -1.38 0.39" stroke="#000000" stroke-width="1" fill="none"></path></g></g><mask></mask><g stroke-linecap="round" transform="translate(401.2669349699152 21.140254921263725) rotate(0 46.68720102836036 9.442135165750553)"><path d="M42.12 0.55 C50.57 0.2, 62.16 0.11, 70.19 0.97 C78.22 1.82, 86.76 3.81, 90.29 5.69 C93.82 7.57, 93.59 10.41, 91.36 12.27 C89.14 14.12, 83.48 15.64, 76.95 16.79 C70.41 17.95, 60.95 18.93, 52.15 19.21 C43.34 19.48, 32.02 19.44, 24.12 18.45 C16.22 17.47, 8.58 14.94, 4.75 13.27 C0.92 11.61, -0.63 10.23, 1.13 8.46 C2.89 6.69, 7.32 4.08, 15.3 2.66 C23.29 1.24, 42.57 0.26, 49.03 -0.07 C55.5 -0.39, 54.31 0.46, 54.08 0.73 M57.33 1.26 C65.66 1.7, 75.64 2.25, 81.55 3.74 C87.46 5.24, 91.76 8.56, 92.79 10.24 C93.82 11.91, 92.24 12.57, 87.73 13.79 C83.22 15, 74.61 16.77, 65.72 17.53 C56.83 18.29, 43.66 18.89, 34.4 18.36 C25.14 17.83, 15.96 15.46, 10.15 14.32 C4.35 13.19, 0.34 13.33, -0.43 11.53 C-1.2 9.74, 0.58 5.24, 5.52 3.56 C10.45 1.89, 20.64 1.93, 29.19 1.48 C37.74 1.04, 52.23 1.09, 56.81 0.91 C61.39 0.73, 56.77 0.53, 56.7 0.39" stroke="none" stroke-width="0" fill="#fff"></path><path d="M53.99 -0.15 C62.5 -0.18, 72.45 0.56, 78.97 2.02 C85.5 3.48, 91.54 6.79, 93.15 8.6 C94.76 10.41, 92.87 11.33, 88.64 12.9 C84.42 14.47, 76.06 17.15, 67.79 18.01 C59.52 18.87, 47.91 18.52, 39.04 18.06 C30.16 17.6, 20.95 16.52, 14.55 15.27 C8.15 14.01, 2.31 12.16, 0.64 10.51 C-1.04 8.86, 0.45 6.82, 4.5 5.38 C8.55 3.94, 15.63 2.71, 24.93 1.86 C34.24 1, 53.28 0.26, 60.34 0.25 C67.4 0.23, 67.33 1.54, 67.3 1.75 M46.11 0.01 C54.99 -0.4, 66.88 -0.21, 74.64 0.65 C82.39 1.51, 89.72 3.21, 92.64 5.17 C95.55 7.14, 95.09 10.34, 92.11 12.44 C89.12 14.54, 82.34 16.9, 74.72 17.78 C67.11 18.65, 55.78 17.75, 46.42 17.68 C37.06 17.6, 26.04 17.99, 18.57 17.32 C11.1 16.65, 4.42 15.72, 1.61 13.68 C-1.21 11.64, -1.19 7.3, 1.7 5.08 C4.59 2.87, 11.22 1.07, 18.96 0.38 C26.7 -0.32, 43.23 1.13, 48.15 0.9 C53.07 0.67, 48.68 -1.23, 48.49 -1" stroke="#000000" stroke-width="1" fill="none"></path></g><g stroke-linecap="round" transform="translate(456.77162560877093 49.583954589153265) rotate(0 14.519868791295664 16.88356836197164)"><path d="M13.17 0.78 L27.73 18.17 L15.96 34.8 L-0.64 16.35" stroke="none" stroke-width="0" fill="#868e96" fill-rule="evenodd"></path><path d="M15.62 0.86 C19.69 5.2, 22.71 8.68, 27.59 17.74 M14.8 0.17 C19.72 5.62, 26.12 11.68, 29.08 16.56 M30.67 16.28 C25.23 22.06, 23.39 26.92, 15.35 33.81 M29.05 17.08 C25.03 21.73, 21.61 25.48, 14.99 34.43 M14.62 34.16 C9.13 29.79, 3.71 20.36, -0.91 15.17 M14.2 33.69 C10.3 27.27, 4.54 21.45, 0.84 16.96 M-0.61 18.86 C4.95 9.5, 11.37 4.04, 15.65 1.28 M0.74 17 C5.02 12.13, 9.8 5.64, 15.5 -0.07" stroke="#000000" stroke-width="1" fill="none"></path></g><g stroke-linecap="round" transform="translate(440.56339998127504 100.91000240954774) rotate(0 15.53288289301392 14.85754015853503)"><path d="M12.46 0.44 C15.42 -0.38, 19.57 0.62, 22.45 1.94 C25.34 3.26, 28.27 5.55, 29.77 8.37 C31.26 11.19, 32.5 15.62, 31.44 18.88 C30.37 22.14, 26.42 26.09, 23.37 27.94 C20.32 29.79, 16.17 30.35, 13.13 29.98 C10.09 29.6, 7.15 27.84, 5.11 25.66 C3.07 23.48, 1.12 20.12, 0.87 16.89 C0.62 13.65, 1.23 8.9, 3.61 6.25 C5.99 3.6, 12.72 1.9, 15.16 1 C17.61 0.09, 18.21 0.74, 18.28 0.81 M9.53 2.26 C12.31 0.83, 16.99 -0.86, 19.99 -0.06 C23 0.74, 25.86 4.35, 27.57 7.06 C29.28 9.77, 30.46 12.96, 30.24 16.22 C30.03 19.48, 28.24 24.49, 26.3 26.62 C24.35 28.75, 21.59 29.01, 18.59 29 C15.58 28.99, 11.48 28.27, 8.29 26.56 C5.1 24.86, 0.77 21.92, -0.54 18.77 C-1.85 15.62, -1.01 10.3, 0.43 7.66 C1.87 5.02, 6.96 4.06, 8.11 2.93 C9.25 1.8, 7.08 0.77, 7.31 0.89" stroke="none" stroke-width="0" fill="#868e96"></path><path d="M17.18 -0.56 C20.38 -0.15, 25.16 3.29, 27.53 5.66 C29.89 8.03, 31.37 10.55, 31.36 13.65 C31.36 16.75, 29.69 21.76, 27.49 24.26 C25.29 26.77, 21.27 28.24, 18.17 28.7 C15.08 29.17, 11.77 28.52, 8.92 27.05 C6.08 25.58, 2.57 22.66, 1.13 19.88 C-0.32 17.09, -0.71 13.16, 0.26 10.35 C1.24 7.54, 3.57 4.62, 6.96 3.01 C10.34 1.41, 17.71 0.71, 20.57 0.74 C23.44 0.76, 24.03 2.87, 24.15 3.16 M14.63 0.01 C17.98 -0.45, 22.82 0.54, 25.75 2.37 C28.69 4.2, 31.53 7.65, 32.25 10.99 C32.97 14.33, 31.84 19.32, 30.08 22.41 C28.31 25.49, 24.98 28.65, 21.68 29.51 C18.38 30.37, 13.61 28.73, 10.29 27.56 C6.96 26.38, 3.47 24.79, 1.72 22.45 C-0.04 20.11, -0.8 16.94, -0.27 13.54 C0.27 10.13, 2.39 4.51, 4.93 2.03 C7.48 -0.46, 13.06 -1.23, 15.01 -1.37 C16.97 -1.51, 16.34 0.92, 16.67 1.2" stroke="#000000" stroke-width="1" fill="none"></path></g><g stroke-linecap="round"><g transform="translate(426.3261800303276 67.02691037061605) rotate(0 -0.3732894667067228 13.31928009414844)" fill-rule="evenodd"><path d="M-1.31 1.17 L14.71 26.81 L-15.11 24.82 L1.32 -1.05" stroke="none" stroke-width="0" fill="#868e96" fill-rule="evenodd"></path><path d="M0.59 0.25 C4.22 7.42, 7.96 18.18, 15.07 26.39 M-0.47 -0.71 C3.76 4.77, 6.02 10.86, 13.22 25.98 M13.37 26.77 C7.79 27.32, -0.3 25.56, -15.81 26.23 M12.94 26.72 C6.33 26.51, 0.82 26.32, -14.04 25.61 M-15.18 27.35 C-12.23 18.05, -8.98 12.43, 1.3 1.2 M-13.59 24.96 C-8.05 15.38, -2.18 5.65, 0.25 0.5 M0 0 C0 0, 0 0, 0 0 M0 0 C0 0, 0 0, 0 0" stroke="#000000" stroke-width="1" fill="none"></path></g></g><mask></mask><g transform="translate(414.96387888375244 147.56305489411966) rotate(0 33.33645766294521 13.375758812446236)"><text x="33.3364576629452" y="0" font-family="Virgil, Segoe UI Emoji" font-size="22.9773197018273px" fill="#000000" text-anchor="middle" style="white-space: pre;" direction="ltr" dominant-baseline="text-before-edge">ETCD</text></g><g stroke-linecap="round"><g transform="translate(631.9151889639008 30.627088327383618) rotate(0 47.30934480773533 51.68853536461334)" fill-rule="evenodd"><path d="M0.55 -0.65 L0.19 102.24 L2.54 103.47 L10.56 110.15 L23.14 109.03 L48.92 111.43 L76.14 108.83 L87.33 107.49 L91.96 103.36 L94.2 -1.75 L93.53 -0.38 L90.45 -4.52 L82.61 -8.05 L45.2 -8.32 L24.05 -7.36 L11.37 -7.37 L3.21 -5.87 L-1.49 -0.64" stroke="none" stroke-width="0" fill="#ced4da" fill-rule="evenodd"></path><path d="M0.62 -0.14 C0.38 14.84, -0.62 73.48, -0.62 90.6 C-0.63 107.72, -0.37 99.9, 0.61 102.57 C1.58 105.24, 1.81 105.14, 5.22 106.63 C8.63 108.11, 13.53 110.46, 21.08 111.47 C28.64 112.48, 41.35 113.08, 50.54 112.7 C59.72 112.31, 69.23 110.39, 76.2 109.17 C83.18 107.94, 89.33 106.56, 92.38 105.34 C95.42 104.12, 94.04 103.73, 94.47 101.83 C94.91 99.94, 95.32 109.81, 95.01 93.96 C94.69 78.12, 92.92 22.28, 92.57 6.75 C92.23 -8.79, 93.62 2.79, 92.92 0.77 C92.21 -1.26, 91.3 -3.85, 88.33 -5.4 C85.36 -6.94, 82.09 -7.94, 75.12 -8.5 C68.15 -9.06, 55.48 -8.96, 46.53 -8.75 C37.58 -8.54, 28.34 -8.05, 21.42 -7.26 C14.51 -6.46, 8.47 -5.28, 5.04 -3.98 C1.6 -2.67, 1.48 -0.09, 0.8 0.58 C0.12 1.25, 1.03 0.33, 0.95 0.04 M-0.52 -1.26 C-0.46 13.76, 1.49 74.62, 1.6 91.57 C1.71 108.52, -0.53 97.78, 0.15 100.47 C0.83 103.16, 1.86 106.35, 5.66 107.73 C9.47 109.11, 15.83 108, 22.98 108.74 C30.12 109.49, 39.65 111.81, 48.54 112.22 C57.44 112.63, 69.13 112.38, 76.33 111.19 C83.53 109.99, 88.94 106.83, 91.76 105.08 C94.58 103.33, 93.09 102.53, 93.24 100.69 C93.39 98.85, 92.84 109.62, 92.68 94.04 C92.52 78.46, 91.91 22.75, 92.3 7.24 C92.69 -8.28, 96.15 3.23, 95.02 0.94 C93.89 -1.35, 88.89 -4.8, 85.51 -6.5 C82.14 -8.2, 81.73 -8.85, 74.76 -9.23 C67.8 -9.62, 52.53 -8.85, 43.73 -8.82 C34.94 -8.8, 28.58 -10.02, 22.01 -9.09 C15.44 -8.16, 7.99 -4.99, 4.31 -3.26 C0.64 -1.53, 0.67 0.69, -0.04 1.28 C-0.74 1.88, -0.11 0.51, 0.06 0.31" stroke="#000000" stroke-width="1" fill="none"></path></g></g><mask></mask><g stroke-linecap="round" transform="translate(632.1125535907822 21.174662159020045) rotate(0 46.68720102836039 9.442135165750557)"><path d="M28.78 1.38 C36.7 0.82, 49.72 0.53, 58.59 0.77 C67.45 1, 76.26 1.63, 81.97 2.8 C87.68 3.96, 92.22 5.87, 92.84 7.75 C93.45 9.63, 90.52 12.44, 85.69 14.08 C80.85 15.72, 72.28 16.81, 63.8 17.6 C55.32 18.38, 43.44 19.09, 34.82 18.78 C26.19 18.47, 17.7 17.09, 12.04 15.74 C6.39 14.4, 1.6 12.66, 0.88 10.72 C0.16 8.77, 2.3 5.92, 7.75 4.08 C13.2 2.24, 28.64 0.34, 33.58 -0.33 C38.52 -1.01, 37.18 -0.14, 37.4 0.05 M44.51 1.18 C52.88 1.15, 64.48 2.41, 72 3.02 C79.53 3.63, 86.54 3.13, 89.66 4.85 C92.78 6.57, 93.4 11.4, 90.73 13.36 C88.06 15.31, 80.64 15.7, 73.65 16.56 C66.65 17.42, 57.93 18.46, 48.78 18.5 C39.62 18.54, 26.52 17.76, 18.71 16.8 C10.89 15.85, 4.63 14.57, 1.9 12.77 C-0.83 10.97, -0.62 8.03, 2.33 6 C5.27 3.96, 12.23 1.73, 19.59 0.56 C26.94 -0.61, 42.33 -1.08, 46.44 -1.04 C50.55 -0.99, 44.21 0.74, 44.25 0.84" stroke="none" stroke-width="0" fill="#fff"></path><path d="M26.78 0.94 C34.18 0.14, 45.58 0.54, 54.59 1.02 C63.6 1.5, 74.6 2.7, 80.86 3.82 C87.12 4.93, 90.87 6.01, 92.14 7.71 C93.4 9.42, 92.51 12.28, 88.43 14.05 C84.34 15.82, 75.81 17.42, 67.61 18.34 C59.41 19.26, 48.49 20.1, 39.22 19.57 C29.95 19.04, 18.48 16.5, 11.98 15.18 C5.47 13.86, 1.09 13.42, 0.18 11.65 C-0.72 9.87, 1.73 6.48, 6.56 4.52 C11.4 2.56, 24.94 0.38, 29.19 -0.12 C33.43 -0.62, 31.94 1.06, 32.03 1.5 M66.61 2.02 C74.81 2.52, 83.07 3.71, 87.24 5.19 C91.41 6.67, 92.71 9.05, 91.63 10.87 C90.56 12.7, 86.64 14.67, 80.79 16.12 C74.95 17.56, 65.6 19.4, 56.57 19.57 C47.53 19.74, 34.8 17.87, 26.58 17.15 C18.36 16.43, 11.81 16.85, 7.25 15.26 C2.69 13.66, -1.56 9.73, -0.78 7.58 C0 5.42, 5.74 3.37, 11.94 2.31 C18.15 1.25, 27.49 1.66, 36.46 1.22 C45.42 0.78, 60.93 -0.35, 65.74 -0.33 C70.55 -0.32, 65.66 0.91, 65.31 1.29" stroke="#000000" stroke-width="1" fill="none"></path></g><g stroke-linecap="round" transform="translate(687.6172442296379 49.61836182690959) rotate(0 14.519868791295664 16.883568361971648)"><path d="M13.35 -0.59 L29.39 16.04 L14.91 34.48 L0.68 15.53" stroke="none" stroke-width="0" fill="#868e96" fill-rule="evenodd"></path><path d="M13.21 0.99 C20.68 6.72, 24.86 11.13, 30.76 17.81 M15.64 0.13 C21.02 7.08, 26.7 14.15, 28.1 16.21 M28.16 18.1 C23.6 23.49, 22.96 24.98, 16.84 35.46 M29.83 17.03 C25.3 21.05, 21.14 26.66, 15.22 33.98 M16.42 35.26 C8.32 26.52, 4.14 20.58, -0.89 18.36 M15.19 33.58 C10.86 28.79, 6.02 23.06, 0.18 16.13 M1 16.41 C3.1 11.21, 6.49 5.68, 14.36 -1.28 M0.94 17.19 C4.52 13.42, 8.22 8.33, 15.15 -0.72" stroke="#000000" stroke-width="1" fill="none"></path></g><g stroke-linecap="round" transform="translate(671.4090186021422 100.94440964730408) rotate(0 15.532882893013948 14.85754015853503)"><path d="M15.66 -0.86 C18.83 -0.82, 22.65 1.85, 25.32 4.11 C28 6.38, 31.14 9.79, 31.7 12.72 C32.27 15.66, 30.59 19.19, 28.72 21.7 C26.85 24.22, 23.7 26.69, 20.5 27.83 C17.3 28.96, 12.7 29.53, 9.53 28.52 C6.36 27.51, 3.16 24.43, 1.47 21.76 C-0.22 19.09, -1.46 15.51, -0.63 12.5 C0.2 9.49, 3.25 5.66, 6.44 3.7 C9.62 1.73, 16.11 1.24, 18.48 0.71 C20.85 0.17, 20.8 0.46, 20.66 0.49 M8.58 1.18 C11.56 -0.17, 17.3 0.01, 20.43 1.11 C23.56 2.21, 25.81 5.01, 27.36 7.8 C28.91 10.58, 30.09 15.12, 29.73 17.84 C29.36 20.56, 27.49 21.96, 25.18 24.14 C22.86 26.31, 19.21 30.51, 15.85 30.89 C12.48 31.27, 7.38 28.58, 4.98 26.43 C2.58 24.28, 2.25 21.09, 1.45 17.99 C0.65 14.89, -0.99 10.62, 0.19 7.86 C1.38 5.11, 6.96 2.63, 8.56 1.45 C10.16 0.27, 9.36 0.82, 9.79 0.79" stroke="none" stroke-width="0" fill="#868e96"></path><path d="M18.03 1.14 C21.19 1.67, 25.97 4.15, 28.01 6.4 C30.05 8.66, 30.26 11.6, 30.24 14.65 C30.22 17.71, 29.83 22.19, 27.9 24.73 C25.97 27.28, 21.9 29.31, 18.66 29.92 C15.41 30.54, 11.56 30.27, 8.43 28.43 C5.31 26.59, 1.18 21.9, -0.09 18.91 C-1.37 15.91, -0.71 13.39, 0.8 10.48 C2.31 7.56, 5.63 3.19, 8.98 1.42 C12.32 -0.35, 18.57 -0.3, 20.87 -0.13 C23.17 0.03, 23.09 1.88, 22.8 2.42 M22.69 2.49 C25.68 3.45, 28.49 6.09, 29.56 8.83 C30.63 11.57, 30.03 15.85, 29.12 18.91 C28.22 21.98, 26.53 25.3, 24.13 27.24 C21.73 29.18, 18.12 31, 14.72 30.56 C11.32 30.12, 5.99 26.78, 3.73 24.6 C1.47 22.42, 1.5 20.64, 1.15 17.48 C0.8 14.33, -0.04 8.61, 1.63 5.66 C3.3 2.71, 7.89 0.33, 11.15 -0.23 C14.42 -0.78, 19.47 2.22, 21.23 2.33 C22.98 2.43, 21.72 0.31, 21.7 0.41" stroke="#000000" stroke-width="1" fill="none"></path></g><g stroke-linecap="round"><g transform="translate(657.1717986511946 67.06131760837238) rotate(0 -0.16612720569747808 12.972810915022706)" fill-rule="evenodd"><path d="M0.35 -0.96 L13.66 26.49 L-13.79 24 L1.57 -1.66" stroke="none" stroke-width="0" fill="#868e96" fill-rule="evenodd"></path><path d="M0.77 0.63 C2.83 4.72, 7.6 12.2, 15.54 24.14 M0.69 0.39 C4.55 7.35, 6.19 12.26, 13.52 26.73 M12.04 27.5 C4.07 24.38, -6.84 27.38, -14.56 26.89 M14.04 24.8 C4.06 25.35, -5.96 25.78, -13.88 24.81 M-15.87 24.34 C-11.38 18.21, -8.61 14.53, -0.09 -1.55 M-14.3 25.46 C-10.54 17.27, -5.88 9.75, -0.15 0.67 M0 0 C0 0, 0 0, 0 0 M0 0 C0 0, 0 0, 0 0" stroke="#000000" stroke-width="1" fill="none"></path></g></g><mask></mask><g transform="translate(641.4981356485216 147.597462131876) rotate(0 37.64781951904297 13.200000000000003)"><text x="37.64781951904297" y="0" font-family="Virgil, Segoe UI Emoji" font-size="22.9773197018273px" fill="#000000" text-anchor="middle" style="white-space: pre;" direction="ltr" dominant-baseline="text-before-edge">NACOS</text></g><g stroke-linecap="round" transform="translate(363.71567528039316 396.19150794453714) rotate(0 76.56367859746109 27.31849564979825)"><path d="M12.06 -1.89 L146.44 -0.94 L151.26 7.29 L152.76 8.5 L152.77 47.23 L146.88 53.12 L138.25 55.68 L9.67 54.31 L2.83 53 L-0.52 45.39 L0.53 12.03 L4.48 4.24 L8.54 1.91 L14.64 1.31" stroke="none" stroke-width="0" fill="#ced4da"></path><path d="M13.66 0 M13.66 0 C63.09 1.49, 113.79 -1.34, 139.47 0 M13.66 0 C41.61 0.54, 69.28 0.05, 139.47 0 M139.47 0 C150.38 -0.9, 153.76 2.63, 153.13 13.66 M139.47 0 C149.02 1.72, 151.1 5.55, 153.13 13.66 M153.13 13.66 C152.66 18.89, 151.92 25.47, 153.13 40.98 M153.13 13.66 C153.65 20.9, 152.6 27.86, 153.13 40.98 M153.13 40.98 C152.29 49.25, 147.77 55.59, 139.47 54.64 M153.13 40.98 C154.45 51.21, 146.5 55.87, 139.47 54.64 M139.47 54.64 C105.08 53.4, 74.16 52, 13.66 54.64 M139.47 54.64 C106.54 55.18, 73.53 54.11, 13.66 54.64 M13.66 54.64 C3.49 55.21, 0.48 50.94, 0 40.98 M13.66 54.64 C6.23 54.78, -0.99 50.53, 0 40.98 M0 40.98 C-1.31 33.18, 1.64 28.68, 0 13.66 M0 40.98 C-0.19 31.42, 0.74 20.61, 0 13.66 M0 13.66 C0.55 3.67, 4.82 1.09, 13.66 0 M0 13.66 C-1.4 2.65, 6.42 -1.19, 13.66 0" stroke="#000000" stroke-width="1" fill="none"></path></g><g stroke-linecap="round" transform="translate(406.13123431560257 334.3654388423649) rotate(0 51.76136017856527 49.96409072792065)"><path d="M53.39 0.83 C61.6 0.39, 70.82 2.9, 78.32 7.17 C85.81 11.43, 94.23 18.9, 98.38 26.42 C102.52 33.94, 103.76 44.03, 103.2 52.29 C102.64 60.54, 99.61 68.95, 95 75.96 C90.4 82.97, 83.03 90.29, 75.56 94.35 C68.1 98.41, 58.64 100.65, 50.23 100.33 C41.82 100.01, 32.52 96.86, 25.09 92.42 C17.66 87.97, 9.91 81.14, 5.65 73.65 C1.39 66.15, -0.82 55.93, -0.47 47.45 C-0.11 38.97, 3.22 29.56, 7.78 22.75 C12.35 15.94, 18.42 10.19, 26.95 6.58 C35.48 2.97, 52.95 1.94, 58.95 1.11 C64.95 0.27, 63.2 0.77, 62.96 1.58 M71.44 4.22 C79.43 6.44, 88.91 12.25, 93.99 19.08 C99.07 25.91, 101.14 36.93, 101.91 45.21 C102.67 53.49, 101.84 61.51, 98.58 68.75 C95.33 76, 88.98 83.73, 82.37 88.7 C75.76 93.67, 67.37 97.57, 58.93 98.58 C50.5 99.6, 39.92 97.71, 31.77 94.79 C23.62 91.88, 15.11 87.35, 10.02 81.08 C4.94 74.81, 2.17 65.61, 1.28 57.17 C0.4 48.73, 1.59 38.46, 4.7 30.44 C7.8 22.42, 13.2 13.96, 19.92 9.03 C26.65 4.11, 36.29 1.71, 45.05 0.89 C53.81 0.07, 67.84 3.59, 72.46 4.12 C77.09 4.65, 73.4 3.37, 72.78 4.08" stroke="none" stroke-width="0" fill="#ced4da"></path><path d="M76.25 5.95 C83.78 9.22, 90.72 16.51, 95.16 23.63 C99.6 30.75, 102.33 40.34, 102.88 48.67 C103.44 57.01, 102.48 66.2, 98.49 73.62 C94.5 81.04, 86.49 88.71, 78.96 93.19 C71.42 97.67, 61.82 100.22, 53.27 100.5 C44.72 100.78, 35.15 98.83, 27.68 94.9 C20.21 90.96, 12.97 84.01, 8.43 76.91 C3.9 69.81, 0.78 60.59, 0.46 52.31 C0.14 44.02, 2.39 34.8, 6.52 27.22 C10.64 19.65, 17.96 11.38, 25.19 6.86 C32.42 2.34, 40.78 -0.15, 49.9 0.1 C59.02 0.35, 74.75 6.78, 79.92 8.35 C85.09 9.93, 81.54 9, 80.92 9.55 M62.08 2.4 C70.06 3.26, 79.33 7.81, 85.57 13.18 C91.8 18.55, 96.48 27.02, 99.48 34.63 C102.48 42.24, 104.97 50.88, 103.56 58.84 C102.15 66.79, 97.06 76.01, 91.01 82.35 C84.97 88.69, 75.66 94.31, 67.31 96.9 C58.96 99.49, 49.41 99.66, 40.93 97.89 C32.46 96.11, 22.9 91.5, 16.46 86.25 C10.01 81.01, 4.92 74.08, 2.26 66.43 C-0.4 58.77, -1.24 48.79, 0.49 40.32 C2.22 31.86, 7.04 22.06, 12.64 15.65 C18.24 9.24, 25.92 4.41, 34.1 1.88 C42.28 -0.65, 56.91 0.28, 61.7 0.45 C66.49 0.61, 62.78 2.2, 62.83 2.89" stroke="#000000" stroke-width="1" fill="none"></path></g><g stroke-linecap="round" transform="translate(338.55390297136444 379.65662899861013) rotate(0 35.945389012892576 34.867027342505764)"><path d="M29.22 -0.19 C35.69 -2.11, 45 -0.07, 51.34 2.78 C57.69 5.63, 63.97 10.92, 67.28 16.9 C70.59 22.87, 71.87 31.86, 71.2 38.63 C70.53 45.41, 68.02 52.33, 63.28 57.55 C58.54 62.77, 49.79 68.49, 42.75 69.95 C35.71 71.42, 27.27 69.41, 21.03 66.32 C14.78 63.23, 8.84 57.38, 5.3 51.4 C1.76 45.42, -0.96 37.07, -0.23 30.43 C0.5 23.8, 4.35 16.49, 9.7 11.58 C15.04 6.68, 27.74 2.89, 31.82 1.01 C35.9 -0.87, 34.14 -0.06, 34.18 0.31 M21.17 3.85 C27.32 1.24, 38.01 0.75, 45.05 1.96 C52.09 3.17, 58.99 5.99, 63.41 11.11 C67.83 16.23, 70.8 25.75, 71.56 32.68 C72.32 39.61, 71.5 47.07, 67.98 52.67 C64.45 58.28, 57.07 63.46, 50.42 66.3 C43.77 69.13, 35.16 71.29, 28.07 69.66 C20.99 68.03, 12.37 61.93, 7.92 56.51 C3.46 51.09, 1.96 43.82, 1.36 37.15 C0.75 30.47, 1.07 22.04, 4.28 16.48 C7.5 10.91, 17.83 5.88, 20.65 3.77 C23.46 1.65, 20.93 3.45, 21.18 3.77" stroke="none" stroke-width="0" fill="#ced4da"></path><path d="M34.7 -0.43 C41.56 -1.29, 50.22 1.24, 56.14 5.28 C62.06 9.33, 67.76 17.36, 70.2 23.82 C72.64 30.28, 72.65 37.72, 70.79 44.07 C68.94 50.41, 64.54 57.6, 59.07 61.9 C53.59 66.2, 44.99 69.45, 37.93 69.87 C30.88 70.28, 22.62 68.13, 16.74 64.38 C10.85 60.62, 5.1 53.75, 2.63 47.34 C0.15 40.92, -0.07 32.36, 1.89 25.87 C3.85 19.37, 7.74 12.6, 14.37 8.39 C21 4.17, 35.76 1.29, 41.67 0.59 C47.57 -0.12, 49.63 3.71, 49.78 4.17 M22.38 3.3 C28.53 0.32, 37.7 -0.7, 44.69 0.62 C51.68 1.94, 59.74 6.27, 64.33 11.21 C68.92 16.15, 71.75 23.14, 72.22 30.24 C72.68 37.35, 71.03 47.61, 67.12 53.83 C63.22 60.05, 55.47 65.16, 48.8 67.56 C42.13 69.96, 33.83 69.89, 27.1 68.23 C20.36 66.57, 13.05 62.75, 8.39 57.58 C3.73 52.41, -0.13 44.04, -0.84 37.22 C-1.56 30.41, 0.18 22.53, 4.09 16.7 C7.99 10.86, 19.52 4.52, 22.6 2.23 C25.69 -0.06, 22.68 2.56, 22.61 2.95" stroke="#000000" stroke-width="1" fill="none"></path></g><g stroke-linecap="round" transform="translate(377.37492310528273 351.6192255685537) rotate(0 24.675127042388738 22.18107005087876)"><path d="M12.64 3.1 C17.08 0.87, 25.23 -0.02, 30.32 0.96 C35.41 1.95, 40.07 5.35, 43.18 9.02 C46.29 12.69, 49.14 18.39, 49 22.97 C48.85 27.55, 45.79 32.86, 42.29 36.52 C38.8 40.18, 33.28 44.26, 28.03 44.94 C22.78 45.62, 15.12 43.26, 10.81 40.61 C6.49 37.96, 3.71 33.38, 2.16 29.03 C0.6 24.68, -0.45 19.12, 1.48 14.54 C3.42 9.96, 11.41 3.62, 13.74 1.55 C16.07 -0.51, 15.15 1.69, 15.48 2.17 M33.77 0.71 C38.35 2.15, 42.7 7.14, 45.03 11.3 C47.36 15.45, 48.38 20.8, 47.76 25.65 C47.14 30.51, 45.04 37.25, 41.31 40.42 C37.58 43.6, 30.97 44.99, 25.36 44.71 C19.75 44.43, 11.68 41.73, 7.65 38.76 C3.62 35.79, 1.89 31.5, 1.18 26.91 C0.46 22.31, 0.9 15.46, 3.36 11.21 C5.82 6.96, 10.78 3.2, 15.93 1.42 C21.09 -0.36, 31.6 0.27, 34.29 0.55 C36.97 0.83, 32.46 2.73, 32.05 3.09" stroke="none" stroke-width="0" fill="#ced4da"></path><path d="M12.62 2.81 C16.76 0.5, 23.77 0.01, 29.18 1 C34.59 2, 41.79 4.97, 45.1 8.77 C48.41 12.58, 49.45 19.02, 49.04 23.83 C48.64 28.63, 46.12 34.1, 42.66 37.62 C39.2 41.13, 33.37 44.3, 28.29 44.93 C23.2 45.56, 16.59 43.97, 12.15 41.42 C7.71 38.86, 3.29 34.06, 1.64 29.58 C0 25.1, -0.46 19.42, 2.28 14.54 C5.01 9.66, 14.84 2.6, 18.05 0.29 C21.25 -2.01, 21.41 0.09, 21.5 0.7 M16.4 1.82 C21.33 0.28, 29.08 0.45, 34.02 2.28 C38.95 4.11, 43.66 8.69, 46.02 12.79 C48.39 16.9, 49.43 22.42, 48.22 26.91 C47 31.39, 42.55 37.03, 38.74 39.72 C34.93 42.41, 30.29 43.32, 25.35 43.03 C20.41 42.75, 13.4 41, 9.12 38.01 C4.84 35.02, 0.64 29.82, -0.34 25.11 C-1.31 20.4, 0.57 13.9, 3.27 9.75 C5.97 5.6, 13.64 1.44, 15.84 0.23 C18.04 -0.99, 16.32 1.85, 16.49 2.46" stroke="#000000" stroke-width="1" fill="none"></path></g><g stroke-linecap="round" transform="translate(475.1463812203598 393.3158768235086) rotate(0 30.553580660958687 28.75631121031404)"><path d="M24.7 1.2 C30.85 -0.46, 39.62 -0.27, 45.41 2.47 C51.19 5.22, 57.05 11.92, 59.42 17.66 C61.8 23.4, 61.87 31.01, 59.67 36.9 C57.48 42.79, 51.69 49.77, 46.26 53.01 C40.83 56.26, 33.55 57.07, 27.08 56.39 C20.61 55.7, 11.95 53.4, 7.43 48.91 C2.91 44.42, 0.02 35.88, -0.04 29.45 C-0.09 23.03, 2.96 15.29, 7.11 10.36 C11.25 5.44, 21.57 1.44, 24.85 -0.1 C28.13 -1.65, 26.53 0.39, 26.76 1.08 M30.76 -1.19 C37.08 -1.62, 45.94 1.68, 50.82 6.17 C55.71 10.65, 58.95 19.25, 60.08 25.72 C61.2 32.19, 60.83 40.06, 57.55 44.97 C54.28 49.89, 46.87 53.31, 40.45 55.2 C34.03 57.09, 24.96 58.49, 19.02 56.32 C13.09 54.16, 7.83 47.89, 4.84 42.21 C1.85 36.53, -0.11 28.09, 1.06 22.22 C2.23 16.35, 6.93 10.89, 11.85 6.98 C16.78 3.07, 27.12 -0.04, 30.6 -1.23 C34.07 -2.42, 32.71 -0.8, 32.71 -0.19" stroke="none" stroke-width="0" fill="#ced4da"></path><path d="M34.53 -0.39 C40.82 0.21, 48.99 5.61, 53.46 10.18 C57.92 14.74, 60.94 21.08, 61.33 27.01 C61.72 32.94, 59.7 40.75, 55.81 45.73 C51.92 50.72, 44.38 55.42, 37.98 56.94 C31.58 58.47, 23.28 57.65, 17.42 54.89 C11.56 52.13, 5.41 46.05, 2.82 40.37 C0.23 34.69, -0.08 26.6, 1.88 20.79 C3.85 14.98, 9.15 8.93, 14.61 5.53 C20.08 2.13, 31.03 0.99, 34.68 0.39 C38.33 -0.22, 36.34 1.52, 36.51 1.88 M19.12 2.81 C24.87 0.17, 33.78 -0.6, 40.17 0.98 C46.56 2.57, 53.93 7.37, 57.46 12.32 C61 17.27, 62.32 24.28, 61.37 30.7 C60.42 37.12, 56.84 46.26, 51.77 50.83 C46.7 55.4, 37.69 58.07, 30.95 58.12 C24.22 58.17, 16.47 54.99, 11.36 51.15 C6.25 47.31, 1.8 41.1, 0.29 35.07 C-1.23 29.04, -0.59 20.5, 2.28 14.98 C5.16 9.47, 14.65 4.12, 17.53 2 C20.41 -0.12, 19.12 1.85, 19.58 2.26" stroke="#000000" stroke-width="1" fill="none"></path></g><g stroke-linecap="round" transform="translate(347.6951001440163 388.4926326027293) rotate(0 31.658195109027133 30.81020774003531)"><path d="M25.7 1.15 C31.84 -0.52, 39.83 1.13, 45.66 4.17 C51.5 7.2, 58.14 13.43, 60.69 19.38 C63.24 25.34, 63.06 33.52, 60.99 39.91 C58.92 46.31, 54.02 54.27, 48.25 57.77 C42.48 61.26, 32.9 61.98, 26.36 60.91 C19.82 59.84, 13.46 56.08, 9.03 51.33 C4.59 46.59, 0.22 39.12, -0.27 32.45 C-0.77 25.79, 1.58 16.66, 6.07 11.35 C10.56 6.04, 22.74 2.3, 26.65 0.59 C30.56 -1.11, 29.26 0.66, 29.55 1.13 M23.7 0.62 C29.67 -1.1, 38.83 -0.45, 45.21 2.81 C51.6 6.06, 59.07 13.85, 62.01 20.14 C64.96 26.42, 65.27 34.43, 62.89 40.52 C60.51 46.6, 53.48 52.98, 47.71 56.66 C41.95 60.33, 34.89 63.34, 28.29 62.56 C21.69 61.77, 12.93 57.02, 8.11 51.97 C3.29 46.92, -0.52 39.07, -0.64 32.26 C-0.75 25.44, 3.37 16.12, 7.42 11.07 C11.47 6.01, 20.85 3.69, 23.66 1.93 C26.47 0.16, 24.02 0.38, 24.26 0.47" stroke="none" stroke-width="0" fill="#ced4da"></path><path d="M33.2 0.59 C39.9 0.64, 49.66 4.23, 54.6 8.87 C59.54 13.51, 62.35 21.8, 62.84 28.42 C63.34 35.04, 61.28 43.14, 57.57 48.6 C53.86 54.06, 46.96 59.4, 40.6 61.2 C34.23 63, 25.52 62.11, 19.37 59.39 C13.21 56.68, 6.65 50.79, 3.66 44.9 C0.66 39.01, -0.29 30.69, 1.42 24.07 C3.13 17.44, 7.99 9.07, 13.92 5.15 C19.85 1.22, 32.55 0.95, 37.02 0.51 C41.48 0.07, 40.92 2.14, 40.72 2.5 M28.53 1 C34.89 0.02, 43.41 2.87, 48.87 6.46 C54.34 10.04, 59.6 16.36, 61.33 22.52 C63.06 28.67, 61.65 37.61, 59.25 43.37 C56.85 49.13, 52.65 54.3, 46.93 57.05 C41.21 59.8, 31.83 61.28, 24.94 59.87 C18.05 58.47, 9.77 53.95, 5.58 48.63 C1.39 43.31, -0.59 34.62, -0.21 27.96 C0.17 21.29, 3.2 13.13, 7.86 8.64 C12.51 4.16, 24.44 2.25, 27.72 1.04 C31 -0.18, 27.5 1.17, 27.53 1.37" stroke="#ced4da" stroke-width="1" fill="none"></path></g><g stroke-linecap="round" transform="translate(433.0591619558568 364.74898627095905) rotate(0 38.15943160463098 40.98605616793691)"><path d="M24.79 2.09 C30.67 -0.87, 38.38 0.18, 44.99 1.67 C51.6 3.17, 59.3 6.21, 64.45 11.04 C69.59 15.88, 74.31 23.53, 75.86 30.67 C77.42 37.81, 76.07 46.75, 73.76 53.88 C71.45 61.01, 67.28 68.68, 62.02 73.45 C56.76 78.23, 49.08 81.93, 42.2 82.52 C35.32 83.1, 26.87 80.57, 20.72 76.98 C14.57 73.39, 8.88 67.3, 5.3 60.97 C1.72 54.63, -0.93 46.33, -0.76 38.96 C-0.59 31.58, 1.45 22.84, 6.32 16.72 C11.19 10.6, 24.12 4.75, 28.48 2.24 C32.84 -0.28, 32.54 1.12, 32.49 1.64 M49.42 1.03 C55.67 2.63, 62.99 9.54, 67.26 15.04 C71.53 20.54, 73.9 26.96, 75.03 34.01 C76.16 41.06, 76.91 50.49, 74.05 57.33 C71.19 64.18, 64.07 70.81, 57.86 75.08 C51.66 79.35, 43.72 82.85, 36.82 82.96 C29.92 83.07, 22.22 79.98, 16.46 75.76 C10.71 71.53, 4.78 64.23, 2.29 57.59 C-0.19 50.96, 0.16 43.13, 1.55 35.96 C2.94 28.8, 6.28 20.45, 10.62 14.6 C14.97 8.75, 21.37 3.08, 27.61 0.84 C33.85 -1.4, 44.43 0.83, 48.05 1.16 C51.67 1.5, 49.33 1.92, 49.32 2.84" stroke="none" stroke-width="0" fill="#ced4da"></path><path d="M30.02 2.06 C36.27 -0.04, 44.69 -0.17, 51.23 2.09 C57.77 4.34, 65 9.66, 69.26 15.58 C73.52 21.5, 76.21 30.11, 76.78 37.62 C77.36 45.13, 75.94 54.05, 72.7 60.63 C69.46 67.21, 63.38 73.47, 57.35 77.09 C51.32 80.72, 43.35 82.73, 36.53 82.4 C29.7 82.06, 22.18 79.49, 16.4 75.07 C10.61 70.65, 4.43 62.79, 1.84 55.88 C-0.76 48.98, -0.79 40.97, 0.83 33.61 C2.45 26.26, 6.05 17.38, 11.56 11.77 C17.07 6.16, 29.19 1.69, 33.88 -0.06 C38.58 -1.81, 39.5 0.47, 39.75 1.28 M35.55 -1.31 C41.84 -2.15, 50.66 2.13, 56.42 5.95 C62.19 9.78, 67 15.5, 70.15 21.66 C73.31 27.81, 75.64 35.66, 75.34 42.88 C75.05 50.1, 72.48 59.05, 68.4 64.97 C64.31 70.9, 57.34 75.79, 50.84 78.43 C44.35 81.06, 35.86 82.25, 29.43 80.78 C23 79.32, 16.92 74.85, 12.27 69.64 C7.62 64.44, 3.34 56.9, 1.51 49.56 C-0.33 42.21, -0.89 32.52, 1.25 25.55 C3.4 18.59, 8.84 11.9, 14.38 7.79 C19.91 3.67, 30.87 1.86, 34.47 0.85 C38.08 -0.17, 36.07 0.99, 36 1.69" stroke="#ced4da" stroke-width="1" fill="none"></path></g><g stroke-linecap="round" transform="translate(459.6294328509272 393.58055681667713) rotate(0 36.463456866647334 27.983583176729297)"><path d="M45.34 0.53 C52.05 1.66, 60.34 7.01, 64.79 11.3 C69.24 15.59, 71.53 20.94, 72.05 26.27 C72.56 31.61, 71.69 38.55, 67.86 43.3 C64.03 48.05, 56 52.91, 49.05 54.78 C42.1 56.65, 33.08 56.02, 26.15 54.52 C19.22 53.01, 11.78 49.89, 7.46 45.75 C3.15 41.62, 0.4 35.23, 0.28 29.72 C0.16 24.2, 2.91 17.29, 6.73 12.67 C10.54 8.05, 16.43 4.02, 23.16 2 C29.89 -0.03, 42.84 0.62, 47.1 0.53 C51.37 0.45, 48.95 0.79, 48.76 1.49 M47.88 1.45 C54.4 2.99, 63.3 8.79, 67.45 13.42 C71.59 18.05, 73.24 23.91, 72.77 29.22 C72.31 34.53, 68.87 41.17, 64.66 45.29 C60.45 49.41, 54.48 52.22, 47.52 53.93 C40.57 55.64, 29.93 57.39, 22.94 55.55 C15.94 53.71, 9.47 47.85, 5.57 42.91 C1.68 37.97, -0.93 31.42, -0.43 25.92 C0.08 20.41, 4.1 14.21, 8.6 9.89 C13.1 5.57, 19.93 1.2, 26.57 0.01 C33.21 -1.17, 44.62 2.22, 48.42 2.78 C52.23 3.35, 49.48 3.14, 49.42 3.4" stroke="none" stroke-width="0" fill="#ced4da"></path><path d="M41.11 0.4 C47.96 0.61, 55.35 4.29, 60.45 8 C65.55 11.7, 70.14 17.31, 71.73 22.65 C73.32 27.99, 72.72 35.05, 70 40.04 C67.27 45.02, 61.49 49.85, 55.37 52.57 C49.24 55.29, 40.35 56.87, 33.24 56.36 C26.12 55.85, 17.92 53.38, 12.67 49.52 C7.42 45.65, 3.34 38.61, 1.75 33.15 C0.15 27.7, 0.25 21.55, 3.1 16.78 C5.95 12.02, 12.27 7.44, 18.85 4.59 C25.42 1.73, 38.06 0.2, 42.56 -0.33 C47.06 -0.86, 45.78 0.75, 45.85 1.4 M45.41 1.47 C51.88 2.3, 58.71 6.8, 63.47 10.78 C68.24 14.76, 73.32 20.06, 74.01 25.34 C74.7 30.62, 71.81 37.73, 67.59 42.44 C63.38 47.16, 55.55 51.71, 48.72 53.64 C41.88 55.56, 33.5 55.51, 26.58 53.98 C19.66 52.46, 11.67 48.48, 7.19 44.51 C2.71 40.53, 0.01 35.36, -0.29 30.14 C-0.59 24.92, 1.5 18.07, 5.39 13.18 C9.28 8.29, 16.51 2.92, 23.05 0.78 C29.59 -1.35, 40.91 0.34, 44.61 0.36 C48.31 0.39, 45.06 0.23, 45.27 0.92" stroke="#ced4da" stroke-width="1" fill="none"></path></g><g stroke-linecap="round" transform="translate(395.7477177202113 354.0078129303942) rotate(0 30.52754528370474 30.810207740035338)"><path d="M39.73 0.93 C45.72 2.35, 52.6 7.5, 56.05 13.04 C59.49 18.58, 61.01 27.61, 60.39 34.15 C59.78 40.7, 57.08 47.59, 52.35 52.31 C47.61 57.04, 38.66 62, 31.99 62.49 C25.32 62.99, 17.41 59.48, 12.32 55.29 C7.23 51.1, 3.06 43.8, 1.46 37.34 C-0.13 30.88, -0.11 22.29, 2.75 16.54 C5.61 10.78, 11.74 4.93, 18.63 2.8 C25.53 0.67, 39.3 3.29, 44.12 3.74 C48.95 4.2, 47.85 5.27, 47.59 5.53 M17.87 3.52 C23.62 1.08, 34.04 0.81, 40.47 2.41 C46.91 4.01, 53.11 7.65, 56.47 13.15 C59.83 18.65, 61.29 28.74, 60.64 35.42 C59.99 42.09, 57.25 48.94, 52.57 53.19 C47.89 57.44, 39.25 60.41, 32.55 60.92 C25.85 61.42, 17.81 60.31, 12.36 56.24 C6.92 52.17, 1.18 43.21, -0.13 36.51 C-1.43 29.81, 1.56 21.81, 4.54 16.06 C7.52 10.31, 15.57 4.02, 17.74 2.01 C19.92 0, 17.41 3.41, 17.59 4.01" stroke="none" stroke-width="0" fill="#ced4da"></path><path d="M21.66 1.12 C27.54 -1.36, 37.05 -0.61, 43.15 2 C49.25 4.61, 55.24 10.78, 58.24 16.79 C61.23 22.8, 62.56 31.58, 61.1 38.07 C59.64 44.55, 54.72 51.71, 49.48 55.71 C44.24 59.72, 36.17 62.3, 29.67 62.08 C23.18 61.86, 15.55 58.95, 10.52 54.41 C5.49 49.86, 0.43 41.36, -0.51 34.79 C-1.45 28.22, 0.45 20.79, 4.88 14.96 C9.31 9.13, 22.15 2.22, 26.09 -0.21 C30.03 -2.63, 28.59 -0.27, 28.52 0.41 M36.72 -0.29 C42.87 0.12, 49.99 3.91, 54.09 9.21 C58.19 14.5, 61.54 24.52, 61.34 31.47 C61.14 38.42, 57.21 46.08, 52.88 50.91 C48.56 55.73, 41.67 59.34, 35.38 60.43 C29.09 61.52, 20.87 60.7, 15.14 57.46 C9.41 54.21, 3.42 47.14, 1.01 40.96 C-1.39 34.78, -1.74 26.58, 0.71 20.38 C3.16 14.18, 9.83 7.19, 15.7 3.77 C21.57 0.35, 32.84 0.58, 35.93 -0.13 C39.02 -0.84, 34.53 -0.96, 34.25 -0.47" stroke="#ced4da" stroke-width="1" fill="none"></path></g><g stroke-linecap="round" transform="translate(369.7427717378109 369.83691048490755) rotate(0 42.1167059932593 38.442094060961495)"><path d="M59.44 2.98 C66.4 5.21, 72.57 11.71, 76.59 17.36 C80.61 23.01, 83.37 30.02, 83.54 36.89 C83.72 43.76, 81.42 52.5, 77.65 58.58 C73.89 64.66, 67.54 70.35, 60.94 73.37 C54.34 76.39, 45.7 77.52, 38.05 76.7 C30.4 75.87, 21.11 72.93, 15.03 68.4 C8.95 63.87, 3.85 56.27, 1.57 49.52 C-0.72 42.77, -0.61 34.35, 1.32 27.91 C3.25 21.46, 7.44 15.27, 13.16 10.83 C18.87 6.4, 27.48 2.44, 35.62 1.27 C43.76 0.11, 57.21 2.85, 61.98 3.85 C66.76 4.86, 64.5 6.66, 64.27 7.3 M48.75 -0.54 C55.87 0, 62.82 5.97, 68.32 10.5 C73.81 15.02, 79.4 20.38, 81.7 26.61 C84 32.84, 83.95 41.24, 82.13 47.87 C80.32 54.5, 76.41 61.82, 70.82 66.4 C65.24 70.98, 56.36 73.98, 48.64 75.35 C40.91 76.72, 31.29 77.08, 24.46 74.63 C17.64 72.17, 11.69 66.59, 7.7 60.6 C3.71 54.62, 0.85 46.01, 0.53 38.72 C0.22 31.42, 1.9 22.62, 5.8 16.84 C9.7 11.07, 16.85 6.81, 23.93 4.08 C31.01 1.35, 44.13 1.1, 48.29 0.47 C52.45 -0.17, 49.28 -0.31, 48.9 0.27" stroke="none" stroke-width="0" fill="#ced4da"></path><path d="M52.66 2.18 C59.55 3.41, 67.68 8.04, 72.87 13.14 C78.06 18.24, 82.38 25.99, 83.8 32.79 C85.22 39.59, 84.32 47.6, 81.39 53.93 C78.46 60.26, 72.49 66.84, 66.21 70.77 C59.92 74.71, 51.18 77.57, 43.68 77.53 C36.17 77.49, 27.74 74.23, 21.17 70.53 C14.61 66.84, 7.63 61.34, 4.28 55.37 C0.92 49.4, 0.27 41.74, 1.04 34.72 C1.82 27.69, 4.27 18.71, 8.93 13.2 C13.59 7.7, 21.15 3.48, 29 1.67 C36.84 -0.14, 51.11 2.04, 56.01 2.34 C60.91 2.64, 58.54 2.98, 58.39 3.46 M49.89 -0.84 C57.45 -0.53, 65.48 4.13, 70.84 8.89 C76.21 13.64, 80.2 21, 82.07 27.67 C83.94 34.33, 84.35 42.32, 82.07 48.86 C79.79 55.4, 74.2 62.15, 68.37 66.91 C62.55 71.67, 54.62 76.28, 47.12 77.41 C39.63 78.54, 30.31 77, 23.43 73.71 C16.54 70.43, 9.96 63.77, 5.81 57.69 C1.66 51.61, -1.57 44.07, -1.47 37.21 C-1.37 30.36, 1.86 22.07, 6.42 16.55 C10.99 11.03, 18.76 7, 25.94 4.09 C33.12 1.19, 45.58 -0.31, 49.5 -0.87 C53.41 -1.43, 49.65 0.06, 49.43 0.73" stroke="#ced4da" stroke-width="1" fill="none"></path></g><g transform="translate(387.1048752687079 398.63742024226246) rotate(0 50.298847488113466 17.881176862590024)"><text x="50.298847488113495" y="0" font-family="Virgil, Segoe UI Emoji" font-size="30.59067363531142px" fill="#000000" text-anchor="middle" style="white-space: pre;" direction="ltr" dominant-baseline="text-before-edge">ARANA</text></g><g stroke-linecap="round"><g transform="translate(221.70940594040496 171.4992901859398) rotate(0 59.353186745803015 106.9182450329555)"><path d="M0.93 -0.42 C1.77 19.38, -16.49 83.21, 4.1 119.2 C24.68 155.19, 104.34 199.53, 124.44 215.52 M-0.04 -1.68 C1.23 17.76, -14.35 81.67, 6.23 117.57 C26.8 153.47, 103.64 197.85, 123.42 213.74" stroke="#000000" stroke-width="1" fill="none"></path></g></g><mask></mask><g stroke-linecap="round"><g transform="translate(447.5229527331112 170.267309138872) rotate(0 -0.23200255094775457 80.24695643061186)"><path d="M-1.1 -0.73 C-0.94 25.87, 0.7 133.07, 0.63 160.1 M0.52 1.5 C0.64 28.2, 0.14 134.92, 0.18 161.22" stroke="#000000" stroke-width="1" fill="none"></path></g></g><mask></mask><g stroke-linecap="round"><g transform="translate(680.0603802280284 175.5348979140192) rotate(0 -79.54419672653125 105.1013122096568)"><path d="M0.07 -0.46 C-10.18 21.08, -34.97 94.15, -61.4 129.55 C-87.82 164.95, -142.39 198.42, -158.48 211.94 M-1.35 -1.74 C-11.76 19.41, -35.97 92.41, -62.27 127.67 C-88.58 162.94, -143.31 195.9, -159.16 209.84" stroke="#000000" stroke-width="1" fill="none"></path></g></g><mask></mask><g stroke-linecap="round"><g transform="translate(79.65205784680575 690.4127148772545) rotate(0 38.446567165645476 41.83200764307526)" fill-rule="evenodd"><path d="M-1.63 -1.87 L-1.61 83.1 L1.16 86.41 L17.18 91.33 L41.91 90.61 L63.95 91.9 L76.9 85.64 L75.87 -0.04 L66.49 -5.41 L35.82 -6.09 L9.68 -3.28 L2.49 -2.16 L-1.17 0.24" stroke="none" stroke-width="0" fill="#ced4da" fill-rule="evenodd"></path><path d="M-0.09 -0.86 C0.2 11.45, 1.12 60.81, 1.26 74.72 C1.41 88.64, 0.31 80.39, 0.78 82.64 C1.25 84.89, 1.07 87.01, 4.08 88.2 C7.09 89.39, 12.65 89.03, 18.84 89.77 C25.02 90.51, 33.66 92.53, 41.2 92.63 C48.73 92.72, 58.49 91.35, 64.04 90.34 C69.58 89.33, 72.26 87.8, 74.47 86.58 C76.68 85.36, 76.79 84.89, 77.3 83.02 C77.8 81.14, 77.61 88.17, 77.49 75.35 C77.36 62.53, 76.55 18.87, 76.57 6.1 C76.59 -6.68, 78.3 0.5, 77.63 -1.29 C76.96 -3.07, 75.49 -3.83, 72.57 -4.63 C69.64 -5.43, 65.79 -5.53, 60.08 -6.09 C54.37 -6.65, 45.15 -7.99, 38.3 -8.01 C31.45 -8.03, 24.93 -7.03, 18.96 -6.22 C12.99 -5.42, 5.54 -4.22, 2.49 -3.17 C-0.55 -2.12, 0.91 -0.52, 0.7 0.07 C0.48 0.67, 1.21 0.23, 1.2 0.4 M-1.6 1.31 C-1.34 13.7, 0.51 62.33, 0.84 76.01 C1.18 89.69, -0.18 81.69, 0.41 83.37 C1 85.04, 1.47 84.97, 4.39 86.04 C7.31 87.1, 11.55 88.71, 17.93 89.73 C24.32 90.75, 34.83 92.24, 42.68 92.14 C50.54 92.05, 59.38 90.13, 65.06 89.17 C70.74 88.21, 74.95 87.65, 76.75 86.39 C78.56 85.12, 75.59 82.94, 75.88 81.56 C76.16 80.18, 78.34 90.52, 78.48 78.08 C78.62 65.65, 77.01 19.75, 76.73 6.97 C76.46 -5.8, 78.01 3.56, 76.84 1.43 C75.66 -0.69, 72.08 -4.5, 69.69 -5.79 C67.31 -7.07, 67.6 -5.79, 62.51 -6.26 C57.41 -6.73, 46.78 -8.27, 39.14 -8.61 C31.51 -8.95, 22.47 -9.33, 16.69 -8.3 C10.91 -7.26, 7.29 -3.87, 4.47 -2.4 C1.66 -0.93, 0.47 -0.04, -0.2 0.5 C-0.87 1.05, 0.16 0.97, 0.44 0.86" stroke="#000000" stroke-width="1" fill="none"></path></g></g><mask></mask><g stroke-linecap="round"><g transform="translate(80.17598728508074 747.5389985349844) rotate(0 38.300742055261196 4.578491240067763)"><path d="M-0.86 1.01 C-0.74 1.72, -0.2 3.28, 1.55 4.18 C3.31 5.08, 6.07 5.57, 9.68 6.39 C13.29 7.21, 18.17 8.77, 23.21 9.09 C28.25 9.41, 33.27 8.53, 39.93 8.31 C46.58 8.09, 57.31 8.77, 63.14 7.78 C68.96 6.79, 72.48 3.66, 74.86 2.37 C77.25 1.09, 77.1 0.47, 77.46 0.09 M0.89 0.49 C0.73 0.87, -1.49 1.25, 0.36 2.46 C2.2 3.67, 8.07 6.99, 11.98 7.76 C15.9 8.54, 18.89 6.93, 23.85 7.1 C28.8 7.27, 35.42 8.77, 41.68 8.77 C47.95 8.78, 55.78 7.86, 61.45 7.12 C67.11 6.38, 73.16 5.52, 75.68 4.33 C78.2 3.15, 76.04 0.9, 76.59 0" stroke="#000000" stroke-width="1" fill="none"></path></g></g><mask></mask><g stroke-linecap="round"><g transform="translate(79.14412996257693 718.5749431997614) rotate(0 38.863768545356265 3.7271927698671448)"><path d="M1.01 -0.48 C1.49 0.05, 1.15 1.04, 2.8 2.29 C4.45 3.54, 7.45 6.2, 10.91 7.02 C14.37 7.83, 18.55 6.82, 23.55 7.19 C28.54 7.56, 34.35 9.19, 40.89 9.23 C47.43 9.26, 57.3 8.38, 62.8 7.39 C68.29 6.41, 71.38 4.66, 73.86 3.34 C76.34 2.02, 77.03 0.24, 77.65 -0.53 M0.08 -1.78 C0.47 -1.07, 0.56 2.1, 2.25 3.24 C3.94 4.38, 7.13 4.29, 10.21 5.06 C13.28 5.84, 15.82 7.62, 20.7 7.86 C25.58 8.11, 32.79 6.74, 39.49 6.52 C46.19 6.29, 55.15 7.26, 60.92 6.53 C66.7 5.8, 71.49 3.39, 74.15 2.14 C76.81 0.9, 76.54 -0.67, 76.88 -0.94" stroke="#000000" stroke-width="1" fill="none"></path></g></g><mask></mask><g stroke-linecap="round" transform="translate(78.08618098049487 683.2804462515729) rotate(0 38.29876800932749 7.745637696424012)"><path d="M55.13 0.97 C62.39 1.6, 70.33 3.83, 73.75 5.29 C77.18 6.75, 78.03 8.07, 75.68 9.72 C73.32 11.36, 66.69 14.26, 59.61 15.16 C52.53 16.07, 41.46 15.46, 33.19 15.14 C24.92 14.82, 15.46 14.43, 9.99 13.24 C4.51 12.05, 0.55 9.73, 0.33 8 C0.12 6.27, 3.77 4.25, 8.67 2.88 C13.57 1.52, 20.77 0.07, 29.73 -0.19 C38.69 -0.46, 56.27 0.83, 62.43 1.32 C68.59 1.81, 67.17 2.47, 66.68 2.75 M22.94 1.88 C29.93 1.38, 41.44 0.73, 49.48 0.95 C57.53 1.18, 66.77 2.15, 71.21 3.23 C75.65 4.3, 77.28 5.81, 76.1 7.4 C74.92 8.99, 70.04 11.5, 64.13 12.76 C58.22 14.03, 48.37 14.81, 40.62 15 C32.87 15.18, 24.3 14.97, 17.61 13.87 C10.92 12.77, 2.7 10.18, 0.48 8.4 C-1.74 6.61, 0.81 4.21, 4.29 3.15 C7.77 2.08, 18.11 2.16, 21.35 2.01 C24.6 1.85, 23.26 2.31, 23.77 2.21" stroke="none" stroke-width="0" fill="#fff"></path><path d="M21.91 0.15 C28.65 -0.61, 39.2 0.55, 47.14 1.09 C55.08 1.62, 64.75 2.16, 69.55 3.38 C74.36 4.6, 76.46 6.82, 75.98 8.41 C75.49 10.01, 72.09 11.89, 66.63 12.93 C61.17 13.98, 51.47 14.49, 43.22 14.68 C34.96 14.87, 23.86 14.97, 17.1 14.05 C10.33 13.13, 4.81 10.81, 2.62 9.17 C0.44 7.52, 0.03 5.64, 3.98 4.17 C7.92 2.7, 21.21 1.04, 26.29 0.37 C31.37 -0.3, 34.06 -0.06, 34.47 0.15 M25.8 1.93 C33.07 1.3, 44.46 1.16, 52.34 1.29 C60.21 1.43, 69.35 1.59, 73.04 2.73 C76.74 3.87, 76.33 6.3, 74.53 8.14 C72.73 9.98, 68.29 12.62, 62.23 13.77 C56.17 14.93, 46.23 14.98, 38.17 15.06 C30.11 15.14, 20.27 15.19, 13.87 14.25 C7.47 13.32, 0.97 11.19, -0.21 9.47 C-1.39 7.75, 2.39 5.58, 6.79 3.93 C11.19 2.29, 22.87 0.3, 26.19 -0.38 C29.51 -1.06, 26.63 -0.22, 26.72 -0.15" stroke="#000000" stroke-width="1" fill="none"></path></g><g stroke-linecap="round" transform="translate(114.57816808571738 707.7571139314765) rotate(0 5.613051577080881 6.091879242227776)"><path d="M4.61 0.31 C5.72 0.21, 7.86 0.83, 8.85 1.5 C9.84 2.17, 10.03 3.31, 10.54 4.33 C11.04 5.35, 12.24 6.5, 11.86 7.61 C11.47 8.72, 9.39 10.2, 8.25 11 C7.11 11.8, 6.17 12.39, 5.01 12.4 C3.84 12.41, 2.13 12.09, 1.27 11.07 C0.4 10.05, -0.12 7.57, -0.19 6.27 C-0.27 4.96, -0.13 4.17, 0.83 3.24 C1.78 2.32, 4.46 1.15, 5.52 0.72 C6.58 0.29, 7 0.8, 7.17 0.64 M7.64 1.19 C9.03 1.43, 9.93 2.79, 10.51 3.53 C11.1 4.26, 11.39 4.75, 11.12 5.62 C10.86 6.49, 9.75 7.84, 8.94 8.77 C8.12 9.7, 7.3 10.53, 6.22 11.21 C5.14 11.89, 3.45 13.45, 2.44 12.84 C1.44 12.22, 0.76 8.85, 0.18 7.51 C-0.4 6.17, -1.23 6.02, -1.03 4.77 C-0.82 3.51, -0.06 0.56, 1.41 -0.02 C2.87 -0.61, 6.7 1.13, 7.76 1.27 C8.83 1.4, 8.04 0.91, 7.81 0.78" stroke="none" stroke-width="0" fill="#868e96"></path><path d="M5.19 0.12 C6.38 0.05, 9.26 1.44, 10.3 2.21 C11.34 2.98, 11.41 3.49, 11.45 4.75 C11.5 6.01, 11.29 8.53, 10.58 9.78 C9.86 11.03, 8.49 11.99, 7.17 12.27 C5.86 12.55, 3.82 11.87, 2.7 11.47 C1.58 11.07, 1.01 10.84, 0.45 9.87 C-0.11 8.9, -0.89 7.22, -0.68 5.64 C-0.48 4.07, 0.54 1.21, 1.68 0.41 C2.82 -0.39, 5.39 0.78, 6.15 0.84 C6.92 0.89, 6.21 0.89, 6.28 0.74 M7.22 0.5 C8.35 0.64, 9.65 2.3, 10.1 2.85 C10.55 3.39, 10.06 2.74, 9.94 3.75 C9.81 4.77, 9.78 7.52, 9.37 8.92 C8.96 10.33, 8.49 11.64, 7.46 12.2 C6.42 12.77, 4.18 12.97, 3.16 12.33 C2.14 11.68, 1.76 9.32, 1.33 8.32 C0.9 7.32, 0.43 7.4, 0.58 6.33 C0.73 5.26, 1.51 2.81, 2.24 1.89 C2.96 0.97, 4.45 1.15, 4.91 0.82 C5.37 0.5, 5.05 -0.25, 4.99 -0.05" stroke="#000000" stroke-width="1" fill="none"></path></g><g stroke-linecap="round" transform="translate(114.92930986965098 733.9737282185416) rotate(0 5.613051577080881 6.091879242227776)"><path d="M7.27 0.78 C8.62 0.96, 10.25 1.19, 10.99 2.32 C11.72 3.45, 11.99 6.26, 11.68 7.56 C11.38 8.86, 10.14 9.32, 9.16 10.12 C8.18 10.92, 6.88 12.25, 5.8 12.38 C4.72 12.51, 3.44 11.75, 2.66 10.92 C1.88 10.1, 1.48 8.75, 1.12 7.45 C0.77 6.15, 0.03 4.3, 0.54 3.1 C1.06 1.91, 2.88 0.71, 4.2 0.29 C5.52 -0.12, 7.73 0.36, 8.48 0.59 C9.22 0.83, 8.96 1.57, 8.66 1.7 M5.17 0.92 C6.37 0.29, 8.47 0.18, 9.33 0.42 C10.19 0.66, 10.21 1.25, 10.31 2.36 C10.41 3.46, 10.3 5.7, 9.92 7.07 C9.55 8.43, 8.61 9.73, 8.07 10.54 C7.52 11.36, 7.83 12.2, 6.64 11.97 C5.45 11.74, 1.93 10.25, 0.94 9.16 C-0.06 8.07, 0.82 6.31, 0.67 5.45 C0.52 4.59, -0.72 4.63, 0.05 3.99 C0.81 3.35, 4.48 2.21, 5.25 1.6 C6.02 0.98, 4.88 0.62, 4.67 0.33" stroke="none" stroke-width="0" fill="#868e96"></path><path d="M7.44 1.17 C8.5 1.63, 10.43 2.11, 10.96 3.11 C11.48 4.11, 10.81 5.92, 10.61 7.15 C10.42 8.38, 10.53 9.77, 9.79 10.48 C9.06 11.2, 7.51 11.38, 6.2 11.42 C4.89 11.47, 2.78 11.55, 1.93 10.74 C1.09 9.93, 1.18 7.9, 1.11 6.57 C1.04 5.24, 1.27 3.75, 1.53 2.73 C1.79 1.72, 1.46 0.88, 2.65 0.49 C3.83 0.11, 7.61 0.28, 8.64 0.43 C9.66 0.58, 9.1 1.27, 8.82 1.38 M7.81 1.08 C9.12 0.93, 11.37 0.81, 11.7 1.61 C12.02 2.4, 10.21 4.35, 9.78 5.85 C9.34 7.36, 9.67 9.64, 9.08 10.62 C8.48 11.61, 7.25 11.59, 6.19 11.75 C5.14 11.9, 3.87 12.2, 2.74 11.55 C1.61 10.91, -0.47 9.23, -0.58 7.87 C-0.7 6.51, 1.29 4.78, 2.06 3.41 C2.83 2.04, 3.01 0.28, 4.02 -0.36 C5.03 -1, 7.62 -0.38, 8.13 -0.44 C8.65 -0.51, 7.04 -0.93, 7.1 -0.73" stroke="#000000" stroke-width="1" fill="none"></path></g><g stroke-linecap="round" transform="translate(115.57816808571738 762.742454789848) rotate(357.5021844865888 5.613051577080881 6.091879242227776)"><path d="M4.55 1.02 C5.56 0.64, 6.36 0.65, 7.52 0.97 C8.69 1.29, 11 1.9, 11.54 2.93 C12.08 3.97, 11.17 5.81, 10.78 7.2 C10.39 8.59, 10.13 10.27, 9.19 11.25 C8.26 12.24, 6.43 13.23, 5.16 13.11 C3.89 12.99, 2.49 11.44, 1.58 10.54 C0.66 9.65, -0.2 8.93, -0.35 7.75 C-0.51 6.58, -0.24 4.71, 0.65 3.47 C1.54 2.24, 4.02 1.07, 5.01 0.37 C6 -0.33, 6.54 -0.69, 6.58 -0.74 M7.57 1.61 C8.49 1.57, 9.57 1.48, 10 2.1 C10.44 2.71, 10.3 4.07, 10.17 5.29 C10.04 6.5, 9.95 8.02, 9.23 9.4 C8.5 10.78, 6.96 13.38, 5.82 13.54 C4.67 13.71, 3.49 11.25, 2.35 10.41 C1.2 9.56, -0.55 9.76, -1.08 8.5 C-1.61 7.23, -1.75 3.9, -0.84 2.79 C0.07 1.69, 2.86 2.19, 4.37 1.85 C5.89 1.51, 7.83 1.04, 8.24 0.75 C8.66 0.45, 7.24 0.23, 6.84 0.07" stroke="none" stroke-width="0" fill="#868e96"></path><path d="M8.94 1.21 C10.16 1.56, 10.62 1.87, 11.01 3.03 C11.39 4.19, 11.65 6.74, 11.25 8.15 C10.86 9.56, 9.82 10.87, 8.66 11.49 C7.5 12.12, 5.5 11.93, 4.29 11.9 C3.08 11.88, 2.26 12.07, 1.41 11.32 C0.56 10.57, -0.66 9.03, -0.81 7.43 C-0.95 5.82, -0.31 2.76, 0.53 1.69 C1.38 0.62, 2.86 0.97, 4.27 1 C5.68 1.03, 7.98 1.76, 9 1.85 C10.02 1.95, 10.4 1.5, 10.36 1.59 M6.69 1.35 C7.38 1.02, 7.63 -0.38, 8.21 0.23 C8.78 0.84, 9.78 3.43, 10.14 5.02 C10.5 6.6, 10.91 8.5, 10.36 9.74 C9.81 10.99, 7.88 12.26, 6.84 12.46 C5.79 12.67, 5.03 11.35, 4.07 10.99 C3.11 10.63, 1.72 11.24, 1.09 10.29 C0.46 9.34, 0.23 6.65, 0.28 5.28 C0.34 3.91, 0.59 2.96, 1.41 2.06 C2.22 1.15, 4.6 -0.08, 5.16 -0.17 C5.72 -0.26, 4.66 1.14, 4.76 1.51" stroke="#000000" stroke-width="1" fill="none"></path></g><g transform="translate(46.65504660264412 784.3325963886908) rotate(0 71.14651489257812 10.199999999999989)"><text x="71.14651489257812" y="0" font-family="Virgil, Segoe UI Emoji" font-size="17.4778970902999px" fill="#000000" text-anchor="middle" style="white-space: pre;" direction="ltr" dominant-baseline="text-before-edge">MySQL-0000-RW</text></g><g stroke-linecap="round"><g transform="translate(236.02577124922004 689.3597369847989) rotate(0 38.204014711311885 41.36453145239307)" fill-rule="evenodd"><path d="M-0.12 0.62 L1.69 82.47 L2.32 87.12 L16.23 92.34 L40.93 93.28 L65.21 91.81 L76.96 84.52 L75.74 -2.46 L65.74 -3.52 L38.69 -8.52 L11.24 -5.05 L2.72 -4.76 L0.77 0.67" stroke="none" stroke-width="0" fill="#ced4da" fill-rule="evenodd"></path><path d="M-0.36 0.82 C-0.6 13.23, -0.49 61.26, -0.47 75.19 C-0.44 89.11, -1.04 82.39, -0.21 84.37 C0.62 86.36, 1.36 86.25, 4.5 87.09 C7.64 87.93, 12.43 88.55, 18.65 89.42 C24.87 90.29, 34.2 92.25, 41.82 92.3 C49.44 92.34, 58.9 90.8, 64.35 89.67 C69.81 88.54, 72.39 86.43, 74.53 85.51 C76.67 84.58, 76.91 85.61, 77.19 84.12 C77.47 82.63, 76.45 89.67, 76.2 76.55 C75.95 63.43, 75.83 18.33, 75.69 5.39 C75.56 -7.56, 75.96 0.33, 75.4 -1.11 C74.85 -2.54, 74.58 -2.47, 72.36 -3.23 C70.14 -3.99, 67.75 -4.79, 62.09 -5.69 C56.42 -6.6, 45.88 -8.63, 38.39 -8.65 C30.9 -8.68, 22.85 -6.88, 17.16 -5.85 C11.48 -4.82, 7.3 -3.45, 4.28 -2.49 C1.26 -1.54, -0.16 -0.53, -0.96 -0.1 C-1.76 0.33, -0.6 -0.06, -0.54 0.08 M1.64 0.2 C1.72 12.75, 2.32 63.03, 1.86 76.72 C1.41 90.41, -1.62 80.47, -1.09 82.35 C-0.56 84.23, 1.9 86.86, 5.03 88 C8.15 89.14, 11.83 88.59, 17.65 89.19 C23.48 89.8, 32.6 91.2, 39.97 91.64 C47.34 92.08, 55.73 92.95, 61.88 91.81 C68.03 90.66, 74.54 86.19, 76.85 84.76 C79.15 83.33, 75.76 84.66, 75.71 83.25 C75.66 81.83, 76.58 89.14, 76.53 76.25 C76.47 63.36, 75.3 18.92, 75.4 5.89 C75.49 -7.15, 77.49 -0.36, 77.1 -1.95 C76.71 -3.54, 75.58 -3.04, 73.05 -3.65 C70.51 -4.27, 68.15 -4.66, 61.91 -5.65 C55.67 -6.64, 43 -9.25, 35.62 -9.59 C28.24 -9.94, 22.96 -8.49, 17.61 -7.73 C12.26 -6.97, 6.32 -6.35, 3.54 -5.02 C0.76 -3.7, 1.28 -0.67, 0.94 0.23 C0.59 1.14, 1.67 0.53, 1.46 0.38" stroke="#000000" stroke-width="1" fill="none"></path></g></g><mask></mask><g stroke-linecap="round"><g transform="translate(236.54970068749503 746.486020642529) rotate(0 39.156903747441504 4.503620092383699)"><path d="M0.82 -0.72 C1.03 -0.13, 0.25 1.94, 2.02 3.19 C3.79 4.45, 8.07 5.85, 11.41 6.81 C14.76 7.76, 17.4 8.55, 22.1 8.91 C26.79 9.26, 32.79 9.07, 39.57 8.93 C46.36 8.8, 57.04 9.18, 62.81 8.1 C68.58 7.02, 71.93 3.79, 74.19 2.43 C76.46 1.08, 75.74 0.59, 76.39 -0.02 M-0.21 1.51 C-0.22 2.32, -0.8 4.08, 1.07 4.61 C2.93 5.15, 7.45 4.37, 10.97 4.74 C14.48 5.11, 17.12 5.99, 22.15 6.82 C27.18 7.65, 34.68 9.59, 41.15 9.72 C47.61 9.85, 55.36 8.48, 60.94 7.6 C66.53 6.72, 71.71 5.72, 74.66 4.43 C77.6 3.13, 78.23 0.47, 78.62 -0.17" stroke="#000000" stroke-width="1" fill="none"></path></g></g><mask></mask><g stroke-linecap="round"><g transform="translate(235.51784336499122 717.5219653073059) rotate(0 38.41004443743233 4.317675237280298)"><path d="M-0.72 -0.01 C-0.36 0.52, -0.2 3.04, 1.81 4.02 C3.82 5.01, 7.74 5.44, 11.33 5.9 C14.92 6.37, 18.34 6.34, 23.37 6.84 C28.4 7.34, 34.88 8.92, 41.51 8.9 C48.13 8.88, 57.71 7.83, 63.11 6.72 C68.51 5.62, 71.52 3.29, 73.92 2.27 C76.33 1.24, 77.14 0.97, 77.54 0.58 M1.1 -1.07 C1.32 -0.95, -0.87 0.87, 0.75 2.22 C2.37 3.57, 6.95 6.18, 10.84 7.03 C14.73 7.88, 19.15 6.88, 24.09 7.33 C29.02 7.77, 34.22 9.98, 40.44 9.67 C46.66 9.37, 55.77 6.42, 61.41 5.51 C67.04 4.59, 71.69 4.97, 74.24 4.17 C76.79 3.38, 76.11 1.66, 76.71 0.74" stroke="#000000" stroke-width="1" fill="none"></path></g></g><mask></mask><g stroke-linecap="round" transform="translate(234.45989438290917 682.2274683591174) rotate(0 38.29876800932749 7.745637696424012)"><path d="M39.87 0.34 C47.75 0.56, 57.98 1.91, 63.95 2.83 C69.91 3.75, 74.44 4.47, 75.66 5.85 C76.88 7.23, 75.66 9.39, 71.27 11.1 C66.87 12.8, 57.2 15.29, 49.3 16.08 C41.4 16.86, 31.32 16.46, 23.85 15.79 C16.38 15.11, 8.31 13.67, 4.5 12.02 C0.69 10.36, -0.82 7.61, 1.01 5.86 C2.84 4.1, 7.8 2.5, 15.49 1.49 C23.18 0.49, 40.82 0.09, 47.15 -0.19 C53.47 -0.46, 53.6 -0.36, 53.43 -0.14 M45.36 -1.37 C53.01 -1.09, 60.53 1.79, 65.74 3.33 C70.96 4.87, 76.24 6.34, 76.65 7.85 C77.06 9.36, 73.16 11.32, 68.22 12.39 C63.28 13.46, 55.05 13.72, 47.02 14.27 C38.98 14.83, 27.42 16.42, 19.99 15.73 C12.55 15.04, 5.56 11.67, 2.39 10.12 C-0.78 8.57, -1.97 7.78, 0.98 6.44 C3.94 5.1, 12.86 3.1, 20.1 2.07 C27.33 1.05, 40.35 0.37, 44.39 0.3 C48.42 0.22, 44.41 1.57, 44.3 1.62" stroke="none" stroke-width="0" fill="#fff"></path><path d="M48.7 -0.73 C56.4 -0.27, 65.38 2.4, 70.15 3.87 C74.92 5.33, 78.18 6.64, 77.34 8.08 C76.49 9.53, 70.91 11.17, 65.06 12.53 C59.21 13.9, 50.42 15.96, 42.22 16.26 C34.02 16.57, 22.82 15.57, 15.85 14.36 C8.88 13.16, 2.61 10.79, 0.4 9.03 C-1.81 7.28, -1.1 5.12, 2.6 3.85 C6.3 2.58, 14.16 1.88, 22.58 1.39 C31.01 0.89, 47.42 1.06, 53.15 0.9 C58.89 0.75, 57.53 0.26, 57.01 0.46 M53.42 -0.03 C60.64 0.58, 68.79 2, 72.64 3.58 C76.48 5.16, 78.32 7.48, 76.48 9.45 C74.65 11.42, 68.49 14.23, 61.61 15.39 C54.74 16.54, 43.37 16.91, 35.25 16.38 C27.13 15.85, 18.49 13.54, 12.87 12.23 C7.26 10.93, 2.45 9.76, 1.57 8.54 C0.69 7.32, 3.08 6.24, 7.6 4.9 C12.12 3.56, 21.09 1.37, 28.69 0.51 C36.29 -0.35, 49.28 -0.11, 53.2 -0.28 C57.12 -0.45, 52.19 -0.96, 52.2 -0.52" stroke="#000000" stroke-width="1" fill="none"></path></g><g stroke-linecap="round" transform="translate(270.9518814881317 706.704136039021) rotate(0 5.613051577080881 6.091879242227776)"><path d="M5.14 0.2 C6.53 -0.21, 8.59 -0.37, 9.42 0.37 C10.26 1.1, 10.04 3.42, 10.16 4.58 C10.27 5.75, 10.25 6.26, 10.1 7.36 C9.95 8.47, 10.05 10.44, 9.25 11.22 C8.45 11.99, 6.56 12.2, 5.33 12.01 C4.09 11.81, 2.76 10.94, 1.82 10.07 C0.88 9.21, -0.21 8.05, -0.31 6.8 C-0.4 5.55, 0.29 3.66, 1.25 2.57 C2.22 1.48, 4.69 0.61, 5.47 0.28 C6.25 -0.06, 5.84 0.47, 5.93 0.58 M2.81 -1.32 C4.03 -1.85, 7.39 -0.17, 8.75 0.68 C10.12 1.54, 10.65 2.4, 10.98 3.83 C11.32 5.26, 11.32 7.99, 10.76 9.26 C10.21 10.53, 8.41 11, 7.65 11.46 C6.9 11.92, 7.3 12.39, 6.22 12.01 C5.13 11.64, 2 9.86, 1.17 9.19 C0.34 8.51, 1.09 9.08, 1.24 7.97 C1.39 6.86, 1.52 3.82, 2.06 2.54 C2.6 1.25, 3.88 0.62, 4.48 0.25 C5.08 -0.12, 5.73 0.03, 5.67 0.29" stroke="none" stroke-width="0" fill="#868e96"></path><path d="M5.87 0.78 C7.15 1, 9.84 2.41, 10.68 3.26 C11.53 4.11, 11.2 4.65, 10.94 5.86 C10.67 7.07, 9.72 9.6, 9.09 10.53 C8.46 11.46, 8.18 11.48, 7.14 11.43 C6.09 11.38, 4.1 10.98, 2.83 10.24 C1.55 9.51, 0 8, -0.51 7.03 C-1.03 6.07, -0.94 5.38, -0.24 4.46 C0.46 3.54, 2.27 2.04, 3.67 1.52 C5.07 1, 7.44 1.6, 8.16 1.37 C8.89 1.14, 7.97 0.08, 8.02 0.16 M6.62 0.38 C7.8 0.84, 8.9 2.57, 9.64 3.73 C10.39 4.89, 10.89 6.33, 11.09 7.34 C11.29 8.35, 11.56 8.83, 10.84 9.78 C10.12 10.73, 8.41 12.64, 6.78 13.06 C5.15 13.47, 2.19 12.97, 1.07 12.25 C-0.06 11.52, -0.12 9.98, 0.04 8.71 C0.2 7.44, 1.44 6.07, 2.04 4.64 C2.64 3.22, 2.92 1.07, 3.64 0.17 C4.36 -0.72, 5.99 -0.96, 6.37 -0.72 C6.76 -0.47, 5.66 1.45, 5.96 1.64" stroke="#000000" stroke-width="1" fill="none"></path></g><g stroke-linecap="round" transform="translate(271.3030232720653 732.9207503260861) rotate(0 5.613051577080881 6.091879242227776)"><path d="M3.64 1.31 C4.52 0.58, 5.61 -0.63, 6.8 -0.49 C7.99 -0.35, 10.21 0.73, 10.78 2.13 C11.34 3.53, 10.47 6.35, 10.19 7.91 C9.92 9.46, 9.87 10.65, 9.13 11.46 C8.39 12.28, 6.89 12.93, 5.76 12.79 C4.63 12.64, 3.16 11.52, 2.36 10.59 C1.57 9.65, 1.21 8.48, 1.01 7.2 C0.81 5.91, 0.62 4.18, 1.18 2.86 C1.74 1.55, 3.73 -0.28, 4.37 -0.69 C5.01 -1.1, 5 0.23, 5.04 0.4 M3.84 0.67 C4.81 0.81, 7.82 0.83, 9.06 1.47 C10.3 2.11, 10.77 3.44, 11.28 4.5 C11.78 5.55, 12.6 6.39, 12.07 7.79 C11.54 9.2, 9.47 12.3, 8.1 12.92 C6.72 13.54, 5.21 11.91, 3.83 11.52 C2.44 11.14, 0.16 11.5, -0.22 10.63 C-0.61 9.76, 1.18 7.78, 1.52 6.31 C1.86 4.84, 1.19 2.65, 1.84 1.83 C2.49 1.01, 4.82 1.71, 5.41 1.37 C5.99 1.04, 5.17 0.15, 5.33 -0.18" stroke="none" stroke-width="0" fill="#868e96"></path><path d="M5.38 0.68 C6.52 0.53, 8.54 0.13, 9.37 0.59 C10.21 1.06, 10.11 2.05, 10.41 3.47 C10.71 4.89, 11.62 7.73, 11.16 9.09 C10.69 10.46, 8.89 11.3, 7.62 11.67 C6.35 12.04, 4.76 11.7, 3.56 11.3 C2.35 10.9, 0.84 10.03, 0.37 9.24 C-0.1 8.46, 0.41 7.74, 0.72 6.61 C1.03 5.48, 1.19 3.65, 2.22 2.45 C3.25 1.25, 6.22 -0.38, 6.89 -0.59 C7.57 -0.79, 6.29 0.92, 6.27 1.22 M3.62 -0.26 C4.82 -0.69, 7.08 -0.54, 8.28 0.21 C9.49 0.97, 10.5 3.03, 10.85 4.3 C11.2 5.57, 10.48 6.99, 10.38 7.86 C10.28 8.72, 10.78 8.78, 10.24 9.49 C9.69 10.19, 8.24 11.61, 7.11 12.08 C5.97 12.55, 4.37 13.06, 3.43 12.3 C2.49 11.54, 1.98 9.2, 1.47 7.53 C0.96 5.87, 0.19 3.7, 0.37 2.31 C0.54 0.91, 1.79 -0.74, 2.53 -0.86 C3.27 -0.98, 4.68 1.09, 4.81 1.58" stroke="#000000" stroke-width="1" fill="none"></path></g><g stroke-linecap="round" transform="translate(271.9518814881317 761.6894768973925) rotate(357.5021844865888 5.613051577080881 6.091879242227776)"><path d="M7.55 -0.43 C8.5 -0.22, 8.7 1.73, 9.19 2.67 C9.68 3.61, 10.23 4.03, 10.5 5.23 C10.77 6.42, 11.35 8.71, 10.82 9.85 C10.29 10.99, 8.58 11.78, 7.33 12.06 C6.09 12.33, 4.55 12.03, 3.33 11.51 C2.1 11, 0.51 10.14, 0 8.96 C-0.52 7.78, -0.21 5.75, 0.21 4.43 C0.63 3.11, 1.55 1.69, 2.52 1.03 C3.5 0.38, 5.26 0.55, 6.08 0.5 C6.9 0.44, 7.41 0.68, 7.46 0.71 M8.14 0.4 C9.53 1.03, 10.22 1.83, 10.68 3.19 C11.14 4.55, 11.33 7.25, 10.91 8.56 C10.5 9.86, 8.85 10.44, 8.18 11.03 C7.51 11.61, 7.96 12.28, 6.88 12.05 C5.79 11.83, 2.58 10.24, 1.65 9.67 C0.73 9.11, 1.31 9.77, 1.32 8.68 C1.33 7.59, 1.28 4.51, 1.7 3.14 C2.12 1.77, 2.65 0.93, 3.85 0.46 C5.04 0, 8.3 0.17, 8.85 0.34 C9.4 0.52, 7.6 1.56, 7.14 1.49" stroke="none" stroke-width="0" fill="#868e96"></path><path d="M8.27 1.28 C9.48 1.47, 9.89 1.61, 10.26 2.67 C10.63 3.72, 10.52 6.36, 10.47 7.61 C10.41 8.86, 10.71 9.55, 9.92 10.15 C9.13 10.75, 7.18 11.27, 5.72 11.21 C4.25 11.14, 2.18 10.37, 1.13 9.78 C0.07 9.2, -0.67 8.72, -0.61 7.72 C-0.55 6.71, 0.66 4.84, 1.46 3.75 C2.26 2.67, 3.16 1.86, 4.19 1.21 C5.23 0.55, 6.78 -0.33, 7.69 -0.19 C8.6 -0.05, 9.5 1.93, 9.65 2.05 M4.78 0.93 C6.02 0.88, 7.74 1.27, 9.03 1.8 C10.32 2.33, 12.14 2.75, 12.54 4.1 C12.94 5.45, 12.45 8.39, 11.44 9.89 C10.44 11.39, 7.8 12.53, 6.51 13.08 C5.23 13.62, 4.44 13.56, 3.72 13.15 C3.01 12.74, 2.81 11.99, 2.24 10.61 C1.66 9.23, 0.46 6.56, 0.25 4.88 C0.04 3.2, 0.33 1.13, 0.99 0.53 C1.65 -0.08, 3.26 1.39, 4.18 1.25 C5.1 1.11, 6.11 -0.23, 6.51 -0.32" stroke="#000000" stroke-width="1" fill="none"></path></g><g transform="translate(203.2034578810351 783.2796184962353) rotate(0 70.97181701660156 10.199999999999989)"><text x="70.97181701660156" y="0" font-family="Virgil, Segoe UI Emoji" font-size="17.4778970902999px" fill="#000000" text-anchor="middle" style="white-space: pre;" direction="ltr" dominant-baseline="text-before-edge">MySQL-0000-RO</text></g><g stroke-linecap="round" transform="translate(10 648.0184949171265) rotate(0 183.12733759887607 91.01515522414951)"><path d="M32 0 M32 0 C92.66 -2.17, 156.92 -2.26, 334.25 0 M334.25 0 C354.89 0.59, 366.93 8.88, 366.25 32 M366.25 32 C365.31 57.02, 366.23 81.5, 366.25 150.03 M366.25 150.03 C364.34 170.97, 354.16 181.68, 334.25 182.03 M334.25 182.03 C220.53 181.29, 106.18 179.71, 32 182.03 M32 182.03 C11.14 181.24, -1.38 172.62, 0 150.03 M0 150.03 C1.64 119.66, -0.04 88.25, 0 32 M0 32 C-1.31 12.58, 10.46 0.07, 32 0" stroke="#000000" stroke-width="1.5" fill="none" stroke-dasharray="8 9"></path></g><g stroke-linecap="round"><g transform="translate(597.1102239981057 691.8956734349459) rotate(0 38.07580538591344 41.84421267049805)" fill-rule="evenodd"><path d="M1.01 -1.37 L0.31 83.21 L1.33 85.66 L18.28 88.89 L41.67 90.82 L62.79 89.5 L77.75 86.83 L76.35 -0.89 L67.24 -5.23 L37.12 -8.85 L8.33 -4.01 L4.91 -3.14 L-1.57 0.92" stroke="none" stroke-width="0" fill="#ced4da" fill-rule="evenodd"></path><path d="M0.15 0.29 C0.22 12.68, 1.11 60.47, 1.01 74.24 C0.92 88.02, -0.97 80.73, -0.4 82.95 C0.17 85.16, 1.38 86.21, 4.43 87.52 C7.48 88.83, 11.63 90.08, 17.91 90.83 C24.18 91.57, 34.56 92.26, 42.08 92 C49.6 91.75, 57.56 90.08, 63.05 89.29 C68.53 88.5, 72.6 88.44, 75.01 87.26 C77.41 86.09, 77.12 83.9, 77.47 82.23 C77.81 80.57, 77.16 89.97, 77.09 77.27 C77.01 64.58, 76.98 18.86, 76.99 6.07 C77 -6.72, 78.08 2.01, 77.14 0.53 C76.19 -0.96, 74.09 -1.6, 71.32 -2.84 C68.54 -4.08, 65.98 -6.13, 60.49 -6.9 C55 -7.68, 45.49 -7.63, 38.37 -7.49 C31.25 -7.36, 23.58 -6.69, 17.74 -6.09 C11.9 -5.48, 6.25 -4.7, 3.31 -3.87 C0.37 -3.04, 0.71 -1.63, 0.12 -1.1 C-0.47 -0.57, -0.1 -0.88, -0.24 -0.67 M-1.23 -0.6 C-1.3 11.92, 0.49 61.2, 0.46 75.28 C0.44 89.35, -2.13 81.61, -1.39 83.83 C-0.64 86.06, 1.94 87.4, 4.92 88.65 C7.9 89.91, 10.61 90.92, 16.52 91.34 C22.42 91.76, 32.53 91.21, 40.37 91.19 C48.21 91.17, 57.96 91.85, 63.55 91.22 C69.14 90.6, 71.81 88.63, 73.91 87.43 C76.01 86.24, 75.48 85.71, 76.14 84.03 C76.8 82.35, 77.67 90.2, 77.87 77.35 C78.08 64.5, 77.68 19.73, 77.38 6.93 C77.08 -5.87, 77.07 2.2, 76.09 0.54 C75.1 -1.13, 74.22 -1.72, 71.45 -3.06 C68.68 -4.4, 65.45 -6.71, 59.47 -7.5 C53.5 -8.29, 42.42 -7.72, 35.59 -7.82 C28.76 -7.92, 24.08 -8.81, 18.49 -8.09 C12.9 -7.36, 5.32 -4.6, 2.06 -3.47 C-1.2 -2.33, -0.44 -1.74, -1.08 -1.29 C-1.71 -0.84, -1.84 -0.73, -1.75 -0.77" stroke="#000000" stroke-width="1" fill="none"></path></g></g><mask></mask><g stroke-linecap="round"><g transform="translate(597.6341534363806 749.0219570926757) rotate(0 38.56865070935771 4.741676302985866)"><path d="M0.29 0.76 C0.49 1.23, -0.54 2, 1.07 3 C2.69 3.99, 6.41 5.88, 9.98 6.74 C13.56 7.6, 17.36 7.75, 22.53 8.16 C27.69 8.57, 34.32 9.42, 40.98 9.19 C47.64 8.96, 57.04 7.84, 62.51 6.79 C67.99 5.74, 71.21 4, 73.81 2.91 C76.42 1.82, 77.74 0.8, 78.15 0.26 M-1.01 0.11 C-0.44 0.74, 1.04 3.56, 3.28 4.32 C5.53 5.07, 9.2 3.8, 12.45 4.64 C15.7 5.47, 18.27 9.04, 22.8 9.35 C27.33 9.65, 33.35 7.08, 39.63 6.46 C45.91 5.84, 54.75 6.44, 60.49 5.61 C66.23 4.78, 71.22 2.38, 74.07 1.49 C76.93 0.6, 77.02 0.79, 77.63 0.26" stroke="#000000" stroke-width="1" fill="none"></path></g></g><mask></mask><g stroke-linecap="round"><g transform="translate(596.6022961138768 720.0579017574527) rotate(0 38.607797116901054 3.7143796239195126)"><path d="M0.76 -0.96 C1 -0.58, -0.13 1.38, 1.62 2.6 C3.37 3.81, 7.76 5.39, 11.26 6.33 C14.76 7.28, 17.54 7.87, 22.62 8.24 C27.71 8.62, 35.24 8.92, 41.77 8.6 C48.3 8.29, 56.37 7.11, 61.8 6.34 C67.24 5.58, 71.72 5.3, 74.39 4.02 C77.06 2.75, 77.35 -0.74, 77.82 -1.31 M-0.3 1.15 C-0.26 1.64, -1.39 2.62, 0.45 3.71 C2.29 4.79, 6.99 6.72, 10.74 7.68 C14.49 8.64, 17.93 9.21, 22.95 9.47 C27.96 9.73, 34.15 9.37, 40.84 9.22 C47.53 9.08, 57.39 9.59, 63.07 8.58 C68.76 7.58, 72.62 4.97, 74.96 3.19 C77.31 1.4, 77.04 -1.56, 77.14 -2.13" stroke="#000000" stroke-width="1" fill="none"></path></g></g><mask></mask><g stroke-linecap="round" transform="translate(595.5443471317948 684.7634048092642) rotate(0 38.29876800932749 7.745637696424012)"><path d="M48.51 0.79 C55.92 1.21, 65.26 2.78, 69.9 3.93 C74.55 5.09, 77.24 6.08, 76.39 7.72 C75.53 9.35, 70.78 12.5, 64.77 13.74 C58.75 14.97, 48.65 15.08, 40.29 15.14 C31.93 15.21, 21.14 15.18, 14.62 14.12 C8.09 13.07, 2.91 10.6, 1.14 8.79 C-0.62 6.99, 0.28 4.55, 4.03 3.31 C7.78 2.06, 15.69 1.63, 23.66 1.31 C31.63 0.99, 46.93 1.4, 51.85 1.39 C56.77 1.38, 53.54 1.2, 53.18 1.26 M36.29 0.67 C44.45 0.41, 56.39 1.49, 62.94 2.4 C69.49 3.32, 74.33 4.84, 75.6 6.17 C76.86 7.49, 74.17 8.71, 70.54 10.34 C66.92 11.96, 61.25 14.89, 53.87 15.92 C46.48 16.96, 34.16 17.19, 26.25 16.55 C18.34 15.91, 10.45 13.76, 6.39 12.08 C2.33 10.4, 1.05 8.17, 1.89 6.5 C2.73 4.82, 5.7 3.3, 11.41 2.01 C17.13 0.73, 31.84 -0.74, 36.19 -1.19 C40.54 -1.64, 37.3 -1.19, 37.52 -0.69" stroke="none" stroke-width="0" fill="#fff"></path><path d="M25.65 0.64 C32.91 0.07, 44.94 0.41, 52.57 0.85 C60.2 1.3, 67.53 1.81, 71.41 3.33 C75.29 4.85, 77.21 8.37, 75.84 9.97 C74.47 11.58, 69.51 11.9, 63.2 12.96 C56.89 14.02, 46.27 16.26, 37.99 16.34 C29.71 16.41, 19.67 14.54, 13.53 13.43 C7.38 12.33, 2.49 11.16, 1.1 9.71 C-0.3 8.27, 0.7 6.45, 5.15 4.77 C9.6 3.09, 23.31 0.31, 27.81 -0.37 C32.31 -1.06, 31.98 0.32, 32.15 0.66 M37.15 -0.3 C44.95 -0.57, 55.69 -0.29, 62.21 0.96 C68.73 2.21, 74.9 5.35, 76.26 7.19 C77.61 9.04, 74.56 10.71, 70.35 12.04 C66.14 13.38, 58.59 14.64, 51 15.2 C43.41 15.76, 32.69 15.93, 24.82 15.41 C16.95 14.88, 7.89 13.62, 3.76 12.05 C-0.37 10.47, -1.56 7.54, 0.05 5.97 C1.66 4.39, 6.79 3.64, 13.43 2.57 C20.08 1.5, 35.71 -0.03, 39.91 -0.46 C44.11 -0.89, 38.9 -0.19, 38.66 -0.01" stroke="#000000" stroke-width="1" fill="none"></path></g><g stroke-linecap="round" transform="translate(632.0363342370173 709.2400724891678) rotate(0 5.613051577080853 6.091879242227776)"><path d="M8.27 0.09 C9.42 0.64, 10.75 2.12, 11.06 3.38 C11.37 4.64, 10.44 6.44, 10.15 7.66 C9.87 8.89, 10.2 10.11, 9.34 10.73 C8.48 11.35, 6.21 11.38, 4.98 11.37 C3.74 11.36, 2.89 11.42, 1.95 10.65 C1 9.89, -0.36 8.01, -0.69 6.78 C-1.03 5.55, -0.94 4.29, -0.05 3.29 C0.84 2.29, 3.08 1.16, 4.66 0.79 C6.24 0.42, 8.61 0.98, 9.43 1.04 C10.25 1.1, 9.69 1.09, 9.58 1.14 M3.83 1.54 C4.71 1.04, 6.67 0.07, 7.73 -0.01 C8.78 -0.1, 9.76 -0.29, 10.16 1.03 C10.56 2.35, 10.06 6.37, 10.14 7.91 C10.21 9.45, 11.04 9.47, 10.62 10.28 C10.21 11.1, 8.95 12.42, 7.63 12.81 C6.31 13.2, 3.98 13.7, 2.72 12.63 C1.46 11.55, 0.44 8.03, 0.07 6.37 C-0.29 4.71, 0.22 3.56, 0.54 2.66 C0.86 1.76, 1.67 1.26, 1.97 0.97 C2.27 0.69, 1.96 0.89, 2.36 0.95" stroke="none" stroke-width="0" fill="#868e96"></path><path d="M6.88 0.97 C8.07 1.07, 9.71 1.18, 10.34 2.03 C10.96 2.88, 10.57 4.65, 10.62 6.08 C10.68 7.51, 11.48 9.62, 10.66 10.63 C9.85 11.64, 6.91 12.01, 5.73 12.14 C4.54 12.27, 4.5 12, 3.57 11.42 C2.63 10.84, 0.52 9.92, 0.11 8.65 C-0.31 7.37, 0.44 5.15, 1.06 3.75 C1.69 2.36, 2.96 0.72, 3.85 0.27 C4.74 -0.18, 5.74 1.12, 6.38 1.07 C7.03 1.02, 7.51 0.02, 7.7 -0.03 M3.8 -0.62 C4.7 -0.77, 5.78 0.25, 7.06 0.76 C8.33 1.26, 10.7 1.33, 11.43 2.43 C12.16 3.53, 11.84 5.97, 11.44 7.37 C11.04 8.77, 10.02 10.24, 9.04 10.83 C8.06 11.42, 6.73 11.04, 5.58 10.89 C4.43 10.73, 3.14 10.64, 2.15 9.88 C1.15 9.12, -0.31 7.27, -0.37 6.3 C-0.44 5.34, 1.09 5.07, 1.76 4.08 C2.43 3.1, 3.28 1.04, 3.65 0.41 C4.01 -0.22, 3.89 0.35, 3.96 0.31" stroke="#000000" stroke-width="1" fill="none"></path></g><g stroke-linecap="round" transform="translate(632.3874760209509 735.4566867762329) rotate(0 5.613051577080853 6.091879242227776)"><path d="M5.32 0.44 C6.61 0.16, 8.35 -0.27, 9.35 0.57 C10.36 1.42, 11.21 4.12, 11.35 5.51 C11.49 6.89, 10.98 7.82, 10.19 8.9 C9.4 9.99, 7.71 11.67, 6.63 12.02 C5.55 12.38, 4.7 11.7, 3.7 11.04 C2.71 10.38, 1.17 8.98, 0.65 8.07 C0.14 7.17, 0.3 6.56, 0.63 5.6 C0.95 4.63, 1.48 3.08, 2.61 2.28 C3.75 1.47, 6.48 0.88, 7.43 0.77 C8.38 0.67, 8.37 1.78, 8.3 1.64 M9.09 1.4 C10.24 1.78, 10.51 2.8, 10.58 3.7 C10.65 4.6, 9.58 5.38, 9.49 6.79 C9.41 8.2, 10.82 11.04, 10.05 12.18 C9.29 13.31, 6.2 13.86, 4.89 13.59 C3.57 13.31, 2.74 11.73, 2.18 10.51 C1.61 9.3, 1.91 7.62, 1.5 6.28 C1.1 4.94, -0.58 3.7, -0.26 2.48 C0.06 1.26, 1.94 -0.59, 3.4 -1.04 C4.86 -1.48, 7.69 -0.66, 8.52 -0.19 C9.34 0.27, 8.4 1.7, 8.34 1.75" stroke="none" stroke-width="0" fill="#868e96"></path><path d="M6.6 0.37 C7.69 0.18, 8.36 -0.02, 9.1 0.92 C9.84 1.86, 10.74 4.73, 11.05 5.99 C11.35 7.26, 11.55 7.38, 10.95 8.5 C10.34 9.62, 8.65 12.2, 7.43 12.71 C6.22 13.22, 4.7 12.07, 3.67 11.56 C2.64 11.06, 1.88 10.65, 1.26 9.7 C0.64 8.75, -0.1 7.35, -0.04 5.85 C0.02 4.35, 0.39 1.59, 1.62 0.69 C2.85 -0.21, 6.5 0.39, 7.35 0.44 C8.2 0.49, 6.87 1.06, 6.71 1.01 M5.15 -0.86 C6.55 -0.68, 8.88 1.34, 9.72 2.46 C10.55 3.58, 10.11 4.64, 10.17 5.83 C10.22 7.03, 10.57 8.57, 10.04 9.65 C9.5 10.73, 8.29 11.93, 6.96 12.34 C5.63 12.75, 3.22 12.78, 2.06 12.12 C0.9 11.46, 0.39 9.49, 0.01 8.37 C-0.37 7.25, -0.84 6.69, -0.22 5.41 C0.41 4.13, 2.67 1.64, 3.74 0.71 C4.81 -0.21, 5.81 -0.03, 6.18 -0.16 C6.55 -0.28, 6.1 0.04, 5.95 -0.02" stroke="#000000" stroke-width="1" fill="none"></path></g><g stroke-linecap="round" transform="translate(633.0363342370173 764.2254133475393) rotate(357.5021844865888 5.613051577080853 6.091879242227776)"><path d="M3.91 0.51 C4.71 0.06, 5.25 0.13, 6.38 0.48 C7.51 0.82, 9.96 1.66, 10.71 2.6 C11.45 3.53, 11.03 4.74, 10.84 6.09 C10.65 7.44, 10.52 9.69, 9.57 10.7 C8.61 11.71, 6.5 12.01, 5.12 12.13 C3.73 12.26, 1.95 12.14, 1.23 11.44 C0.51 10.74, 0.76 9.26, 0.81 7.93 C0.87 6.6, 0.87 4.79, 1.56 3.44 C2.26 2.09, 4.22 0.38, 4.98 -0.19 C5.73 -0.75, 6.29 -0.25, 6.08 0.06 M4.8 0.04 C5.76 -0.78, 7.09 -1.76, 7.89 -0.97 C8.68 -0.18, 8.89 3.38, 9.58 4.79 C10.27 6.2, 11.91 6.36, 12.04 7.5 C12.18 8.65, 11.46 10.65, 10.37 11.68 C9.27 12.7, 6.95 14.09, 5.49 13.66 C4.02 13.23, 2.48 10.41, 1.58 9.1 C0.68 7.79, 0.38 6.8, 0.08 5.8 C-0.22 4.79, -0.76 3.94, -0.24 3.06 C0.28 2.17, 2.32 0.89, 3.21 0.47 C4.09 0.06, 5.08 0.45, 5.08 0.56" stroke="none" stroke-width="0" fill="#868e96"></path><path d="M6.33 -0.22 C7.34 -0.38, 7.94 0.54, 8.88 1.56 C9.83 2.59, 11.9 4.64, 12 5.96 C12.11 7.28, 10.18 8.48, 9.52 9.49 C8.86 10.51, 9.1 11.58, 8.04 12.04 C6.98 12.5, 4.29 12.81, 3.16 12.25 C2.04 11.68, 1.61 9.99, 1.27 8.64 C0.93 7.3, 1.06 5.26, 1.12 4.17 C1.18 3.07, 0.62 2.8, 1.64 2.06 C2.66 1.32, 6.13 -0.05, 7.25 -0.29 C8.38 -0.54, 8.55 0.39, 8.37 0.59 M2.35 0.79 C3.52 0.16, 6.43 -1.09, 7.8 -0.83 C9.18 -0.57, 10 1.14, 10.59 2.35 C11.19 3.55, 11.47 5.26, 11.37 6.38 C11.27 7.51, 10.79 8.23, 9.99 9.1 C9.2 9.97, 7.91 11.33, 6.58 11.59 C5.25 11.86, 2.94 11.13, 2.01 10.71 C1.08 10.3, 1.3 10.29, 0.98 9.13 C0.65 7.96, -0.29 5.15, 0.06 3.72 C0.41 2.29, 2.54 1.16, 3.05 0.54 C3.56 -0.08, 3.23 -0.24, 3.12 0" stroke="#000000" stroke-width="1" fill="none"></path></g><g transform="translate(565.4234620825572 785.8155549463821) rotate(0 69.83626556396484 10.199999999999989)"><text x="69.83626556396484" y="0" font-family="Virgil, Segoe UI Emoji" font-size="17.4778970902999px" fill="#000000" text-anchor="middle" style="white-space: pre;" direction="ltr" dominant-baseline="text-before-edge">MySQL-0007-RW</text></g><g stroke-linecap="round"><g transform="translate(753.48393740052 690.8426955424903) rotate(0 38.58104621493493 41.49187742066721)" fill-rule="evenodd"><path d="M0.61 -0.75 L-0.75 83.02 L2.16 87.87 L17.15 90.84 L40.83 91.52 L63.11 89.09 L75.23 86.08 L78.57 -1.06 L65.9 -4.26 L36.53 -7.05 L9.91 -7.03 L3.68 -2.51 L-0.46 -0.67" stroke="none" stroke-width="0" fill="#ced4da" fill-rule="evenodd"></path><path d="M0.15 0.23 C0.29 12.83, 1.35 61.84, 1.28 75.64 C1.21 89.44, -0.69 80.91, -0.26 83.04 C0.16 85.17, 0.72 87.33, 3.83 88.44 C6.94 89.54, 12.2 88.98, 18.41 89.68 C24.62 90.37, 33.59 92.56, 41.09 92.58 C48.6 92.6, 57.65 90.68, 63.44 89.77 C69.23 88.86, 73.64 88.03, 75.83 87.12 C78.03 86.2, 76.53 86.24, 76.63 84.3 C76.73 82.36, 76.25 88.41, 76.46 75.49 C76.67 62.56, 78 19.25, 77.91 6.75 C77.82 -5.75, 76.98 2.37, 75.91 0.47 C74.85 -1.43, 73.96 -3.37, 71.51 -4.65 C69.07 -5.92, 66.98 -6.53, 61.24 -7.19 C55.5 -7.85, 44.36 -8.69, 37.08 -8.6 C29.81 -8.52, 23.11 -7.45, 17.58 -6.69 C12.05 -5.93, 6.79 -5.12, 3.91 -4.04 C1.02 -2.97, 0.9 -0.88, 0.27 -0.23 C-0.36 0.41, 0.12 -0.04, 0.13 -0.17 M-1.23 -0.69 C-1.2 11.53, 0.86 59.63, 0.87 73.74 C0.88 87.85, -1.69 81.87, -1.17 83.98 C-0.65 86.09, 0.93 85.46, 4 86.39 C7.08 87.33, 10.86 88.64, 17.28 89.59 C23.7 90.53, 34.71 92.29, 42.52 92.07 C50.34 91.86, 58.71 89.11, 64.15 88.3 C69.59 87.49, 72.77 88, 75.17 87.21 C77.56 86.41, 78.23 85.62, 78.52 83.52 C78.81 81.43, 77.48 87.22, 76.92 74.63 C76.35 62.04, 74.96 20.33, 75.12 7.97 C75.28 -4.4, 78.44 2.75, 77.88 0.45 C77.31 -1.84, 74.62 -4.42, 71.75 -5.81 C68.87 -7.21, 66.37 -7.32, 60.62 -7.94 C54.88 -8.55, 44.35 -9.95, 37.29 -9.52 C30.22 -9.08, 23.96 -6.31, 18.24 -5.35 C12.52 -4.38, 6.15 -4.62, 2.97 -3.73 C-0.21 -2.83, -0.16 -0.58, -0.85 0.04 C-1.54 0.66, -1.49 -0.05, -1.19 -0.01" stroke="#000000" stroke-width="1" fill="none"></path></g></g><mask></mask><g stroke-linecap="round"><g transform="translate(754.0078668387949 747.9689792002201) rotate(0 38.447918469872945 3.8770576773402468)"><path d="M0.23 1.02 C0.64 1.52, 0.83 2.29, 2.47 3.14 C4.11 3.99, 6.58 5.22, 10.08 6.14 C13.57 7.06, 18.48 8.32, 23.44 8.66 C28.4 9.01, 33.22 8.45, 39.83 8.2 C46.44 7.96, 57.35 7.93, 63.09 7.19 C68.83 6.44, 71.81 5.03, 74.29 3.73 C76.78 2.44, 77.33 0.21, 78 -0.58 M-1.1 0.52 C-0.83 1.18, -0.53 3.39, 1.75 4.53 C4.03 5.68, 8.85 7.06, 12.59 7.38 C16.33 7.7, 19.38 6.24, 24.2 6.45 C29.03 6.65, 35.34 8.65, 41.54 8.61 C47.73 8.57, 55.83 7.19, 61.37 6.22 C66.92 5.24, 72.14 3.95, 74.81 2.75 C77.48 1.54, 77 -0.72, 77.41 -1.02" stroke="#000000" stroke-width="1" fill="none"></path></g></g><mask></mask><g stroke-linecap="round"><g transform="translate(752.9760095162911 719.0049238649973) rotate(0 38.38787561419133 4.401063399761199)"><path d="M1.02 0.44 C1.29 0.85, 0.15 1.55, 1.76 2.69 C3.37 3.83, 7.1 6.52, 10.66 7.25 C14.22 7.99, 18.1 6.77, 23.12 7.09 C28.14 7.42, 34.27 9.23, 40.78 9.18 C47.3 9.14, 56.46 7.71, 62.2 6.82 C67.94 5.94, 72.76 4.89, 75.22 3.88 C77.69 2.86, 76.76 1.6, 76.99 0.76 M0.1 -0.38 C0.18 0.15, -0.95 2.88, 0.67 3.85 C2.29 4.81, 5.98 4.78, 9.82 5.42 C13.66 6.07, 18.79 7.55, 23.71 7.72 C28.63 7.89, 32.67 6.79, 39.33 6.44 C45.99 6.1, 57.53 6.24, 63.68 5.66 C69.83 5.08, 74.19 3.74, 76.22 2.96 C78.25 2.19, 75.52 1.4, 75.86 1.02" stroke="#000000" stroke-width="1" fill="none"></path></g></g><mask></mask><g stroke-linecap="round" transform="translate(751.9180605342091 683.7104269168086) rotate(0 38.29876800932749 7.745637696424012)"><path d="M20.92 0.48 C27.51 -0.34, 38.33 0.06, 46.37 0.38 C54.41 0.69, 64.14 1.25, 69.16 2.39 C74.18 3.54, 76.9 5.35, 76.48 7.24 C76.07 9.14, 72.19 12.23, 66.65 13.75 C61.1 15.27, 51.44 16.21, 43.23 16.37 C35.02 16.53, 24.37 15.69, 17.38 14.71 C10.39 13.74, 3.67 12.34, 1.28 10.51 C-1.1 8.69, -1.38 5.56, 3.09 3.77 C7.56 1.98, 22.94 0.26, 28.1 -0.23 C33.25 -0.72, 33.91 0.64, 34.02 0.84 M39.65 0.98 C47.68 1.3, 56.68 2.31, 62.85 3.26 C69.02 4.2, 74.99 5.28, 76.67 6.65 C78.36 8.02, 77.41 10.07, 72.97 11.48 C68.53 12.88, 58.15 14.68, 50.04 15.07 C41.92 15.46, 31.7 14.55, 24.28 13.83 C16.86 13.11, 9.42 11.84, 5.51 10.77 C1.59 9.7, -0.58 9.06, 0.81 7.39 C2.2 5.72, 7.57 1.79, 13.86 0.76 C20.15 -0.28, 34.55 1.24, 38.55 1.2 C42.55 1.17, 37.9 0.38, 37.87 0.53" stroke="none" stroke-width="0" fill="#fff"></path><path d="M27.47 -0.41 C34.8 -0.97, 45.63 0.71, 53.13 1.45 C60.62 2.18, 68.6 2.55, 72.45 4 C76.3 5.45, 78.08 8.33, 76.23 10.14 C74.38 11.95, 68.04 14.09, 61.34 14.87 C54.63 15.65, 44.01 15.02, 35.98 14.84 C27.95 14.66, 19.2 14.71, 13.18 13.8 C7.16 12.89, 1.04 11.17, -0.14 9.37 C-1.32 7.57, 0.75 4.7, 6.09 3.01 C11.44 1.32, 26.84 -0.2, 31.92 -0.77 C37 -1.34, 36.59 -0.7, 36.58 -0.4 M47.64 0.41 C55.45 0.71, 64.66 2.24, 69.25 3.64 C73.85 5.04, 75.9 7.29, 75.2 8.81 C74.5 10.33, 70.66 11.53, 65.06 12.77 C59.46 14.01, 49.44 16.09, 41.6 16.24 C33.77 16.39, 24.72 14.77, 18.05 13.67 C11.38 12.58, 4.02 11.2, 1.58 9.65 C-0.86 8.1, 0.15 6.05, 3.41 4.38 C6.66 2.72, 13.55 0.13, 21.11 -0.35 C28.67 -0.84, 44.31 1.52, 48.75 1.45 C53.19 1.38, 47.93 -0.6, 47.74 -0.78" stroke="#000000" stroke-width="1" fill="none"></path></g><g stroke-linecap="round" transform="translate(788.4100476394316 708.1870945967122) rotate(0 5.613051577080853 6.091879242227776)"><path d="M5.82 -0.78 C6.93 -0.68, 9.01 0.88, 9.78 1.93 C10.56 2.99, 10.57 4.2, 10.47 5.57 C10.38 6.94, 9.68 8.99, 9.22 10.15 C8.76 11.31, 8.55 12.25, 7.7 12.52 C6.85 12.78, 5.24 12.46, 4.12 11.76 C3.01 11.06, 1.57 9.53, 1.01 8.31 C0.45 7.08, 0.67 5.45, 0.76 4.4 C0.85 3.35, 0.69 2.66, 1.53 2.01 C2.38 1.36, 4.88 0.72, 5.83 0.5 C6.78 0.28, 7.17 0.69, 7.23 0.71 M3.92 0.69 C5.31 -0.09, 7.12 0.27, 8.18 0.79 C9.24 1.3, 9.78 3.11, 10.27 3.8 C10.75 4.48, 11.15 3.97, 11.09 4.87 C11.02 5.77, 10.84 7.92, 9.86 9.19 C8.89 10.46, 6.58 12.09, 5.24 12.48 C3.9 12.87, 2.49 12.23, 1.83 11.52 C1.17 10.81, 1.69 9.45, 1.28 8.22 C0.86 6.99, -1.14 5.44, -0.67 4.13 C-0.19 2.82, 3.47 0.87, 4.14 0.34 C4.81 -0.19, 3.31 0.6, 3.37 0.96" stroke="none" stroke-width="0" fill="#868e96"></path><path d="M4.52 0.04 C5.66 -0.18, 8.75 0.44, 9.81 1.31 C10.87 2.18, 10.62 4.03, 10.87 5.26 C11.13 6.48, 11.67 7.68, 11.32 8.67 C10.97 9.66, 10.12 10.5, 8.8 11.19 C7.47 11.88, 4.62 13.17, 3.36 12.8 C2.11 12.43, 1.74 10.23, 1.29 8.99 C0.85 7.76, 0.69 6.6, 0.68 5.4 C0.67 4.2, 0.53 2.73, 1.21 1.8 C1.9 0.87, 4.09 0.17, 4.81 -0.2 C5.52 -0.57, 5.35 -0.66, 5.52 -0.44 M3.89 0.14 C4.94 -0.53, 6.78 -1.3, 7.96 -0.9 C9.14 -0.5, 10.49 1.23, 10.95 2.51 C11.41 3.8, 10.9 5.19, 10.73 6.81 C10.57 8.42, 10.91 11.29, 9.98 12.22 C9.04 13.14, 6.48 12.62, 5.12 12.37 C3.76 12.12, 2.68 11.69, 1.81 10.7 C0.94 9.71, 0.28 7.56, -0.07 6.42 C-0.43 5.29, -1.17 4.89, -0.34 3.89 C0.49 2.89, 4.44 0.87, 4.93 0.41 C5.42 -0.04, 2.86 0.96, 2.59 1.16" stroke="#000000" stroke-width="1" fill="none"></path></g><g stroke-linecap="round" transform="translate(788.7611894233652 734.4037088837773) rotate(0 5.613051577080853 6.091879242227776)"><path d="M5.8 0.26 C7 0.34, 9.14 0.64, 10.04 1.46 C10.93 2.27, 11.12 3.61, 11.18 5.15 C11.24 6.69, 11.1 9.39, 10.42 10.7 C9.74 12.02, 8.34 12.83, 7.1 13.02 C5.85 13.21, 4.14 12.58, 2.96 11.86 C1.78 11.14, 0.47 10.17, 0.02 8.71 C-0.43 7.25, -0.34 4.5, 0.28 3.09 C0.91 1.68, 2.54 0.62, 3.76 0.24 C4.98 -0.13, 6.87 0.83, 7.6 0.86 C8.34 0.89, 8.25 0.59, 8.15 0.42 M3.59 1.83 C4.52 1.21, 6.76 0.44, 8.15 0.61 C9.54 0.78, 11.67 1.77, 11.94 2.86 C12.21 3.95, 10.37 6.03, 9.77 7.14 C9.16 8.25, 8.94 8.83, 8.32 9.53 C7.7 10.22, 7.03 10.96, 6.03 11.33 C5.02 11.71, 3.23 12.65, 2.28 11.78 C1.32 10.92, 0.51 7.39, 0.29 6.15 C0.08 4.9, 0.51 5.19, 1 4.3 C1.49 3.4, 2.78 1.18, 3.25 0.77 C3.71 0.35, 3.5 1.63, 3.8 1.82" stroke="none" stroke-width="0" fill="#868e96"></path><path d="M7.86 1.34 C8.86 1.85, 10.1 2.01, 10.73 3.15 C11.36 4.29, 11.97 6.72, 11.65 8.18 C11.33 9.64, 9.96 11.38, 8.82 11.93 C7.67 12.49, 5.83 11.71, 4.8 11.53 C3.77 11.36, 3.51 11.58, 2.64 10.89 C1.77 10.21, -0.13 8.9, -0.41 7.45 C-0.7 6, 0.17 3.55, 0.93 2.21 C1.69 0.86, 2.93 -0.29, 4.13 -0.62 C5.33 -0.96, 7.46 -0.12, 8.13 0.2 C8.8 0.53, 8.09 1.26, 8.16 1.32 M6.13 0.45 C7.1 0.58, 7.72 1.61, 8.47 2.44 C9.23 3.27, 10.45 4.07, 10.66 5.42 C10.86 6.78, 10.08 9.55, 9.69 10.58 C9.29 11.61, 9.34 11.46, 8.26 11.58 C7.18 11.71, 4.52 11.88, 3.21 11.33 C1.9 10.77, 1 9.63, 0.39 8.27 C-0.21 6.91, -0.94 4.17, -0.43 3.15 C0.08 2.13, 2.33 2.87, 3.47 2.16 C4.61 1.45, 5.81 -0.69, 6.4 -1.12 C6.99 -1.55, 6.93 -0.73, 7.02 -0.42" stroke="#000000" stroke-width="1" fill="none"></path></g><g stroke-linecap="round" transform="translate(789.4100476394316 763.1724354550839) rotate(357.5021844865888 5.613051577080853 6.091879242227776)"><path d="M5.14 0.15 C6.2 0.06, 7.15 0.17, 7.97 0.96 C8.79 1.75, 9.45 3.53, 10.03 4.88 C10.61 6.22, 11.61 7.9, 11.44 9.04 C11.28 10.18, 10.16 11.26, 9.05 11.71 C7.94 12.15, 6.04 12.05, 4.81 11.71 C3.58 11.36, 2.61 10.5, 1.66 9.66 C0.71 8.82, -0.78 7.89, -0.89 6.67 C-1.01 5.45, -0.28 3.37, 0.98 2.34 C2.23 1.32, 5.67 0.85, 6.66 0.51 C7.65 0.17, 7.21 0.43, 6.93 0.33 M9.54 1.29 C10.48 2.03, 10.79 4.28, 11.01 5.13 C11.23 5.99, 11.23 5.57, 10.86 6.41 C10.49 7.26, 9.95 9.2, 8.78 10.22 C7.6 11.23, 5.15 12.46, 3.8 12.51 C2.46 12.56, 1.17 11.51, 0.71 10.54 C0.24 9.57, 1.11 7.98, 1 6.69 C0.89 5.39, -0.72 3.91, 0.03 2.76 C0.78 1.61, 4.08 0.11, 5.48 -0.23 C6.89 -0.56, 7.83 0.38, 8.48 0.74 C9.12 1.1, 9.31 1.81, 9.37 1.94" stroke="none" stroke-width="0" fill="#868e96"></path><path d="M7.96 0.33 C9.17 0.67, 9.39 2.18, 10.04 3.22 C10.7 4.25, 11.81 5.4, 11.89 6.52 C11.97 7.65, 11.58 8.86, 10.5 9.95 C9.42 11.03, 6.71 12.93, 5.41 13.04 C4.11 13.15, 3.48 11.5, 2.72 10.6 C1.95 9.7, 1.27 8.79, 0.82 7.62 C0.37 6.46, -0.26 4.81, 0 3.6 C0.27 2.39, 1.13 0.93, 2.41 0.35 C3.69 -0.23, 6.52 -0.16, 7.67 0.12 C8.81 0.4, 9.36 1.79, 9.29 2.02 M5.57 -1.26 C6.76 -1.49, 8.49 -0.34, 9.34 0.57 C10.18 1.48, 10.29 2.59, 10.65 4.19 C11 5.79, 11.99 8.88, 11.46 10.15 C10.93 11.43, 8.73 11.53, 7.48 11.82 C6.23 12.12, 5.05 12.42, 3.94 11.92 C2.83 11.43, 1.67 9.77, 0.83 8.85 C-0.01 7.93, -1.43 7.55, -1.08 6.38 C-0.74 5.2, 2.04 2.75, 2.89 1.8 C3.74 0.86, 3.72 0.87, 4 0.71 C4.29 0.54, 4.37 1.05, 4.59 0.8" stroke="#000000" stroke-width="1" fill="none"></path></g><g transform="translate(721.9718733609483 784.7625770539267) rotate(0 69.66156768798828 10.199999999999989)"><text x="69.66156768798828" y="0" font-family="Virgil, Segoe UI Emoji" font-size="17.4778970902999px" fill="#000000" text-anchor="middle" style="white-space: pre;" direction="ltr" dominant-baseline="text-before-edge">MySQL-0007-RO</text></g><g stroke-linecap="round" transform="translate(527.4581661512999 649.5014534748178) rotate(0 183.12733759887607 91.01515522414951)"><path d="M32 0 M32 0 C118.01 -1.15, 207.48 -1.04, 334.25 0 M334.25 0 C355.19 1.14, 367.63 10.36, 366.25 32 M366.25 32 C367.42 79.47, 364.77 126.76, 366.25 150.03 M366.25 150.03 C366.27 170.28, 355.86 180.27, 334.25 182.03 M334.25 182.03 C249.85 181.48, 164.03 181.12, 32 182.03 M32 182.03 C10.36 182.25, -0.29 171.89, 0 150.03 M0 150.03 C-0.9 124.19, 0.68 101.28, 0 32 M0 32 C-0.61 10.91, 10.44 -0.05, 32 0" stroke="#000000" stroke-width="1.5" fill="none" stroke-dasharray="8 9"></path></g><g transform="translate(438.7270272893279 725.2131609855859) rotate(0 18.219993591308594 12)"><text x="0" y="0" font-family="Virgil, Segoe UI Emoji" font-size="20px" fill="#000000" text-anchor="start" style="white-space: pre;" direction="ltr" dominant-baseline="text-before-edge">. . .</text></g><g stroke-linecap="round"><g transform="translate(385.0040096726268 467.4266266091015) rotate(0 -28.564847664339055 85.28813021379014)"><path d="M0.35 0.99 C-9.2 29.23, -47.25 140.69, -56.94 168.61 M-0.92 0.46 C-10.59 28.98, -47.87 141.9, -57.48 170.12" stroke="#000000" stroke-width="1" fill="none"></path></g><g transform="translate(385.0040096726268 467.4266266091015) rotate(0 -28.564847664339055 85.28813021379014)"><path d="M-56.62 141.43 C-58.3 149.91, -58.2 161.14, -58.71 169.15 M-57.36 140.86 C-57.66 147.18, -57.01 154.55, -57.77 169.76" stroke="#000000" stroke-width="1" fill="none"></path></g><g transform="translate(385.0040096726268 467.4266266091015) rotate(0 -28.564847664339055 85.28813021379014)"><path d="M-37.16 147.94 C-45.21 154.33, -51.53 163.41, -58.71 169.15 M-37.9 147.37 C-42.74 151.99, -46.6 157.85, -57.77 169.76" stroke="#000000" stroke-width="1" fill="none"></path></g></g><mask></mask><g stroke-linecap="round"><g transform="translate(512.1372816616154 466.41265586744714) rotate(0 22.30782224220394 78.4187237502988)"><path d="M-0.23 1.1 C7.65 27.13, 38.6 130.38, 46.42 156.21 M-1.81 0.63 C5.99 26.32, 37.54 128.97, 45.54 154.54" stroke="#000000" stroke-width="1" fill="none"></path></g><g transform="translate(512.1372816616154 466.41265586744714) rotate(0 22.30782224220394 78.4187237502988)"><path d="M29.23 130.86 C33.04 136.93, 36.97 141.78, 47.18 155.37 M26.67 130.32 C32.19 135.55, 35.68 141.66, 45.53 154.25" stroke="#000000" stroke-width="1" fill="none"></path></g><g transform="translate(512.1372816616154 466.41265586744714) rotate(0 22.30782224220394 78.4187237502988)"><path d="M48.84 124.79 C48.12 132.22, 47.5 138.48, 47.18 155.37 M46.27 124.25 C47.15 130.94, 46.03 138.47, 45.53 154.25" stroke="#000000" stroke-width="1" fill="none"></path></g></g><mask></mask><g stroke-linecap="round"><g transform="translate(443.11504945199056 478.6018032944593) rotate(0 2.169791402837319 79.27651001512913)"><path d="M-0.76 -0.68 C0.27 25.84, 4.33 131.38, 5.1 158.13 M1.04 1.58 C2.04 28.31, 3.47 133.18, 4.35 159.23" stroke="#000000" stroke-width="1" fill="none"></path></g><g transform="translate(443.11504945199056 478.6018032944593) rotate(0 2.169791402837319 79.27651001512913)"><path d="M-7.67 131.91 C-5.88 135.74, -0.82 142.97, 2.74 161.08 M-6.33 131.02 C-3.17 140.68, 1.05 151.95, 4.63 160.2" stroke="#000000" stroke-width="1" fill="none"></path></g><g transform="translate(443.11504945199056 478.6018032944593) rotate(0 2.169791402837319 79.27651001512913)"><path d="M12.84 131.44 C10.35 135.24, 11.14 142.57, 2.74 161.08 M14.19 130.56 C10.01 140.27, 6.9 151.7, 4.63 160.2" stroke="#000000" stroke-width="1" fill="none"></path></g></g><mask></mask><g stroke-linecap="round" transform="translate(780.8171486116894 285.39514205985927) rotate(0 27.81460987140798 25.60069298867583)"><path d="M15.79 2.97 C20.89 0.21, 28.85 -1.07, 34.44 -0.02 C40.03 1.03, 45.7 4.81, 49.32 9.29 C52.94 13.77, 56.33 21.31, 56.14 26.84 C55.95 32.37, 52.21 38.59, 48.18 42.46 C44.16 46.33, 37.98 49.18, 31.98 50.07 C25.97 50.96, 17.12 50.76, 12.16 47.81 C7.2 44.86, 3.77 37.56, 2.21 32.37 C0.66 27.18, -0.31 21.82, 2.82 16.69 C5.95 11.56, 17.05 4.36, 21.01 1.59 C24.98 -1.18, 26.59 -0.24, 26.6 0.05 M31.13 -1.41 C36.67 -1.19, 42.69 3.4, 46.58 7.34 C50.48 11.27, 54 16.62, 54.48 22.2 C54.97 27.77, 52.53 36.25, 49.5 40.81 C46.47 45.36, 41.65 48.19, 36.28 49.51 C30.9 50.84, 22.94 50.68, 17.26 48.74 C11.58 46.81, 4.77 42.89, 2.18 37.9 C-0.4 32.91, 0.36 24.18, 1.74 18.8 C3.12 13.41, 5.56 8.61, 10.45 5.59 C15.33 2.58, 27.74 1.53, 31.03 0.7 C34.33 -0.14, 30.6 0.35, 30.2 0.6" stroke="#000000" stroke-width="2" fill="none"></path></g><g stroke-linecap="round"><g transform="translate(805.4669973081886 336.3127512882214) rotate(0 -1.5084682302538681 31.03632994800992)"><path d="M0.72 -1.15 C0.2 9.15, -3.32 51.27, -3.73 61.82 M-0.36 0.86 C-0.47 11.34, -1.28 52.78, -1.55 63.22" stroke="#000000" stroke-width="2" fill="none"></path></g></g><mask></mask><g stroke-linecap="round"><g transform="translate(802.9808376941814 399.97551742933814) rotate(0 11.583626158571462 18.910258856030453)"><path d="M-1.15 -1.01 C2.9 5.35, 20.01 32.23, 24.32 38.83 M0.45 1.08 C4.32 7.05, 19.32 31.29, 23.24 37.21" stroke="#000000" stroke-width="2" fill="none"></path></g></g><mask></mask><g stroke-linecap="round"><g transform="translate(799.4846087738492 397.52470242062435) rotate(0 -9.912368362918471 17.71367685812652)"><path d="M-1.01 -0.25 C-4.47 5.82, -16.84 29.49, -20.05 35.27 M0.67 -1.43 C-2.93 4.95, -16.93 30.73, -20.49 36.86" stroke="#000000" stroke-width="2" fill="none"></path></g></g><mask></mask><g stroke-linecap="round"><g transform="translate(771.5327895555724 371.5852563913624) rotate(0 16.167531738146977 -10.437397191494455)"><path d="M-0.25 0.97 C5.37 -2.21, 27.26 -16.35, 32.59 -20.1 M1.81 0.43 C7.39 -3, 26.29 -18.35, 31.69 -21.85" stroke="#000000" stroke-width="2" fill="none"></path></g></g><mask></mask><g stroke-linecap="round"><g transform="translate(803.248462650035 349.584240376756) rotate(0 11.98643358969008 13.595618724555067)"><path d="M0.97 0.1 C5.13 4.63, 20.35 22.49, 23.95 26.94 M0.02 -0.89 C4.17 3.8, 19.81 23.32, 23.38 28.08" stroke="#000000" stroke-width="2" fill="none"></path></g></g><mask></mask><g transform="translate(782.1326063284628 291.96593359365716) rotate(0 24.5 11)"><text x="0" y="0" font-family="Virgil, Segoe UI Emoji" font-size="15.282036963929505px" fill="#000000" text-anchor="start" style="white-space: pre;" direction="ltr" dominant-baseline="text-before-edge"></text></g><g stroke-linecap="round"><g transform="translate(752.0757556191886 383.57048926246114) rotate(0 -93.8259824892607 15.900228293948999)"><path d="M0.71 -0.75 C-30.84 4.48, -157.07 25.94, -188.36 31.48 M-0.37 1.47 C-31.62 6.81, -154.83 27.15, -186.01 32.55" stroke="#000000" stroke-width="1" fill="none"></path></g><g transform="translate(752.0757556191886 383.57048926246114) rotate(0 -93.8259824892607 15.900228293948999)"><path d="M-161.17 16.61 C-171.31 24.62, -179.55 28.92, -186.9 33.64 M-158.99 16.83 C-164.76 21.89, -170.1 24.7, -185.21 32.02" stroke="#000000" stroke-width="1" fill="none"></path></g><g transform="translate(752.0757556191886 383.57048926246114) rotate(0 -93.8259824892607 15.900228293948999)"><path d="M-157.76 36.84 C-169.21 37.17, -178.76 33.76, -186.9 33.64 M-155.58 37.06 C-161.92 37.93, -167.97 36.52, -185.21 32.02" stroke="#000000" stroke-width="1" fill="none"></path></g></g><mask></mask><g stroke-linecap="round" transform="translate(87.17485140117927 351.73927710627606) rotate(0 27.81460987140801 25.60069298867583)"><path d="M36.07 0.82 C41.54 1.91, 47.02 6.52, 50.12 11.12 C53.23 15.72, 55.25 23.01, 54.7 28.41 C54.16 33.81, 50.98 39.75, 46.86 43.52 C42.73 47.29, 35.68 50.42, 29.94 51.04 C24.19 51.66, 17.29 50.39, 12.38 47.22 C7.47 44.04, 2.05 37.46, 0.47 31.99 C-1.1 26.53, 0.16 19.43, 2.91 14.44 C5.66 9.44, 10.89 4.01, 16.97 2.03 C23.05 0.05, 35.21 2.08, 39.39 2.55 C43.57 3.02, 42.36 4.38, 42.06 4.84 M27.9 -0.86 C33.84 -0.96, 41.44 3.35, 45.98 6.83 C50.52 10.31, 54.06 14.95, 55.12 20.02 C56.17 25.09, 55.51 32.21, 52.31 37.24 C49.12 42.27, 41.72 48.34, 35.96 50.22 C30.2 52.1, 22.89 50.58, 17.76 48.51 C12.63 46.44, 7.98 42.59, 5.17 37.78 C2.37 32.98, 0.21 25.11, 0.93 19.66 C1.65 14.22, 4.98 8.47, 9.49 5.1 C14 1.73, 24.88 0.22, 27.98 -0.55 C31.08 -1.32, 27.98 -0.26, 28.08 0.46" stroke="#000000" stroke-width="2" fill="none"></path></g><g stroke-linecap="round"><g transform="translate(111.82470009767852 402.6568863346382) rotate(0 -1.825290478899916 31.702642895883855)"><path d="M0.07 0.64 C-0.22 10.96, -2.48 51.76, -2.76 61.98 M-1.35 -0.07 C-1.72 10.44, -3.65 52.92, -3.72 63.47" stroke="#000000" stroke-width="2" fill="none"></path></g></g><mask></mask><g stroke-linecap="round"><g transform="translate(109.33854048367132 466.3196524757549) rotate(0 11.999931953170915 18.937269966854984)"><path d="M0.64 -0.03 C4.71 6.45, 20.51 32.76, 24.48 38.96 M-0.48 -1.09 C3.41 5.08, 19.47 30.88, 23.49 37.42" stroke="#000000" stroke-width="2" fill="none"></path></g></g><mask></mask><g stroke-linecap="round"><g transform="translate(108.08312967514783 465.0251541559744) rotate(0 -11.275265730514988 17.106080082061624)"><path d="M-0.03 -0.09 C-3.73 5.46, -18.17 28.21, -22.16 33.91 M-1.5 -1.18 C-5.28 4.5, -18.6 29.28, -22.52 35.39" stroke="#000000" stroke-width="2" fill="none"></path></g></g><mask></mask><g stroke-linecap="round"><g transform="translate(77.89049234506231 437.92939143777915) rotate(0 15.395315716313917 -10.180949697040688)"><path d="M-0.09 1.11 C5.2 -2.46, 26.94 -17.66, 32.39 -21.47 M-1.59 0.65 C3.47 -2.78, 25.8 -16.68, 31.38 -20.28" stroke="#000000" stroke-width="2" fill="none"></path></g></g><mask></mask><g stroke-linecap="round"><g transform="translate(112.21060515162708 417.7255751826234) rotate(0 11.284445642864682 13.210344858774818)"><path d="M1.11 -0.1 C4.44 4.25, 16.88 21.6, 19.97 26.02 M0.23 -1.2 C3.96 3.37, 18.7 23.36, 22.34 27.62" stroke="#000000" stroke-width="2" fill="none"></path></g></g><mask></mask><g stroke-linecap="round"><g transform="translate(159.30581658680092 413.646385947099) rotate(0 80.84477176101437 0.7572845172122129)"><path d="M-0.1 -0.66 C27.13 -0.66, 136 0.79, 163.3 1.15 M-1.61 1.6 C25.48 2.24, 134.94 2.03, 162.42 2.18" stroke="#000000" stroke-width="1" fill="none"></path></g><g transform="translate(159.30581658680092 413.646385947099) rotate(0 80.84477176101437 0.7572845172122129)"><path d="M133.11 12.6 C140.75 10.34, 149.56 5.9, 162.09 2.03 M134.1 12.64 C144.16 9.59, 154.31 5.43, 162.79 1.83" stroke="#000000" stroke-width="1" fill="none"></path></g><g transform="translate(159.30581658680092 413.646385947099) rotate(0 80.84477176101437 0.7572845172122129)"><path d="M133.14 -7.92 C140.96 -4.18, 149.77 -2.62, 162.09 2.03 M134.13 -7.88 C144.32 -3.47, 154.47 -0.18, 162.79 1.83" stroke="#000000" stroke-width="1" fill="none"></path></g></g><mask></mask></svg>